<svg width="1920" height="642" viewBox="0 0 1920 642" fill="none" xmlns="http://www.w3.org/2000/svg">
<mask id="mask0_1219_307" style="mask-type:alpha" maskUnits="userSpaceOnUse" x="0" y="0" width="1920" height="642">
<path d="M1920 0H0V642H1920V0Z" fill="#030A15"/>
</mask>
<g mask="url(#mask0_1219_307)">
<path d="M1920 0H0V642H1920V0Z" fill="#F5F5F5"/>
<path opacity="0.03" d="M-28.9441 103.445C8.1386 133.287 47.3216 164.09 94.1179 172.754C152.313 183.496 216.064 158.599 269.774 183.43C277.912 187.193 285.766 192.203 290.908 199.554C306.703 222.022 292.089 256.611 308.476 278.642C319.983 294.088 341.97 296.669 361.201 295.597C380.431 294.525 400.799 291.331 418.148 299.688C442.192 311.262 451.424 340.184 468.795 360.421C489.032 383.983 519.705 395.053 547.533 408.88C575.34 422.707 603.627 443.315 609.709 473.769C612.641 488.515 609.928 503.785 611.285 518.75C614.304 551.654 636.685 579.657 661.778 601.141C686.872 622.647 715.619 639.93 738.547 663.711C761.475 687.492 778.474 720.484 772.086 752.906C767.185 777.738 749.661 797.909 732.618 816.636C696.148 856.672 656.571 897.387 605.071 914.123C569.805 925.587 531.65 924.799 495.836 934.469C460.044 944.117 423.771 969.517 420.03 1006.4M298.171 -404.948C311.363 -374.188 332.169 -346.731 358.225 -325.729C381.328 -307.111 408.216 -293.656 431.494 -275.257C454.772 -256.858 475.074 -231.436 476.999 -201.814C477.721 -190.634 475.796 -179.367 477.218 -168.275C482.666 -125.373 532.809 -102.992 550.487 -63.5247C568.776 -22.7228 548.452 26.2613 561.316 69.0978C570.942 101.083 598.792 129.699 592.645 162.538C588.116 186.756 567.114 203.361 558.625 225.917C552.893 241.166 553.156 283.74 581.465 264.903C587.132 261.14 591.004 255.233 594.242 249.239C602.752 233.487 608.265 217.801 627.737 213.162C640.754 210.056 654.362 212.156 667.663 213.556C703.302 217.319 742.901 205.111 765.413 175.927C784.753 150.855 790.572 115.435 815.819 96.3137C833.256 83.1215 856.468 80.6056 875.808 70.4324C937.175 38.1847 935.906 -37.4684 948.004 -95.8162C959.271 -150.248 1034.27 -162.237 1063.63 -203.892C1076.58 -222.291 1078.72 -246.925 1072.66 -268.584C1066.6 -290.265 1053.1 -309.255 1037.24 -325.204M1950.64 -413.94C1905.57 -425.272 1858.42 -397.291 1830.99 -359.792C1803.55 -322.272 1790.69 -276.438 1774.02 -233.055C1757.35 -189.671 1734.38 -145.697 1694.67 -121.544C1683.88 -114.981 1672.07 -110.037 1662.09 -102.27C1653.38 -95.4879 1646.3 -86.7149 1637.13 -80.5892C1612.93 -64.4434 1579.72 -70.4598 1554.3 -84.6365C1528.88 -98.7914 1508.05 -119.969 1483.44 -135.48C1452.39 -155.039 1415.46 -165.168 1378.78 -164.14C1359.74 -163.615 1340.12 -159.874 1324.63 -148.804C1309.14 -137.734 1298.75 -118.088 1302.79 -99.4915C1308.96 -71.2036 1345.19 -50.0917 1336.6 -22.4601C1330.82 -3.90786 1308.05 2.69923 1295.18 17.2698C1271.47 44.1137 1288.62 87.2565 1313.34 113.182C1338.06 139.107 1370.66 160.612 1381.38 194.785C1394.57 236.856 1369.5 280.458 1345.5 317.454C1336.33 331.587 1326.36 346.441 1311.02 353.464C1290.63 362.806 1266.3 355.63 1247.12 344.035C1227.93 332.44 1211.35 316.622 1191.22 306.733C1176.21 299.361 1153.7 298.048 1146.94 313.362C1142.47 323.492 1148.38 335.787 1157.42 342.175C1166.45 348.564 1177.83 350.489 1188.77 352.239C1247.31 361.668 1310.69 374.16 1349.59 418.922C1384.09 458.652 1428.11 433.974 1463.22 403.367C1496.02 374.773 1512.78 313.122 1564.69 313.45C1590.27 313.603 1615.8 331.324 1640.96 337.362C1661.54 342.307 1682.57 347.01 1700.88 357.621C1719.19 368.232 1734.7 386.018 1736.83 407.086C1740.28 441.106 1703.53 499.191 1681.63 523.87C1659.03 549.335 1626.98 565.897 1630.15 605.101C1631.18 617.769 1639.19 624.157 1644.76 635.096C1651.07 647.5 1653.82 661.458 1659.79 674.016C1686.03 729.235 1744.77 762.446 1728.62 832.082C1714.66 892.29 1654.83 922.612 1618.12 967.265M750.055 955.319C756.268 913.379 778.737 867.589 820.217 858.729C852.158 851.903 884.975 869.405 917.397 865.358C952.227 861.004 978.677 833.416 1005.37 810.642C1032.08 787.889 1068.48 767.805 1100.82 781.435C1119.66 789.377 1134.12 807.907 1154.46 809.942C1165.93 811.079 1177.15 806.638 1187.63 801.847C1203.65 794.54 1219.48 786.204 1236.77 782.923C1254.07 779.663 1273.61 782.376 1286.15 794.715C1307.43 815.695 1299.14 850.875 1302.97 880.519C1306.51 907.932 1322.42 933.507 1345.43 948.821M917.375 838.514C905.146 838.514 892.85 836.239 881.846 831.907C847.235 818.343 820.063 786.139 809.146 745.796C804.968 730.307 803.043 713.986 801.183 698.19C797.551 667.233 794.116 637.983 774.558 618.578C764.603 608.711 751.302 602.476 737.213 595.89C723.561 589.502 709.45 582.917 697.439 572.438C670.136 548.635 662.96 516.015 656.024 484.489C652.415 468.059 649.002 452.526 642.898 438.393C637.144 425.091 628.043 414.524 618.395 403.323C602.205 384.53 583.85 363.221 585.338 328.107C587.022 288.203 614.413 250.879 651.977 237.315C670.398 230.664 689.738 229.68 708.443 228.717C729.205 227.667 748.83 226.661 765.654 218.194C788.297 206.796 803.174 182.883 817.569 159.759C819.538 156.608 821.485 153.458 823.454 150.373C839.797 124.601 861.106 110.381 881.715 96.6415C897.357 86.2058 912.125 76.3609 924.945 61.6372C944.526 39.1469 966.381 2.76431 959.337 -42.8288C958.987 -45.0384 958.593 -47.27 958.221 -49.5234C955.989 -62.3875 953.43 -76.9799 959.009 -91.0472C969.926 -118.613 986.859 -124.411 999.11 -124.411C1035.14 -124.411 1070.87 -74.4202 1080.98 -59.0839C1093.08 -40.7067 1101.54 -22.8763 1103.6 -11.3687C1112.06 35.8215 1101.28 83.493 1089.62 123.923C1085.79 137.159 1082.55 152.255 1079.14 168.225C1067.59 222.176 1054.48 283.324 1010.6 314.478C994.516 325.898 976.073 331.564 958.221 337.034C943.278 341.628 929.146 345.96 916.828 353.376C885.303 372.322 868.763 413.387 878.367 448.894C879.133 451.738 880.052 454.604 881.036 457.645C883.924 466.571 887.184 476.701 886.462 487.64C885.325 504.967 874.867 518.334 865.656 530.104C860.253 536.996 855.155 543.515 851.939 550.429C841.088 573.706 852.617 602.06 869.594 618.052C886.331 633.804 910.637 643.934 943.935 649.009C949.667 649.885 955.618 650.628 961.371 651.35C977.145 653.319 993.466 655.332 1009.28 660.539C1036.11 669.334 1055.93 686.53 1063.67 707.729C1068.75 721.665 1067.65 738.095 1060.74 751.66C1054.79 763.342 1045.14 771.612 1033.59 774.894C1029.32 776.119 1025.08 776.6 1021.34 777.016C1017.29 777.475 1013.46 777.913 1010.6 779.182C1005 781.654 1000.82 788.195 996.376 795.13C994.604 797.909 992.766 800.753 990.753 803.532C974.804 825.431 947.37 838.514 917.375 838.514ZM1071.81 -53.0899C1042.76 -97.1953 991.825 -144.298 969.138 -87.0441C963.844 -73.6768 967.913 -58.7125 970.101 -44.5139C976.664 -1.96175 960.846 37.0024 933.149 68.8126C901.82 104.801 859.597 113.727 832.643 156.236C815.469 183.32 799.17 213.555 770.511 227.951C735.594 245.519 692.407 234.317 655.631 247.575C622.224 259.63 597.699 293.059 596.189 328.544C594.089 378.163 635.985 394.943 652.874 434.039C671.361 476.831 666.591 531.066 704.571 564.167C727.433 584.098 760.687 589.414 782.215 610.789C815.294 643.605 807.484 697.927 819.648 742.908C828.946 777.234 852.683 808.716 885.784 821.711C918.907 834.707 960.912 825.846 981.849 797.077C989.222 786.948 994.669 774.193 1006.13 769.139C1013.75 765.792 1022.54 766.623 1030.53 764.348C1051.25 758.441 1060.72 731.685 1053.32 711.426C1045.93 691.167 1026.28 677.603 1005.81 670.887C985.328 664.17 963.494 663.054 942.207 659.795C913.087 655.332 883.487 646.165 862.025 625.972C840.585 605.779 829.515 572.459 841.941 545.746C851.611 525.006 873.948 509.692 875.458 486.852C876.245 474.797 870.864 463.355 867.713 451.694C856.862 411.57 875.48 365.343 911.096 343.924C939.975 326.575 976.708 325 1004.16 305.485C1057.06 267.921 1062.38 178.398 1079.01 120.816C1091.24 78.4606 1100.54 33.8739 1092.75 -9.50952C1091.04 -19.3982 1083.06 -36.0034 1071.81 -53.0899ZM917.375 805.676C909.193 805.676 901.054 804.188 893.835 801.344C869.222 791.696 848.92 767.106 840.825 737.199C837.259 724.05 835.574 709.611 833.781 694.341C829.843 660.78 825.358 622.735 797.682 595.256C783.681 581.364 766.375 573.269 751.127 566.137C739.006 560.471 727.542 555.111 719.01 547.673C699.867 530.98 694.398 506.149 688.075 477.401C684.29 460.162 680.374 442.353 673.023 425.354C665.279 407.458 653.574 393.872 643.248 381.883C626.599 362.565 617.213 350.598 618.11 329.464C619.226 302.949 638.15 277.177 663.113 268.163C676.939 263.175 693.063 262.344 710.106 261.469C733.362 260.287 757.384 259.062 780.377 247.489C811.268 231.956 829.405 202.815 845.419 177.086C847.323 174.023 849.226 170.961 851.151 167.942C863.775 148.033 880.533 136.853 899.917 123.924C916.675 112.744 934.002 101.193 949.689 83.1655C984.321 43.3918 998.87 -1.91684 991.759 -47.86C991.387 -50.2884 990.972 -52.7169 990.534 -55.1672C988.893 -64.5965 987.34 -73.5006 989.506 -78.9919C990.687 -81.9454 994.844 -91.6154 999.11 -91.6154C1009.5 -91.6154 1032.71 -72.713 1053.56 -41.056C1065.03 -23.6414 1070.45 -10.3179 1071.31 -5.59229C1078.59 34.9471 1068.7 78.0024 1058.09 114.779C1053.96 129.131 1050.61 144.751 1047.04 161.313C1036.74 209.4 1025.06 263.919 991.606 287.7C979.836 296.057 964.675 300.717 948.617 305.64C932.449 310.606 915.713 315.747 899.939 325.22C872.526 341.694 853.033 369.763 845.879 400.808C842.291 416.363 841.175 433.843 844.851 449.529C849.204 468.082 851.261 489.215 843.582 507.943C834.502 530.105 815.863 541.416 814.988 567.45C814.047 595.432 826.911 622.91 847.104 641.922C868.829 662.377 898.889 675.307 938.969 681.433C945.16 682.373 951.351 683.139 957.324 683.883C972.201 685.743 986.268 687.493 999.067 691.672C1016.02 697.228 1028.65 707.423 1032.85 718.931C1034.79 724.291 1034.27 731.27 1031.51 736.718C1030.48 738.73 1028.21 742.275 1024.6 743.303C1022.91 743.784 1020.33 744.069 1017.62 744.397C1011.91 745.053 1004.78 745.863 997.382 749.122C982.724 755.576 974.979 767.696 968.744 777.41C967.169 779.882 965.681 782.201 964.237 784.192C954.414 797.669 936.912 805.676 917.375 805.676ZM907.443 298.639C896.088 298.639 885.697 295.86 875.173 292.775L850.058 285.403C845.529 284.068 834.897 280.962 828.53 270.526C821.42 258.887 823.192 244.185 833.234 231.212C843.67 217.735 856.49 208.481 868.916 199.533C879.133 192.16 888.781 185.203 895.345 176.889C900.158 170.785 904.03 163.041 908.121 154.837C912.256 146.545 916.544 137.991 922.407 129.634C934.09 112.985 953.889 103.052 975.373 103.052C982.571 103.052 989.528 104.168 996.026 106.356C1011.1 111.453 1022.1 122.02 1026.26 135.387C1029.35 145.32 1030.05 161.094 1016 179.777C1011.01 186.406 1005.98 192.379 1001.12 198.154C990.819 210.406 981.915 220.995 975.701 234.734C974.717 236.922 973.732 239.175 972.748 241.45C963.953 261.622 953.036 286.715 926.17 295.707C920.351 297.654 914.05 298.639 907.443 298.639ZM989.047 127.096C973.689 121.911 951.877 125.739 940.325 142.213C929.649 157.418 924.048 175.861 912.541 190.453C895.498 212.069 867.407 222.854 850.561 244.623C847.323 248.823 844.479 254.643 847.236 259.171C849.095 262.212 852.815 263.437 856.249 264.444C864.628 266.894 872.986 269.366 881.343 271.817C893.704 275.448 907.006 279.08 919.213 274.989C939.231 268.294 947.064 244.995 955.771 225.764C966.491 202.027 983.359 186.8 998.52 166.651C1013.48 146.764 1004.56 132.324 989.047 127.096ZM907.443 265.778C893.573 266.784 877.996 260.024 864.803 257.158C862.353 256.633 859.509 255.78 858.656 253.417C857.606 250.486 860.34 247.707 862.791 245.782C882.262 230.577 905.693 216.794 921.138 197.213C928.03 188.462 932.843 178.814 937.503 169.494C941.266 161.947 944.81 154.836 949.273 148.492C957.062 137.378 991.541 126.133 994.276 147.442C995.348 155.821 988.631 162.931 982.79 169.035C965.988 186.559 952.183 206.949 942.163 229.067C937.787 238.715 933.981 248.932 926.761 256.699C921.117 262.737 914.488 265.253 907.443 265.778ZM817.657 391.443C801.577 356.833 666.373 249.194 661.341 336.552C660.028 359.436 678.777 378.36 684.422 400.566C688.119 415.071 686.063 430.386 687.922 445.219C690.985 469.481 707.918 502.101 722.861 521.331C729.752 530.192 740.866 536.667 751.958 534.917C780.137 530.476 773.573 499.563 782.39 480.989C792.366 460.008 818.16 448.106 823.433 424.479C825.949 413.365 822.448 401.769 817.657 391.443ZM748.283 524.262C742.66 524.262 736.053 520.478 731.503 514.614C717.72 496.915 701.574 466.112 698.774 443.862C698.096 438.414 697.986 432.792 697.877 426.819C697.702 417.434 697.527 407.72 695.033 397.875C692.451 387.746 687.726 378.688 683.153 369.915C677.246 358.583 671.645 347.885 672.28 337.186C673.614 314.105 684.772 314.105 690.132 314.105C726.34 314.105 797.005 372.913 807.746 396.059C812.691 406.67 814.332 415.202 812.8 422.094C810.503 432.332 802.343 440.58 793.701 449.288C785.825 457.229 777.687 465.455 772.545 476.263C769.198 483.307 767.776 491.074 766.419 498.578C763.291 515.752 761.081 522.403 750.296 524.109C749.617 524.219 748.961 524.262 748.283 524.262ZM745.045 495.778C735.419 497.419 725.793 479.391 723.824 472.456C720.411 460.445 721.833 447.691 721.811 435.198C721.767 407.589 714.438 380.023 700.786 356.045C698.796 352.566 696.652 349.044 695.973 345.084C695.317 341.124 696.564 336.552 700.021 334.517C705.162 331.52 711.441 335.48 716.035 339.243C733.253 353.354 750.471 367.465 767.667 381.554C776.899 389.124 786.809 397.875 788.253 409.711C789.588 420.672 783.134 431.129 775.521 439.136C767.907 447.166 758.828 453.926 752.79 463.18C749.464 468.278 747.145 474.556 747.123 480.704C747.101 486.086 752.505 494.028 745.417 495.646C745.329 495.734 745.176 495.756 745.045 495.778ZM743.623 439.946C743.076 439.859 742.572 439.531 742.375 439.027C742.069 438.262 742.529 437.452 742.857 436.708C744.979 432.092 742.726 425.31 741.675 420.562C740.516 415.268 739.072 410.039 737.716 404.811C736.578 400.435 735.353 396.016 734.806 391.509C734.565 389.474 733.953 385.755 735.965 384.355C736.075 384.267 736.206 384.202 736.315 384.158C740.888 382.145 746.292 388.796 748.764 391.706C750.361 393.587 751.63 395.775 753.183 397.635C755.524 400.413 758.368 402.732 761.125 405.117C763.181 406.933 766.222 409.492 766.594 412.402C766.769 413.759 765.544 417.981 759.703 424.129C757.624 426.316 755.24 428.548 752.746 430.911C750.208 433.295 749.048 436.621 746.314 438.896C745.723 439.377 745.067 439.859 744.301 439.968C744.06 439.99 743.841 439.99 743.623 439.946ZM1187.43 777.235C1164.18 777.235 1139.61 761.964 1124.84 738.358C1114.19 721.337 1108.56 702.413 1103.14 684.101C1101.15 677.385 1099.09 670.428 1096.84 663.821C1087.32 635.927 1074.02 617.921 1057.28 610.286C1049.82 606.895 1041.18 605.232 1030.85 605.232C1019.78 605.232 1008.34 607.026 996.222 608.93C990.009 609.914 983.555 610.92 977.211 611.642C972.595 612.168 967.869 612.452 963.187 612.452C926.498 612.452 899.895 597.334 892.019 572C885.478 550.998 894.535 529.47 901.908 515.096C903.746 511.53 905.649 507.942 907.596 504.376C916.391 488.012 924.704 472.544 925.186 456.136C925.317 451.476 924.814 446.597 924.267 441.434C923.435 433.471 922.582 425.266 923.873 416.559C929.189 381.139 966.775 361.034 1001.69 356.789C1005.96 356.264 1010.11 355.739 1014.23 355.236C1032.47 352.939 1049.71 350.751 1065.51 350.751C1110.66 350.751 1137.62 369.828 1155.62 414.546C1160.15 425.792 1163.81 437.343 1167.33 448.522C1172.03 463.443 1176.47 477.532 1182.82 490.921C1199.38 525.838 1230.49 557.452 1272.78 582.305C1276.02 584.208 1279.32 586.089 1282.65 587.971C1303.23 599.697 1324.54 611.796 1337.58 633.104C1347.27 648.944 1348.8 671.128 1341.36 688.324C1335.57 701.779 1325.13 710.683 1312.03 713.417C1308.79 714.096 1305.35 714.424 1301.24 714.424C1299.03 714.424 1296.82 714.336 1294.61 714.249C1292.71 714.161 1290.78 714.074 1288.88 714.074C1287.28 714.074 1285.93 714.139 1284.7 714.271C1270.22 715.824 1258.89 728.316 1246.9 741.53C1234.14 755.598 1220.97 770.124 1201.57 775.375C1196.95 776.6 1192.2 777.235 1187.43 777.235ZM1328.19 638.837C1314.63 616.675 1289.58 604.904 1267.18 591.734C1227.91 568.631 1192.4 536.777 1172.88 495.603C1161.2 470.969 1155.6 443.906 1145.43 418.616C1117.21 348.498 1069.58 359.568 1002.96 367.641C972.704 371.294 939.165 388.031 934.658 418.156C932.755 430.802 936.452 443.644 936.08 456.42C935.424 479.37 922.079 499.651 911.621 520.063C903.877 535.136 897.423 552.551 902.454 568.719C911.074 596.46 947.085 604.095 975.964 600.748C1004.82 597.4 1035.41 588.255 1061.86 600.31C1085.31 611.008 1098.89 635.861 1107.21 660.255C1115.52 684.67 1120.47 710.661 1134.14 732.517C1147.81 754.373 1173.8 771.503 1198.7 764.786C1233.09 755.488 1248.1 707.183 1283.52 703.376C1292.25 702.435 1301.2 704.513 1309.77 702.698C1335.17 697.403 1341.76 660.999 1328.19 638.837ZM1187.43 744.418C1175.6 744.418 1161.31 734.77 1152.65 720.943C1144.38 707.707 1139.61 691.693 1134.6 674.738C1132.52 667.715 1130.35 660.43 1127.88 653.21C1115.35 616.434 1096.16 591.931 1070.89 580.423C1059.08 575.041 1045.97 572.416 1030.83 572.416C1017.23 572.416 1003.95 574.494 991.103 576.507C984.934 577.47 979.092 578.388 973.404 579.045C970.035 579.439 966.578 579.635 963.143 579.635C947.26 579.635 927.308 575.085 923.304 562.243C921.051 554.979 923.501 544.762 931.049 530.061C932.777 526.67 934.615 523.279 936.431 519.888C946.188 501.751 957.215 481.208 957.915 457.055C958.112 450.207 957.433 443.731 956.821 437.999C956.186 431.808 955.574 425.967 956.252 421.394C958.243 408.202 975.811 392.953 1005.56 389.343C1009.87 388.818 1014.12 388.293 1018.25 387.768C1036.19 385.493 1051.7 383.546 1065.42 383.546C1092.83 383.546 1110.45 390.437 1125.08 426.776C1129.13 436.84 1132.43 447.297 1135.93 458.367C1140.77 473.682 1145.76 489.543 1153.09 504.967C1172.47 545.856 1208.09 582.37 1256.06 610.592C1259.43 612.583 1262.89 614.53 1266.32 616.499C1284.09 626.607 1300.87 636.146 1309.49 650.257C1313.67 657.083 1314.37 667.846 1311.15 675.328C1308.9 680.557 1306.14 681.126 1305.22 681.323C1304.26 681.52 1302.93 681.629 1301.15 681.629C1299.43 681.629 1297.68 681.542 1295.92 681.476C1293.67 681.389 1291.33 681.279 1288.79 681.279C1286.01 681.279 1283.5 681.411 1281.09 681.673C1254.18 684.583 1237.36 703.135 1222.5 719.521C1212.48 730.57 1203.03 740.984 1192.92 743.718C1191.17 744.178 1189.31 744.418 1187.43 744.418ZM1069.53 430.123C1053.43 410.542 1028.82 399.975 1003.97 416.165C991.956 423.997 991.322 441.062 984.518 453.685C976.97 467.665 961.218 476.854 957.171 492.212C952.948 508.204 963.318 524.569 975.789 535.42C984.08 542.618 989.506 542.399 999.088 539.446C1008.65 536.492 1016.28 535.508 1026.83 536.339C1049.95 538.177 1072.64 545.024 1095.98 543.69C1104.45 543.209 1113.99 540.868 1118.06 533.429C1122.54 525.181 1118.17 515.118 1113.81 506.804C1100.25 480.835 1088.26 452.897 1069.53 430.123ZM1089.92 532.883C1068.94 532.139 1048.64 527.085 1027.73 525.444C1024.99 525.226 1022.48 525.116 1020.05 525.116C1003.9 525.116 987.274 535.618 974.323 520.019C968.569 513.084 966.687 503.304 968.788 494.553C972.354 479.655 987.121 471.975 994.188 458.893C997.01 453.664 998.804 448.238 1000.53 442.966C1003.11 435.133 1005.35 428.351 1009.98 425.332C1016.26 421.241 1022.67 419.163 1029.04 419.163C1044.16 419.163 1055.64 430.386 1061.13 437.059C1075 453.904 1085.35 474.535 1095.35 494.488C1098.74 501.27 1101.87 507.614 1105.81 514.156C1108.7 518.969 1110.23 525.751 1106.31 529.776C1103.53 532.664 1099.07 532.948 1095.07 532.97C1093.32 532.97 1091.61 532.948 1089.92 532.883ZM1075.29 507.395C1073.89 508.926 1071.7 509.823 1069.58 509.977C1066.67 510.173 1063.8 509.277 1060.98 508.467C1048.62 504.923 1035.71 503.216 1022.85 503.348C1016.28 503.413 1009.57 503.829 1003.09 505.032C999.045 505.776 992.35 509.123 989.944 503.588C987.625 498.316 995.435 491.665 998.585 488.361C1003.51 483.176 1009.09 477.269 1013.4 469.284C1017.03 462.568 1017.86 455.698 1020.79 448.938C1022.08 445.962 1024.36 443.271 1027.4 442.156C1031.49 440.668 1036.19 442.287 1039.47 445.153C1046.15 450.951 1051.95 460.949 1056.78 468.343C1062.77 477.51 1068.27 487.005 1074.04 496.325C1075.75 499.081 1077.52 502.319 1076.49 505.404C1076.23 506.148 1075.81 506.826 1075.29 507.395ZM1047.33 489.128C1047 489.894 1046.23 490.44 1045.43 490.681C1044.48 490.966 1043.46 490.922 1042.47 490.856C1037.66 490.856 1032.85 490.09 1028.08 489.522C1026.89 489.39 1025.63 489.215 1024.69 488.471C1023.7 487.684 1023.24 486.284 1023.59 485.059C1024.12 483.199 1026.35 482.652 1027.31 480.967C1028.49 478.933 1028.78 476.526 1029.37 474.273C1029.94 472.063 1032.58 464.997 1035.62 468.782C1036.3 469.613 1036.59 470.685 1036.91 471.713C1038.51 476.723 1041.42 481.296 1045.29 484.84C1046.43 485.89 1047.79 487.181 1047.46 488.712C1047.42 488.865 1047.37 488.997 1047.33 489.128ZM1217.49 602.366C1202.81 597.597 1188.31 590.027 1174.68 582.939C1148.18 569.134 1140.72 592.346 1138.36 614.683C1136.74 629.932 1138.65 645.575 1143.98 659.97C1149.08 673.709 1163.83 685.392 1164.97 699.984C1165.51 706.963 1164.4 716.721 1171.22 718.318C1176.95 719.653 1180.85 713.002 1184.7 708.539C1192.71 699.328 1206.14 697.884 1217.71 693.968C1238.45 686.945 1256.13 668.174 1257.09 646.297C1257.99 625.929 1239.02 609.367 1217.49 602.366ZM1183.69 681.039C1183.47 680.973 1183.28 680.886 1183.06 680.776C1177.15 678.129 1175.03 668.678 1171.53 663.712C1168.62 659.599 1165.62 655.354 1164.51 652.335C1159.58 639.077 1156.28 621.641 1161.25 607.923C1165.27 596.766 1178.09 609.389 1184.98 612.671C1193.36 616.653 1201.89 620.306 1210.71 623.194C1224.8 627.766 1235.56 637.502 1235.24 645.356C1234.73 656.689 1224.19 668.7 1210.69 673.272C1208.46 674.016 1205.92 674.738 1203.21 675.482C1197.48 677.035 1190.08 683.27 1183.69 681.039ZM1188.13 668.218C1183.19 667.037 1183.01 660.998 1180.48 657.389C1178.57 654.698 1175.4 650.213 1174.79 648.528C1172.6 642.643 1171 636.474 1170.24 630.26C1169.95 627.832 1168.71 620.262 1171.4 618.599C1173.96 617.024 1186.21 625.119 1189.07 626.3C1197.26 629.67 1205.44 633.039 1213.64 636.408C1217.47 637.983 1221.72 639.974 1223.12 643.868C1224.23 646.975 1223.16 650.541 1221.12 653.122C1219.09 655.704 1216.22 657.498 1213.36 659.117C1208 662.136 1202.4 664.74 1196.62 666.905C1194 667.89 1191.15 668.809 1188.4 668.262C1188.29 668.262 1188.22 668.24 1188.13 668.218ZM1630.41 674.475C1604.88 645.684 1586.94 601.885 1607.81 569.571C1618.14 553.601 1635.71 544.193 1650.56 532.314C1690.69 500.219 1711.47 441.434 1689.85 394.812C1668.24 348.191 1599.22 327.888 1561.43 362.74C1538.07 384.289 1532.44 401.835 1502.36 410.805C1479.7 417.565 1449.4 416.602 1437.85 442.112C1430.19 459.001 1433.43 485.058 1415.62 490.221C1410.54 491.687 1405.12 490.658 1400.04 489.214C1353.03 475.803 1322.81 430.517 1280.63 405.795C1265.14 396.716 1246.81 390.371 1229.31 394.419C1211.81 398.466 1196.71 415.924 1200.41 433.514C1203.91 450.097 1220.86 459.439 1233.62 470.575C1259.63 493.284 1271.05 528.463 1293.8 554.454C1315.09 578.782 1344.95 593.637 1369.83 614.289C1447.58 678.894 1386.72 773.668 1294.07 751.09C1288.73 749.8 1283.35 748.049 1277.85 748.509C1238.15 751.725 1306.89 785.132 1308.94 790.208C1314.26 803.291 1313.1 818.102 1316.62 831.775C1323.18 857.175 1345.54 876.034 1369.98 885.616C1394.42 895.177 1421.07 896.993 1447.21 899.246C1494.01 903.294 1536.19 923.312 1583.66 921.255C1626.19 919.418 1670.19 902.834 1695.15 868.355C1717.18 837.923 1721.27 795.437 1705.48 761.351C1689.29 726.478 1655.94 703.288 1630.41 674.475ZM1594.69 898.481C1590.73 898.941 1586.7 899.269 1582.72 899.444C1558.37 900.494 1534.83 894.828 1509.89 888.833C1490.53 884.173 1470.49 879.36 1449.09 877.5L1444.43 877.107C1420.56 875.072 1398.01 873.125 1377.97 865.293C1357.03 857.089 1342.02 842.562 1337.82 826.394C1334.52 813.661 1326.93 796.181 1333.88 782.508C1344.32 762.052 1369.13 768.615 1385.69 757.217C1403.56 744.922 1417.35 727.069 1423.54 706.176C1434.8 668.197 1419.93 627.57 1383.76 597.51C1373.68 589.131 1363.07 581.802 1352.83 574.713C1336.84 563.665 1321.74 553.229 1310.26 540.081C1301.72 530.345 1294.74 518.597 1287.33 506.149C1276.54 488.034 1265.38 469.307 1247.99 454.123C1244.71 451.257 1241.38 448.654 1238.17 446.116C1230.66 440.231 1222.88 434.127 1221.8 429.03C1220.91 424.807 1226.9 417.478 1234.23 415.772C1235.15 415.553 1236.09 415.4 1237.05 415.291C1246 414.24 1257.25 417.5 1269.56 424.72C1284.61 433.536 1298.33 445.635 1312.88 458.433C1336.57 479.305 1361.08 500.898 1394.03 510.283C1399.54 511.859 1406.95 513.543 1415.29 512.559C1417.48 512.296 1419.62 511.859 1421.7 511.268C1446.29 504.136 1451.15 479.895 1454.06 465.391C1455.13 460.074 1456.22 454.561 1457.75 451.17C1461.58 442.725 1470.47 440.122 1489.83 436.206C1495.98 434.959 1502.34 433.668 1508.62 431.808C1535.46 423.801 1548 409.58 1560.1 395.841C1564.91 390.372 1569.92 384.706 1576.27 378.864C1583.14 372.52 1591.8 368.691 1602.04 367.488C1629.17 364.294 1659.03 380.352 1670.01 404.045C1677.93 421.11 1678.78 441.916 1672.44 462.634C1666.12 483.286 1653.49 501.97 1636.89 515.272C1633.28 518.159 1629.36 520.982 1625.21 523.957C1613 532.73 1599.17 542.662 1589.44 557.736C1571.58 585.368 1567.32 636.321 1614.05 689.024C1622.71 698.803 1632.08 707.817 1641.11 716.546C1659.2 734.005 1676.31 750.5 1685.63 770.628C1698.08 797.472 1694.78 831.623 1677.43 855.601C1660.74 878.616 1630.59 894.259 1594.69 898.481ZM1588.01 878.134C1570.42 878.856 1552.62 876.034 1535.14 873.212C1495.6 866.823 1456.07 860.457 1416.52 854.069C1401.64 851.662 1373.5 843.064 1362.28 833.132C1354.03 825.825 1351.14 811.341 1359.39 804.034C1363.86 800.074 1370.16 799.221 1375.98 797.952C1411.37 790.229 1438.41 760.826 1447.28 726.193C1457.73 685.326 1444.47 640.892 1419.42 606.938C1399.52 579.963 1361.16 559.967 1334.45 539.818C1331.02 537.214 1327.43 534.457 1325.68 530.519C1323.93 526.581 1324.76 521.134 1328.61 519.187C1333.75 516.562 1339.31 521.484 1343.49 525.444C1369.98 550.691 1414.66 549.247 1445.07 531.701C1463.27 521.2 1469.77 504.266 1483.18 489.499C1490.05 481.929 1498.62 476.153 1507.11 470.465C1529.82 455.238 1552.55 439.99 1575.26 424.763C1590.09 414.808 1607.84 404.416 1624.73 410.214C1640.56 415.64 1648.88 434.455 1646.62 451.038C1644.37 467.621 1633.78 481.951 1621.68 493.524C1609.56 505.076 1595.63 514.636 1583.86 526.538C1561.15 549.466 1547.26 580.926 1545.66 613.151C1544.04 645.377 1554.72 678.063 1575.02 703.156C1592.41 724.64 1616.08 740.173 1634.66 760.629C1653.25 781.085 1666.82 810.094 1657.52 836.107C1649.71 858.007 1627.26 872.008 1604.42 876.34C1599 877.325 1593.53 877.893 1588.01 878.134ZM1613.06 844.486C1605.52 844.945 1597.73 844.18 1590.2 843.37C1544.35 838.448 1498.47 833.525 1452.61 828.581C1447.63 828.056 1442.09 827.224 1438.94 823.33C1435.2 818.692 1436.62 811.538 1440.34 806.9C1444.06 802.262 1449.49 799.418 1454.54 796.246C1505.1 764.589 1512.14 699.962 1495.14 647.412C1490.75 633.804 1484.75 620.721 1477.71 608.272C1471.28 596.896 1431.63 577.687 1462.81 563.445C1468.8 560.71 1475.61 560.426 1481.97 558.763C1501.18 553.731 1510.17 532.051 1522.05 518.355C1534.39 504.135 1549.53 492.758 1565.15 482.41C1578.67 473.44 1601.64 465.346 1611.8 453.138C1614.86 449.462 1617.46 445.24 1621.49 442.658C1625.51 440.077 1631.62 439.792 1634.48 443.621C1636.54 446.334 1636.25 450.272 1634.7 453.313C1633.15 456.354 1630.54 458.673 1628.01 460.948C1604.25 482.06 1577.58 501.728 1559.95 528.572C1543.84 553.141 1534.17 581.997 1532.71 611.357C1530.7 651.481 1544.04 692.414 1569.33 723.655C1580.66 737.657 1593.42 748.793 1605.74 759.557C1614.66 767.367 1623.11 774.74 1630.19 782.55C1645.38 799.265 1657.54 827.925 1630.35 840.482C1624.9 842.976 1619.06 844.136 1613.06 844.486ZM1608.27 809.789C1603.04 810.358 1596.72 809.526 1592.89 809.723C1574.84 810.686 1556.77 811.626 1538.72 812.589C1525.18 813.311 1509.36 815.368 1496.08 812.283C1491.42 811.211 1487 807.426 1486.83 802.656C1486.63 797.515 1492.58 792.615 1495.12 788.458C1499.34 781.523 1502.95 774.194 1506.08 766.712C1511.4 753.935 1514.7 740.808 1517.17 727.244C1518.64 719.215 1521.13 698.234 1531.74 696.987C1545.94 695.325 1547.82 726.216 1554.19 734.573C1568.65 753.519 1587.27 770.387 1605.71 785.329C1610 788.808 1614.55 792.483 1616.32 797.69C1619.26 806.463 1614.53 809.11 1608.27 809.789ZM1600.29 796.246C1599.35 798.521 1596.31 799.025 1593.79 799.134C1578.39 799.812 1562.99 800.512 1547.61 801.191C1535.6 801.737 1523.02 805.829 1510.65 804.363C1502.38 803.4 1502.78 801.3 1505.6 794.146C1507.72 788.742 1510.68 783.71 1512.95 778.394C1516.89 769.184 1520.17 759.689 1522.73 749.997C1524.44 743.587 1524.35 729.104 1531.22 725.844C1539.34 721.993 1544.76 735.186 1547.85 740.48C1559.38 760.389 1576 777.322 1595.74 789.18C1598.32 790.733 1601.36 793.205 1600.37 796.049C1600.33 796.115 1600.31 796.181 1600.29 796.246ZM1554.48 783.273C1548.42 783.645 1533.01 790.449 1527.87 785.636C1522.05 780.145 1528.73 769.643 1531.92 764.546C1538.72 753.716 1546.12 768.09 1551.54 773.669C1553.29 775.463 1561.28 782.857 1554.48 783.273ZM1508.36 626.826C1498.47 631.529 1499.74 607.398 1494.29 597.794C1490.75 591.515 1475.74 594.709 1479.3 581.517C1482.89 568.303 1483.05 580.773 1485.06 580.248C1500.98 576.091 1507.2 551.851 1519.84 555.264C1532.49 558.677 1509.39 591.69 1508.45 610.571C1508.16 615.974 1518.25 622.122 1508.36 626.826ZM1735.93 724.356C1735.84 724.421 1735.75 724.509 1735.69 724.597C1732.47 727.725 1731.44 732.582 1731.95 737.045C1733.74 753.147 1744.94 769.774 1750.87 784.673C1757.85 802.197 1764 820.049 1769.27 838.164C1780.14 875.443 1794.71 922.436 1789.27 961.444C1788.06 969.999 1786.99 980.04 1793.25 986.013C1800.16 992.598 1811.5 989.864 1820.05 985.685C1840.22 975.818 1851.62 961.116 1866.06 944.905C1881.2 927.928 1902.57 915.501 1920.6 901.806C1928.26 895.986 1936.81 887.717 1934.23 878.44C1931.73 869.492 1920.82 866.648 1911.8 864.439C1840.2 846.958 1803.84 778.744 1755.36 729.957C1750.37 724.968 1742.78 718.011 1735.93 724.356ZM1800.53 962.889C1799.77 957.223 1801.3 950.747 1801.34 945.343C1801.45 933.157 1800.25 920.993 1798.28 908.982C1794.47 885.661 1787.87 862.908 1781.24 840.265L1779.73 835.101C1773.06 812.239 1764.94 790.471 1755.31 768.746C1754.35 766.58 1753.43 763.955 1754.77 762.008C1759.43 755.16 1781.17 775.441 1784.17 779.007C1800.86 798.916 1817.64 818.999 1837.27 836.108C1859.21 855.229 1881.68 864.811 1908.41 874.284C1911.72 875.466 1914.8 877.654 1916.27 880.848C1918.52 885.77 1916.27 891.787 1912.37 895.528C1905.37 902.222 1894.3 907.079 1886.29 912.942C1876.17 920.359 1866.28 928.235 1857.9 937.642C1856.19 939.545 1854.53 941.449 1852.89 943.308C1844.55 952.782 1834.29 966.324 1823.05 972.406C1817.51 975.403 1810.12 975.884 1805.26 971.881C1802.31 969.409 1800.99 966.302 1800.53 962.889ZM1811.19 924.187C1808.04 922.481 1806.33 917.361 1805.81 914.386C1804.12 904.585 1809.77 894.958 1808.17 885.135C1804.91 865.117 1792.68 847.965 1786.73 828.778C1785.88 826 1785.07 823.156 1785.13 820.246C1785.2 817.336 1786.23 814.339 1788.46 812.48C1796.97 805.413 1805.08 819.874 1808.67 825.322C1815.26 835.342 1825.04 842.955 1835.63 848.622C1845.23 853.763 1855.6 856.432 1865.47 860.829C1872.27 863.87 1874.7 871.046 1866.74 874.787C1857.2 879.294 1848.77 883.429 1840.96 890.671C1837.4 893.974 1834.07 897.562 1831.08 901.391C1828.25 905 1826.2 910.426 1823.05 913.576C1821.27 916.836 1818.08 924.493 1813.62 924.734C1812.72 924.778 1811.91 924.581 1811.19 924.187ZM355.535 982.469C320.727 1006.58 280.582 1022.99 238.686 1029.18C153.494 1041.76 91.8208 1008.85 20.5433 969.299C-59.6384 924.799 -29.6879 866.014 9.67011 797.712C50.4501 726.981 60.4701 640.499 41.7866 561.455C22.5123 479.917 -55.0878 413.299 -14.3516 324.607C13.4987 263.962 91.5364 236.024 153.057 226.354C167.168 224.145 182.788 223.204 194.537 231.32C208.276 240.815 211.951 259.061 216.064 275.251C225.253 311.458 271.327 341.89 309.132 335.59C333.088 331.608 356.607 316.14 379.884 323.097C410.666 332.308 418.192 372.782 442.126 394.244C475.074 423.778 535.041 413.715 559.5 450.601C577.199 477.291 565.363 513.193 571.358 544.653C587.526 629.516 720.257 650.234 736.622 735.054C744.476 775.79 716.429 820.202 676.24 830.572C615.66 846.215 540.357 771.721 488.638 814.93C465.645 834.138 454.64 863.629 440.114 889.817C419.592 926.725 390.211 958.425 355.535 982.469ZM202.369 1010.04C138.967 1010.04 86.5921 980.96 31.1322 950.178C9.7358 938.298 -2.60321 925.544 -6.58495 911.192C-13.7827 885.267 5.09774 849.409 28.5944 808.629C70.9933 735.077 83.5511 643.147 63.0517 556.401C55.9415 526.342 42.071 499.06 28.6381 472.676C4.11323 424.479 -17.0862 382.868 5.49154 333.708C33.9982 271.641 128.225 252.367 156.404 247.926C161.983 247.051 166.314 246.635 170.056 246.635C175.481 246.635 179.507 247.532 182.044 249.282C187.995 253.395 190.992 265.384 193.902 276.98L194.821 280.611C205.519 322.748 253.147 358.299 298.828 358.299C303.531 358.299 308.191 357.927 312.676 357.183C322.565 355.542 331.644 352.523 340.439 349.592C350.328 346.31 359.648 343.203 367.283 343.203C369.58 343.203 371.658 343.488 373.584 344.057C383.976 347.163 391.414 359.59 400.034 373.963C407.275 386.062 415.501 399.757 427.49 410.521C446.436 427.498 470.83 433.755 492.358 439.268C513.907 444.781 532.525 449.551 541.232 462.699C548.474 473.616 548.124 489.303 547.73 507.461C547.446 520.828 547.139 534.633 549.83 548.744C559.566 599.872 602.993 630.633 641.301 657.783C675.911 682.308 708.597 705.454 715.116 739.211C720.761 768.484 699.627 801.935 670.748 809.395C666.832 810.401 662.675 810.905 658.059 810.905C640.404 810.905 620.233 803.751 598.836 796.159C575.58 787.911 551.537 779.401 527.646 779.401C507.322 779.401 489.47 785.701 474.593 798.15C453.503 815.761 441.733 838.908 430.334 861.267C427.14 867.524 424.143 873.453 420.949 879.185C402.462 912.483 375.531 941.996 343.064 964.486C310.488 987.064 273.274 1001.94 235.47 1007.52C224.29 1009.18 213.155 1010.04 202.369 1010.04ZM202.347 976.037C159.62 977.197 116.543 966.63 79.5475 945.168C62.461 935.257 46.0965 922.459 37.4767 904.672C23.7156 876.341 36.1422 852.582 52.2442 829.632C67.8867 807.295 78.6943 783.12 87.2266 756.692C108.776 689.855 111.139 617.112 95.015 548.854C87.0078 514.965 72.2185 485.912 57.9105 457.799C32.598 408.093 20.1058 380.592 35.3327 347.426C46.1403 323.885 73.203 308.308 94.0087 299.404C110.636 292.272 139.099 278.795 157.979 286.19C171.084 291.331 171.324 297.698 175.853 309.665C183.051 328.698 188.608 339.922 205.716 354.689C231.291 376.807 264.786 391.094 298.849 391.094C321.252 391.094 340.155 374.16 362.557 384.815C382.378 394.244 389.926 416.734 403.272 432.639C419.396 451.87 437.795 459.024 462.21 462.852C481.813 465.915 504.062 471.232 513.185 488.843C519.048 500.154 517.758 513.631 517.845 526.363C518.348 598.713 567.398 645.575 622.377 684.517C640.448 697.316 667.029 712.696 678.165 732.385C685.1 744.637 684.838 762.183 673.746 770.868C662.763 779.466 646.967 776.097 633.534 772.291C572.714 755.117 509.138 726.5 453.59 772.903C416.486 803.904 406.181 849.934 377.631 886.623C347.593 925.215 305.194 954.225 258.091 967.571C239.911 972.734 221.162 975.534 202.347 976.037ZM195.981 965.186C156.623 965.186 118.249 954.991 85.0388 935.695C65.9833 924.625 53.6443 912.92 47.3217 899.903C36.7329 878.069 44.3901 859.911 61.1921 835.911C76.3096 814.339 87.8829 790.23 97.6185 760.061C119.715 691.54 122.493 617.637 105.626 546.338C97.3122 511.202 82.2385 481.536 67.646 452.876C36.4485 391.597 25.8597 340.709 98.5374 304.742C116.783 295.707 140.433 294.569 156.273 307.346C161.589 311.634 165.702 317.191 169.771 322.682C203.769 368.647 236.695 402.054 298.828 402.054C309.132 402.054 318.539 399.145 326.853 396.563C333.985 394.353 340.701 392.275 346.958 392.275C350.853 392.275 354.309 393.063 357.832 394.725C368.333 399.713 375.049 410.302 382.138 421.526C386.01 427.629 390.014 433.952 394.849 439.706C414.976 463.706 438.276 470.225 460.46 473.704C477.94 476.439 496.711 480.989 503.406 493.919C507.059 500.985 506.972 510.262 506.863 520.085C506.841 522.229 506.819 524.373 506.841 526.473C507.388 605.889 562.322 655.464 615.988 693.465C619.248 695.784 622.792 698.169 626.468 700.663C642.504 711.514 660.685 723.831 668.582 737.811C672.98 745.578 673.374 757.261 666.942 762.292C664.316 764.349 660.75 765.355 656.09 765.355C649.855 765.355 642.657 763.561 636.444 761.811C628.809 759.645 620.933 757.261 613.319 754.942C584.047 746.037 553.79 736.805 523.862 736.805C494.173 736.805 468.883 745.884 446.524 764.568C422.612 784.542 409.222 810.008 396.293 834.62C387.804 850.788 379.775 866.058 368.946 879.951C340.045 917.077 299.593 944.468 255.072 957.091C238.008 961.926 220.177 964.617 202.041 965.12C200.028 965.164 197.993 965.186 195.981 965.186ZM202.544 925.128C171.828 925.434 140.717 918.52 111.948 904.059C101.338 898.721 90.4863 891.589 86.5045 880.41C83.1791 871.068 85.4106 860.457 90.2018 851.772C97.6403 838.251 129.779 781.063 135.423 763.583C155.682 700.794 160.845 633.498 151.087 568.259C146.843 539.971 139.536 511.836 131.004 484.555C123.456 460.445 103.635 444.519 92.5209 422.16C82.7416 402.448 79.0005 378.601 87.7734 358.43C96.5464 338.259 120.065 323.972 141.133 330.273C161.217 336.268 172.374 356.877 185.348 373.35C205.388 398.816 233.238 413.933 263.451 424.041C292.002 433.602 322.521 415.662 350.043 427.213C374.152 437.343 382.028 469.131 404.584 482.367C422.415 492.824 446.086 489.63 463.37 500.985C482.272 513.39 487.129 538.308 493.933 559.88C507.081 601.557 533.509 638.924 568.404 665.199C576.258 671.106 584.813 676.772 589.648 685.348C594.483 693.924 594.001 706.482 585.732 711.82C571.664 720.856 550.333 703.66 535.85 701.231C515.373 697.797 493.845 699.897 474.374 707.029C428.737 723.743 395.527 771.437 373.78 812.807C365.642 828.297 358.619 841.642 349.584 853.259C313.267 899.946 258.594 924.559 202.544 925.128ZM200.706 893.777C195.587 893.996 190.38 893.952 185.064 893.624C169.924 892.661 153.604 888.636 144.349 876.603C136.43 866.321 135.379 852.078 138.224 839.389C141.046 826.722 147.281 815.127 152.903 803.401C210.704 682.548 201.559 532.161 129.516 419.185C124.856 411.877 119.89 404.592 117.505 396.257C115.121 387.943 115.733 378.208 121.4 371.666C146.384 342.853 165.986 401.573 177.735 413.868C202.281 439.575 240.13 458.127 276.031 456.836C299.265 456.005 324.621 453.795 343.721 467.075C359.604 478.123 367.852 497.922 384.085 508.445C399.115 518.181 418.586 518.4 434.229 527.107C454.181 538.243 460.482 558.349 468.73 578.038C478.137 600.485 493.473 620.941 506.469 641.615C510.122 647.434 513.907 654.348 511.566 660.78C505.856 676.379 477.393 672.2 464.901 675.569C444.227 681.126 425.478 693.137 410.098 707.817C386.885 729.979 370.324 758.004 353.456 785.308C319.021 841.074 268.265 890.846 200.706 893.777ZM209.654 875.203C193.421 872.994 184.692 859.911 193.574 837.946C206.876 805.042 221.03 774.325 228.556 739.299C237.767 696.463 239.911 652.292 236.126 608.667C232.954 571.847 223.809 538.965 212.695 503.917C210.748 497.748 209.041 490.265 213.329 485.43C218.208 479.939 227.069 481.886 234.026 484.293C251.987 490.484 265.333 499.476 284.388 499.06C306.922 498.557 326.853 500.285 345.668 514.375C359.035 524.395 369.208 538.396 383.341 547.301C396.708 555.702 412.767 559.005 426.199 567.297C449.193 581.517 489.47 628.27 470.086 656.229C461.794 668.197 447.858 674.694 434.447 680.383C414.648 688.784 392.923 700.335 380.081 718.187C359.779 746.409 345.777 778.154 323.309 805.239C299.221 834.27 269.161 859.364 233.61 871.987C224.793 875.116 216.546 876.144 209.654 875.203ZM214.773 864.592C213.505 864.592 212.258 864.504 211.12 864.351C208.101 863.936 204.097 862.776 202.238 859.604C200.137 855.972 200.662 849.562 203.703 842.058C205.979 836.435 208.276 830.879 210.551 825.365C221.993 797.712 232.779 771.59 239.233 741.618C248.399 699.022 251.003 653.997 247.021 607.748C245.577 591.077 240.064 575.303 234.945 559.486C230.963 547.147 217.88 518.093 223.875 505.295C230.219 491.753 267.936 510.02 283.098 510.02C283.601 510.02 284.126 510.02 284.651 509.998C286.664 509.955 288.654 509.933 290.623 509.933C309.154 509.933 324.512 512.186 339.126 523.147C344.443 527.129 349.321 531.942 354.463 537.017C361.42 543.887 368.617 550.975 377.522 556.576C385.135 561.367 393.186 564.54 400.953 567.624C407.975 570.403 414.626 573.028 420.446 576.616C435.169 585.739 459.016 610.986 463.567 632.82C465.032 639.864 464.223 645.487 461.094 649.994C454.553 659.423 442.739 664.98 430.181 670.296C412.198 677.932 386.491 690.511 371.199 711.776C362.229 724.247 354.441 737.395 346.893 750.128C336.763 767.258 327.181 783.426 314.886 798.259C288.939 829.544 260.367 850.897 229.935 861.682C224.597 863.586 219.324 864.592 214.773 864.592ZM251.484 812.808C238.992 806.201 266.624 770.343 271.327 748.488C281.172 702.763 283.994 654.523 279.728 605.079C278.437 590.093 274.149 572.635 266.711 559.661C263.736 554.476 261.898 547.235 266.186 543.078C269.883 539.468 275.922 540.387 280.866 541.875C293.949 545.813 307.404 540.365 319.458 549.379C323.002 552.048 326.918 555.898 331.447 560.361C339.301 568.106 348.162 576.835 360.063 584.339C370.258 590.75 380.169 594.666 388.92 598.122C394.805 600.441 399.88 602.454 403.206 604.51C411.848 609.849 429.481 620.809 424.712 633.083C420.314 644.394 395.242 650.65 385.113 656.776C369.558 666.206 355.25 677.757 344.574 692.612C334.751 706.264 326.59 720.047 318.692 733.392C308.804 750.085 300.293 764.458 289.639 777.322C278.941 790.208 263.976 819.415 251.484 812.808ZM305.413 694.865C300.337 694.34 297.887 690.468 296.53 685.611C293.424 674.475 296.99 661.764 298.499 650.628C300.6 635.205 306.375 619.956 305.325 604.204C304.778 596.197 302.131 590.268 298.062 583.551C294.364 577.469 293.249 574.21 300.775 570.447C317.314 562.133 325.234 594.096 343.655 605.714C351.028 610.373 387.017 608.142 383.1 624.572C382.685 626.3 381.394 627.657 380.016 628.773C374.546 633.214 367.48 634.942 361.66 638.836C355.359 643.059 348.906 647.85 343.086 652.75C336.041 658.679 329.347 665.024 323.156 671.85C320.202 675.11 316.592 678.588 314.317 682.395C310.838 688.192 316.22 694.843 306.725 694.909C306.266 694.931 305.828 694.909 305.413 694.865ZM879.002 -24.626C864.891 -50.3104 833.562 -68.7534 833.956 -98.0695C834.175 -114.74 845.114 -129.026 852.552 -143.947C882.525 -204.154 847.476 -275.848 789.632 -305.82C758.172 -322.119 724.064 -313.762 693.326 -328.42C659.503 -344.522 638.216 -379.504 611.263 -404.095C591.201 -422.406 567.136 -436.342 541.254 -444.612C488.617 -461.436 384.151 -446.909 377.938 -375.238C376.012 -353.12 386.645 -331.045 402.987 -316.015C441.798 -280.311 533.225 -268.256 522.79 -194.638C520.427 -177.989 510.516 -162.084 513.251 -145.478C517.692 -118.525 550.421 -108.111 568.842 -87.9401C586.191 -68.9284 590.195 -41.1875 588.838 -15.4812C587.482 10.2251 581.641 35.6907 582.647 61.4189C583.982 95.1762 598.508 129.458 625.877 149.236C653.246 169.035 693.961 171.048 720.039 149.586C746.117 128.124 756.422 87.0595 788.822 77.5865C801.555 73.8673 815.207 76.1207 828.377 74.4799C871.739 69.1636 900.07 13.6818 879.002 -24.626ZM674.861 143.066C661.975 143.066 648.761 138.866 638.654 131.559C618.417 116.923 605.64 90.4068 604.459 60.6094C603.912 46.8484 605.662 32.7153 607.478 17.7291C608.747 7.38098 610.06 -3.31723 610.629 -14.278C612.619 -52.0607 603.978 -81.7924 584.944 -102.642C576.893 -111.459 567.158 -118.394 558.582 -124.52C544.645 -134.452 536.113 -141.059 534.801 -148.957C533.947 -154.12 536.201 -161.165 538.782 -169.347C540.882 -175.932 543.245 -183.414 544.405 -191.509C553.812 -257.842 499.206 -286.043 459.322 -306.651C442.98 -315.096 427.556 -323.06 417.755 -332.073C405.394 -343.45 398.481 -359.245 399.706 -373.313C401.215 -390.727 410.929 -404.095 429.438 -414.158C446.808 -423.609 470.939 -429.035 495.639 -429.035C510.035 -429.035 523.862 -427.154 534.56 -423.741C557.378 -416.455 578.797 -404.051 596.474 -387.905C604.722 -380.379 612.598 -371.562 620.911 -362.221C638.873 -342.071 657.469 -321.222 683.875 -308.642C702.099 -299.957 720.739 -297.944 737.191 -296.15C752.462 -294.487 766.901 -292.912 779.524 -286.393C825.402 -262.633 857.803 -203.651 832.928 -153.704C831.353 -150.554 829.537 -147.294 827.59 -143.838C820.414 -131.039 812.275 -116.534 812.035 -98.3539C811.685 -71.2474 828.88 -51.7982 842.707 -36.1556C849.467 -28.5203 855.834 -21.3007 859.794 -14.1029C866.182 -2.46397 865.635 13.0255 858.328 27.3335C851.021 41.6415 838.769 51.1801 825.599 52.7991C821.683 53.2804 817.176 53.3241 812.428 53.346C803.437 53.4116 793.242 53.4991 782.609 56.6058C755.59 64.5036 740.932 86.2501 728.002 105.459C720.826 116.091 714.044 126.155 706.081 132.718C698.008 139.391 686.916 143.066 674.861 143.066ZM652.896 109.681C650.424 110.074 647.886 110.074 645.348 109.593C625.068 105.743 616.076 76.9734 615.376 59.3181C614.938 48.2042 616.448 35.9309 618.198 21.7104C619.533 10.8153 620.911 -0.473564 621.545 -12.55C622.924 -38.8689 620.08 -65.9097 609.534 -90.2815C597.939 -117.082 575.821 -130.668 557.159 -151.145C552.828 -155.915 549.612 -162.018 549.59 -168.472C549.568 -177.836 555.803 -185.646 556.897 -194.747C558.056 -204.352 556.481 -216.013 554.972 -225.508C551.077 -249.77 539.066 -271.648 522.002 -289.15C494.852 -317.022 458.557 -330.652 426.046 -350.714C419.067 -355.023 411.432 -360.734 411.016 -368.938C410.71 -374.954 414.648 -380.555 419.658 -383.88C434.338 -393.638 456.675 -396.241 473.805 -396.241C484.744 -396.241 495.289 -394.885 502.728 -392.5C521.061 -386.637 538.279 -376.682 552.521 -363.687C559.522 -357.299 566.829 -349.095 574.574 -340.409C593.783 -318.86 615.551 -294.444 647.93 -279.02C671.186 -267.95 693.72 -265.5 711.813 -263.531C724.48 -262.153 735.419 -260.971 742.595 -257.252C773.945 -241.019 797.726 -200.501 781.712 -168.341C780.509 -165.935 778.89 -163.025 777.161 -159.962C768.957 -145.326 757.734 -125.33 757.384 -98.792C757.121 -79.3865 763.16 -61.5561 772.764 -44.9291C775.98 -39.3503 779.065 -32.7651 783.55 -28.0833C789.741 -21.6075 797.989 -18.3914 803.065 -10.5592C808.468 -2.18005 809.015 10.2465 801.511 16.8317C795.035 22.498 785.453 21.9729 776.855 22.1479C742.091 22.9136 708.247 41.991 689.585 71.3071C683.984 80.102 679.631 89.7937 672.783 97.6478C667.598 103.642 660.466 108.477 652.896 109.681ZM649.899 72.0734C648.127 72.0734 646.399 71.7452 644.78 71.0889C630.165 65.2475 631.456 45.3826 631.872 38.863C632.506 28.9524 635.372 19.9389 638.151 11.2097C640.667 3.28993 643.029 -4.17035 643.423 -11.4119C645.152 -44.3815 640.535 -73.8508 629.64 -98.9883C624.193 -111.59 616.164 -123.907 605.772 -135.59C603.584 -138.062 600.193 -140.797 596.627 -143.706C589.298 -149.657 581.006 -156.395 577.287 -165.475C573.458 -174.882 575.384 -183.633 576.915 -190.678C577.462 -193.194 577.987 -195.6 578.206 -197.722C579.059 -206.605 578.534 -216.822 576.587 -228.986C573.174 -250.251 557.488 -265.587 539.329 -283.308C535.391 -287.158 531.3 -291.14 527.297 -295.253C527.056 -295.516 503.45 -323.06 509.597 -340.715C511.785 -346.972 517.08 -351.063 524.146 -351.982C524.956 -352.091 525.765 -352.135 526.596 -352.135C532.897 -352.135 537.951 -349.072 540.97 -347.234C542.873 -346.075 544.799 -344.959 546.702 -343.865C556.066 -338.396 565.736 -332.751 573.59 -323.563C577.637 -318.815 581.269 -313.827 584.791 -309.014C587.219 -305.689 589.517 -302.538 591.923 -299.497C607.719 -279.457 622.508 -266.703 638.457 -259.33C665.17 -246.597 690.81 -243.819 709.538 -241.784C730.781 -239.487 757.143 -230.539 762.175 -201.026C765.676 -180.483 755.481 -161.909 747.277 -146.966C738.897 -131.739 735.856 -119.203 735.594 -99.0758C735.397 -83.652 738.963 -68.0751 746.489 -51.4481C747.102 -50.0916 748.961 -47.1162 750.755 -44.2284C758.281 -32.1738 767.623 -17.1657 764.144 -4.7392C762.722 0.292672 759.309 4.40565 754.518 6.81219C749.005 9.59066 743.47 9.80945 738.701 9.80945H734.959C722.489 9.98447 708.531 17.3135 692.254 32.2341C691.029 33.3498 687.157 38.3598 684.356 41.9915C673.396 56.1683 665.016 66.4946 657.119 70.3013C654.668 71.4827 652.262 72.0734 649.899 72.0734ZM652.328 60.4774C650.993 61.1337 649.812 61.3088 648.849 60.9369C641.892 58.1584 642.417 45.2068 642.789 39.5624C643.905 22.2571 653.421 6.28639 654.34 -10.822C656.156 -45.4981 651.234 -76.6301 639.682 -103.321C633.381 -117.869 624.477 -130.996 613.954 -142.832C606.406 -151.32 591.617 -159.284 587.416 -169.588C583.741 -178.602 588.226 -187.572 589.101 -196.651C590.173 -207.809 589.167 -219.666 587.395 -230.693C582.56 -260.753 557.706 -279.721 535.129 -302.889C531.059 -307.068 509.029 -339.009 525.524 -341.131C529.003 -341.569 532.285 -339.687 535.282 -337.893C546.111 -331.33 557.138 -325.97 565.232 -316.475C571.664 -308.949 577.156 -300.504 583.281 -292.738C597.13 -275.17 613.21 -258.937 633.819 -249.42C662.107 -235.943 688.798 -233.056 708.291 -230.933C728.024 -228.789 747.517 -221.548 751.346 -199.211C754.146 -182.802 745.658 -166.832 737.629 -152.261C727.696 -134.168 724.852 -119.488 724.59 -99.2516C724.349 -80.9618 728.943 -63.5472 736.469 -46.9639C740.516 -38.016 763.291 -9.92497 749.552 -2.98975C745.067 -0.736344 739.773 -1.21767 734.763 -1.15204C715.751 -0.889506 698.249 11.8433 684.816 24.1605C679.215 29.3017 661.735 55.9487 652.328 60.4774ZM670.705 2.56689C669.939 1.88869 669.261 0.729192 668.736 -0.999146C667.839 -3.99639 669.414 -7.10301 670.792 -9.92523C680.2 -29.4183 677.246 -49.327 674.533 -69.9139C672.127 -88.2911 667.445 -106.384 660.094 -123.383C654.581 -136.094 647.252 -147.973 638.698 -158.847C630.712 -169.02 616.776 -176.108 610.979 -187.463C606.253 -196.717 610.475 -205.118 611.394 -214.438C612.598 -226.514 611.197 -239.641 605.444 -250.47C603.803 -253.555 601.812 -256.859 602.512 -260.272C603.015 -262.766 605.094 -264.888 607.588 -265.435C616.754 -267.491 629.4 -248.83 636.991 -244.301C659.394 -230.956 685.407 -229.337 710.741 -226.602C735.944 -223.867 737.629 -214.044 738.438 -209.34C740.276 -198.577 733.034 -185.384 726.646 -173.767C714.394 -151.474 711.703 -133.184 711.441 -112.553C711.266 -99.0987 713.476 -85.7533 717.042 -72.8236C719.864 -62.6067 737.497 -43.0918 735.594 -33.3563C734.675 -28.6088 730.65 -24.9333 726.143 -23.1831C719.82 -20.7109 713.038 -21.7611 706.65 -19.3546C698.708 -16.3792 690.898 -11.938 684.706 -6.09662C682.015 -3.53693 674.883 6.2861 670.705 2.56689ZM699.277 -34.8215C697.483 -36.0247 696.083 -38.0156 695.623 -40.6847C690.329 -70.7228 690.438 -99.4919 677.968 -128.327C672.542 -140.863 665.563 -152.742 657.141 -163.506C652.94 -168.866 648.389 -173.964 643.533 -178.733C634.081 -187.987 626.971 -193.894 627.387 -208.64C627.54 -213.978 630.406 -219.6 635.438 -221.351C638.96 -222.554 642.789 -221.723 646.42 -220.869C662.479 -217.084 678.537 -213.3 694.573 -209.537C701.333 -207.94 708.115 -207.436 714.657 -206.364C720.564 -205.38 725.224 -204.023 721.33 -196.301C708.597 -171.141 697.855 -147.645 696.323 -118.963C695.405 -101.877 697.308 -84.637 701.99 -68.1849C704.199 -60.4402 710.981 -50.6828 711.682 -42.9818C712.272 -36.4841 705.818 -30.4022 699.277 -34.8215ZM1760.61 -452.073C1745.38 -478.326 1720.77 -497.819 1695.15 -514.096C1561.7 -598.916 1393.06 -609.921 1236.59 -587.124C1203.84 -582.355 1170.22 -575.813 1142.74 -557.348C1109.44 -534.989 1088.42 -495.413 1088.52 -455.289C1088.72 -382.874 1174.48 -344.304 1171.9 -276.483C1170.28 -233.821 1147.24 -193.698 1159.54 -150.358C1166.21 -126.839 1186.78 -107.215 1186.01 -82.7776C1185.09 -54.1179 1155.82 -35.1937 1144.49 -8.85297C1119.9 48.2259 1185.01 118.891 1153.2 172.294C1143.46 188.637 1126.42 199.051 1113.51 213.031C1100.6 226.989 1092 249.063 1102.9 264.662C1122.37 292.49 1167.81 264.203 1199.77 275.688C1223.49 284.221 1233.99 312.793 1255.95 325.154C1281.25 339.396 1315.46 326.62 1332.18 302.926C1348.91 279.211 1351.21 248.035 1347.23 219.288C1343.9 195.222 1336.31 171.2 1321.41 152.014C1297.74 121.494 1254.77 99.4416 1255.25 60.8275C1255.71 23.7448 1298.53 -2.94594 1297.74 -40.0286C1296.98 -76.1049 1254.99 -102.096 1256.44 -138.15C1257 -152.196 1264.49 -165.278 1274.4 -175.233C1317.02 -218.069 1389.71 -202.624 1443.47 -175.08C1497.24 -147.536 1551.74 -109.643 1611.77 -116.426C1666.07 -122.551 1712.78 -170.157 1717.88 -224.567C1720.7 -254.649 1712.48 -286.962 1725.84 -314.047C1735.38 -333.387 1754.44 -346.469 1765.11 -365.197C1780.14 -391.603 1775.83 -425.82 1760.61 -452.073ZM1285.95 309.227C1281.2 309.227 1276.93 308.155 1273.22 306.077C1266.65 302.379 1260.48 295.138 1253.99 287.459C1243.75 275.382 1232.13 261.709 1213.71 255.08C1205.85 252.258 1197.21 250.879 1187.28 250.879C1177.48 250.879 1168.03 252.192 1158.9 253.439C1151.38 254.467 1144.27 255.452 1138.36 255.452C1129.7 255.452 1128.28 253.417 1127.34 252.083C1124.25 247.685 1128.43 236.134 1136.09 227.864C1140.07 223.576 1144.79 219.419 1149.78 215.022C1159.52 206.468 1170.57 196.776 1178.51 183.474C1199.86 147.639 1188.29 108.324 1178.09 73.6483C1170 46.1042 1162.34 20.0916 1171.09 -0.210876C1174.46 -8.04309 1180.69 -15.919 1187.28 -24.2763C1199.62 -39.897 1213.6 -57.618 1214.39 -82.0772C1215.04 -102.774 1205.79 -119.401 1197.61 -134.059C1193.21 -141.935 1189.07 -149.373 1187.11 -156.33C1181.02 -177.792 1185.99 -199.123 1191.74 -223.801C1195.59 -240.319 1199.58 -257.383 1200.28 -275.651C1201.87 -317.416 1177.11 -349.226 1155.27 -377.295C1135.58 -402.585 1117.01 -426.476 1116.92 -455.332C1116.83 -488.04 1134.31 -520.944 1161.46 -539.19C1185.9 -555.598 1218.06 -561.374 1246.26 -565.487C1292.27 -572.181 1337.36 -575.594 1380.26 -575.594C1502.3 -575.594 1606.48 -548.706 1689.94 -495.653C1708.06 -484.145 1733.81 -465.965 1748.22 -441.112C1760.94 -419.191 1762.69 -393.659 1752.67 -376.07C1748.84 -369.353 1742.95 -362.877 1736.72 -356.008C1728.51 -346.994 1719.21 -336.755 1712.8 -323.782C1701.54 -300.963 1702.28 -276.548 1702.92 -254.998C1703.22 -244.957 1703.51 -235.484 1702.67 -226.645C1698.56 -182.802 1659.64 -143.138 1615.89 -138.215C1612.01 -137.778 1608.05 -137.559 1604.09 -137.559C1565.41 -137.559 1528.03 -157.905 1488.43 -179.455C1479.13 -184.509 1469.55 -189.737 1460.01 -194.616C1423.27 -213.431 1384.79 -223.801 1351.67 -223.801C1316.8 -223.801 1286.98 -212.359 1265.45 -190.722C1250.51 -175.714 1241.89 -157.358 1241.14 -139.09C1240.11 -113.515 1253.53 -93.5411 1265.36 -75.9077C1274.03 -63.0218 1282.19 -50.8359 1282.43 -39.6126C1282.67 -27.733 1274.46 -15.4597 1264.95 -1.21729C1253.37 16.088 1240.25 35.7123 1239.94 60.5216C1239.5 96.5542 1264.6 120.029 1286.74 140.725C1295.75 149.148 1304.26 157.112 1310.69 165.403C1321.63 179.514 1328.85 198.657 1332.11 222.263C1334.85 242.128 1335.13 270.044 1320.84 290.281C1312.97 301.439 1298.62 309.227 1285.95 309.227ZM1282.25 300.06C1277.15 298.529 1273.43 293.059 1269.28 288.159C1260.42 277.723 1251.25 267.462 1240.18 259.28C1224.43 247.619 1210.89 245.235 1191.83 242.631C1187.24 241.997 1182.23 241.165 1179.14 237.709C1175.31 233.421 1176.04 226.485 1179.21 221.694C1185.4 212.352 1192.51 209.18 1197.02 198.154C1202.53 184.633 1205.05 170.632 1204.67 156.039C1203.89 126.22 1192.55 97.8664 1184.24 69.6004C1177.35 46.1913 1179.6 21.9946 1184.96 9.56805C1187.11 4.57994 1192.92 -2.77098 1198.55 -9.88123C1207.78 -21.5639 1211.13 -38.0816 1219.09 -50.7269C1225.59 -61.0313 1238.43 -68.601 1246.55 -55.6931C1255.08 -42.1289 1243.4 -28.9148 1236.24 -18.2166C1222.39 2.47968 1216.88 28.2516 1216.44 63.1465C1216.05 95.1754 1226.22 131.908 1249.37 155.23C1269.43 175.445 1290.06 196.119 1299.69 223.597C1306.08 241.8 1313.16 285.139 1293.04 297.85C1288.71 300.519 1285.25 300.957 1282.25 300.06ZM1203.58 -168.648C1189.25 -167.27 1202.42 -214.088 1204.39 -222.489C1208.24 -239.028 1212.61 -257.778 1213.4 -278.124C1214.89 -317.416 1195.94 -356.358 1170.81 -385.784C1146.63 -414.094 1123.83 -441.485 1138.41 -481.893C1154.31 -526.02 1196.43 -531.664 1236.46 -537.506C1280.3 -543.894 1323.21 -547.132 1363.99 -547.132C1469.02 -547.132 1571.39 -524.773 1660.93 -468.044C1678.28 -457.04 1695.74 -444.066 1704.03 -425.273C1720.72 -387.447 1681.21 -367.319 1666.58 -337.631C1652.73 -309.562 1653.56 -281.034 1654.26 -258.128C1654.52 -249.07 1654.78 -240.582 1654.13 -233.515C1651.24 -202.602 1622.71 -173.527 1591.86 -170.048C1589.04 -169.72 1586.11 -169.567 1583.2 -169.567C1551.85 -169.567 1518.03 -187.988 1482.19 -207.459C1472.89 -212.513 1463.38 -217.698 1453.79 -222.598C1414.26 -242.857 1372.41 -254.015 1335.98 -254.015C1309.1 -254.015 1280.28 -247.495 1257.05 -232.312C1244.91 -224.37 1234.34 -214.175 1226.27 -202.121C1220.6 -193.654 1215.85 -171.404 1204.63 -168.801C1204.24 -168.735 1203.91 -168.67 1203.58 -168.648ZM1283.19 266.915C1272.03 265.318 1262.47 248.56 1253.22 241.712C1242.5 233.77 1213.07 233.617 1211.85 216.596C1211.48 211.586 1219.79 192.224 1221.58 185.946C1224.52 175.663 1227.6 166.518 1240.2 172.797C1258.47 181.876 1272.65 212.593 1279.04 230.817C1282.91 241.931 1287.15 255.407 1283.19 266.915ZM1582.37 -203.477C1573.49 -202.908 1564.34 -204.002 1555.92 -206.496C1533.25 -213.212 1513.94 -227.848 1493.66 -240.012C1454.63 -263.422 1410.43 -278.036 1365.21 -282.915C1344.84 -285.124 1317.85 -288.778 1298.27 -281.514C1281.95 -275.454 1266.3 -257.733 1247.75 -258.521C1231.15 -259.221 1235.98 -274.273 1236.53 -288.69C1238.71 -346.338 1206.49 -387.796 1182.95 -418.053C1168.86 -436.168 1155.56 -453.254 1155.51 -465.353C1155.4 -513.265 1208.28 -518.909 1244.25 -525.713C1287.46 -533.895 1331.54 -537.308 1375.49 -536.061C1464.41 -533.545 1552.9 -511.93 1632.4 -471.894C1648.4 -463.843 1664.8 -454.567 1675.33 -439.603C1688.24 -421.269 1682.13 -411.621 1669.77 -395.388C1646.54 -364.825 1632.19 -328.661 1631.55 -289.959C1631.16 -266.594 1634.83 -240.691 1620.72 -222.051C1611.75 -210.193 1597.4 -204.439 1582.37 -203.477ZM1423.45 390.743C1391.25 390.743 1371.6 369.106 1369.46 348.76C1368.41 338.762 1370.99 329.355 1373.02 323.163C1378.73 305.771 1388.18 289.472 1397.33 273.698C1412.9 246.854 1427.61 221.498 1421.22 195.31C1416.25 174.898 1399.52 159.474 1381.82 143.176C1377.79 139.478 1373.63 135.65 1369.67 131.777C1338.43 101.389 1327.52 67.2381 1340.47 40.3723C1344.45 32.1244 1350.23 25.4954 1355.83 19.0853C1362.72 11.2093 1368.65 4.38349 1369.54 -3.40497C1370.27 -9.68387 1367.53 -16.7504 1364.64 -24.2545C1363.44 -27.383 1362.19 -30.6427 1361.12 -33.99C1352.22 -61.884 1359.28 -92.7972 1378.71 -110.89C1387.24 -118.832 1397.55 -122.857 1409.36 -122.857C1432.49 -122.857 1457.21 -107.433 1481.12 -92.4909C1497.31 -82.3834 1512.62 -72.8229 1524.77 -69.7819C1531.81 -68.0098 1539.1 -66.3471 1546.16 -64.7281C1572.7 -58.6243 1600.16 -52.3235 1625.03 -38.8469C1648.31 -26.2234 1673.31 0.751789 1690.29 31.5775C1721.88 88.897 1717.92 142.06 1679.94 170.326C1657.13 187.303 1627.81 187.434 1601.95 187.544C1599.17 187.565 1596.41 187.565 1593.66 187.609C1560.45 188.003 1538.92 196.185 1529.67 211.915C1525.22 219.463 1523.54 228.914 1521.77 238.912L1521.48 240.509C1515.6 273.413 1508.55 299.492 1499.28 322.573C1485.74 356.33 1467.95 377.289 1444.91 386.652C1438.24 389.387 1431.02 390.743 1423.45 390.743ZM1678.48 41.2906C1662.38 12.062 1638.95 -13.2067 1617.57 -24.78C1587.53 -41.0788 1553.01 -46.417 1519.86 -54.7305C1479.63 -64.838 1419.18 -131.281 1383.94 -98.4422C1366.66 -82.3402 1362.13 -55.3869 1369.32 -32.8748C1373.04 -21.2577 1379.59 -9.83753 1378.21 2.28271C1376.06 21.0757 1356.33 32.5176 1348.12 49.5604C1335.22 76.3168 1353.79 107.646 1375.1 128.364C1396.41 149.082 1422.64 168.269 1429.66 197.147C1441.13 244.294 1396.34 284.899 1381.23 330.995C1378.99 337.777 1377.4 344.931 1378.16 352.019C1380.88 377.77 1414.59 390.699 1438.57 380.964C1462.55 371.206 1477.27 346.966 1486.92 322.922C1497.2 297.26 1503.63 270.219 1508.51 243.003C1510.5 231.911 1512.32 220.491 1518.05 210.799C1532.05 187.018 1563.75 181.439 1591.36 181.111C1618.97 180.783 1649.1 182.467 1671.24 165.993C1710.22 136.918 1702.41 84.7178 1678.48 41.2906ZM1423.45 357.927C1413.98 357.927 1402.86 352.742 1402.07 345.325C1401.79 342.525 1402.47 338.609 1404.18 333.402C1408.81 319.291 1417 305.158 1425.68 290.193C1442.96 260.374 1462.57 226.595 1453.07 187.587C1445.76 157.505 1423.58 137.093 1404 119.066C1399.95 115.347 1396.15 111.847 1392.49 108.28C1377.31 93.513 1362.28 70.6071 1369.96 54.6801C1372.01 50.414 1376.13 45.7102 1380.48 40.7221C1389.19 30.7459 1400.04 18.3194 1402.07 0.3797C1403.69 -13.9064 1398.97 -26.158 1395.18 -36.0029C1394.09 -38.8252 1393.08 -41.4724 1392.3 -43.9227C1387.26 -59.7184 1390.83 -77.3518 1401 -86.8248C1403.45 -89.1001 1405.77 -89.997 1409.27 -89.997C1423.01 -89.997 1444.61 -76.5204 1463.64 -64.619C1482.08 -53.0894 1499.52 -42.2162 1516.67 -37.9062C1524.04 -36.0466 1531.5 -34.3402 1538.7 -32.6994C1564.23 -26.8362 1588.34 -21.3011 1609.28 -9.94659C1627.07 -0.298533 1647.54 22.2355 1661.46 47.4604C1672.55 67.566 1678.67 87.8904 1678.72 104.714C1678.76 121.91 1672.72 134.774 1660.25 144.05C1646.1 154.574 1624.53 154.683 1601.69 154.771C1598.82 154.792 1595.98 154.792 1593.18 154.836C1547.69 155.383 1516.78 168.991 1501.29 195.288C1493.85 207.933 1491.47 221.344 1489.35 233.18L1489.06 234.734C1483.59 265.384 1477.12 289.406 1468.71 310.365C1458.8 335.065 1446.6 350.51 1432.44 356.264C1429.84 357.358 1426.73 357.927 1423.45 357.927ZM1482.41 148.229C1461.45 143.197 1457.12 116.441 1443.07 102.089C1431.04 89.7936 1408.42 79.6643 1405.73 61.4183C1402.49 39.4968 1429.25 18.3411 1429.2 -7.23395C1429.18 -20.0543 1432.16 -35.478 1444.15 -40.0286C1461.69 -46.6794 1491.01 -19.3104 1508.73 -14.8474C1516.39 -12.9221 1523.98 -11.1938 1531.31 -9.50922C1555.72 -3.90853 1576.7 0.904578 1593.68 10.137C1615.8 22.1259 1657.83 73.1228 1641.94 99.5729C1635.77 109.855 1623.5 115.237 1611.53 116.156C1584.56 118.191 1567.45 113.509 1540.5 123.31C1522.84 129.72 1505.69 151.379 1485.47 148.798C1484.42 148.667 1483.39 148.47 1482.41 148.229ZM1489.1 114.101C1478.47 113.335 1476 101.827 1471.56 93.5358C1465.59 82.3781 1457.14 72.2925 1446.2 65.7949C1438.72 61.3537 1430.74 55.2498 1430.17 46.5644C1429.9 42.5827 1431.3 38.6884 1432.7 34.9255C1438.61 18.9329 1444.5 2.96213 1450.4 -13.0305C1457.12 -31.2108 1470.05 -24.013 1482.19 -16.2027C1500.42 -4.47626 1520.85 -0.0570021 1541.72 4.66858C1573.22 11.8226 1602.19 25.4306 1618.66 54.8342C1622.71 62.0757 1623.5 71.8112 1618.31 78.2651C1610.66 87.8257 1595.93 85.4192 1583.75 84.2596C1559.59 81.9406 1534.7 88.4383 1514.77 102.265C1507.72 107.144 1500.79 113.094 1492.28 114.035C1491.14 114.166 1490.09 114.166 1489.1 114.101ZM1499.12 67.3477C1488.84 64.7442 1480.73 56.3651 1473.4 48.4235C1467.05 41.5321 1460.55 34.378 1457.51 25.5176C1445.85 -8.50223 1480.51 -0.319982 1499.1 4.53687C1518.38 9.54686 1538.48 13.5723 1556.6 22.1046C1561.52 24.4236 1576.22 30.2869 1574.47 37.4409C1572.87 43.9823 1538.13 56.4089 1531.57 59.7562C1522.32 64.4817 1512.32 69.3386 1502.01 67.9165C1501.07 67.7634 1500.09 67.5883 1499.12 67.3477ZM545.411 91.4784C544.973 90.7783 544.514 90.1001 544.076 89.4C528.302 64.2844 520.755 41.7723 519.398 11.603C517.867 -22.2856 519.005 -59.0839 498.899 -86.4091C482.009 -109.337 452.54 -121.654 439.107 -146.748C427.709 -168.057 430.4 -193.741 430.269 -217.916C429.962 -266.528 395.133 -309.321 345.689 -316.234C317.708 -320.15 264.567 -310.262 238.423 -296.282C197.49 -274.404 193.574 -225.311 186.048 -184.924C171.718 -108.046 84.076 -73.6106 84.076 6.83362C83.726 47.7011 101.994 88.3718 132.776 115.259C145.881 126.701 161.392 135.846 178.456 139.237C225.45 148.623 275.221 113.881 320.18 130.464C343.764 139.172 360.676 160.874 369.558 184.393C378.79 208.83 375.181 236.287 391.283 256.371C401.587 269.235 424.208 280.983 437.576 291.09C451.84 301.898 507.716 353.201 528.259 338.806C547.467 325.329 541.079 276.564 544.251 255.124C552.718 197.804 577.921 141.994 545.411 91.4784ZM501.152 288.618C473.543 292.862 429.262 249.916 418.827 227.973C408.522 206.314 403.731 182.314 392.792 160.961C376.296 128.736 345.646 104.079 310.641 94.8688C255.094 80.2545 201.931 132.192 154.325 90.5808C130.588 69.8408 116.586 38.6432 116.849 7.13934V6.85492C116.849 -24.3208 136.823 -48.0143 159.97 -75.4271C187.995 -108.594 211.076 -142.635 218.952 -186.041C222.496 -205.534 225.078 -225.617 234.091 -243.251C251.659 -277.533 296.399 -284.271 331.556 -284.271C336.216 -284.271 339.323 -283.965 341.095 -283.725C419.745 -272.698 382.816 -184.881 406.312 -135.853C420.73 -105.771 456.062 -90.8946 473.127 -62.2348C503.865 -10.6472 482.381 52.9075 516.27 106.858C516.773 107.645 517.276 108.477 517.823 109.308C536.66 138.58 535.894 182.008 532.459 215.196C530.578 233.398 527.909 254.182 519.836 270.875C514.235 282.426 507.934 287.568 501.152 288.618ZM486.582 243.748C474.724 248.014 459.826 237.753 448.449 213.863C444.402 205.374 441.164 195.814 437.751 185.684C433.375 172.754 428.869 159.409 421.999 145.998C401.347 105.634 362.842 74.6549 318.999 63.1254C309.526 60.6313 299.462 59.3624 289.092 59.3624C269.118 59.3624 250.5 63.9567 234.092 67.9822C220.987 71.2201 208.604 74.2611 198.431 74.2611C189.308 74.2611 182.788 71.8327 175.963 65.8601C159.336 51.3333 149.512 29.4775 149.709 7.40289V6.85596C149.709 -11.4338 162.486 -27.492 185.086 -54.2703C206.744 -79.9329 226.631 -107.564 239.233 -138.893C252.053 -170.791 245.556 -211.921 272.859 -236.249C288.698 -250.382 327.05 -262.043 347.09 -248.85C364.68 -237.277 362.754 -213.146 363.607 -193.872C364.636 -170.747 365.795 -144.516 376.734 -121.654C387.323 -99.5571 404.453 -84.7459 419.549 -71.7068C429.875 -62.7807 439.632 -54.3578 444.949 -45.4317C456.106 -26.7044 458.207 -4.08288 460.635 22.1266C463.589 53.9367 466.936 89.9912 488.485 124.317C489.01 125.149 489.601 126.067 490.214 127.03C504.872 149.761 509.225 184.94 505.134 211.215C502.225 229.921 495.202 240.663 486.582 243.748ZM481.178 233.749C475.643 233.749 466.432 226.157 458.36 209.158C454.597 201.239 451.468 191.984 448.143 182.161C443.636 168.86 438.998 155.12 431.756 140.987C409.704 97.9102 368.595 64.8312 321.799 52.514C311.429 49.7793 300.424 48.401 289.114 48.401C267.827 48.401 248.531 53.1485 231.51 57.349C219.061 60.4119 207.313 63.3216 198.431 63.3216C191.977 63.3216 187.973 61.8339 183.16 57.6115C168.896 45.1412 160.473 26.4139 160.648 7.46783V6.9209C160.648 -7.64964 172.506 -22.3952 193.464 -47.2264C220.812 -79.6491 238.073 -106.646 249.384 -134.825C254.481 -147.536 256.735 -161.122 258.901 -174.292C262.357 -195.316 265.639 -215.181 280.144 -228.111C288.742 -235.768 307.71 -243.71 324.556 -243.71C331.425 -243.71 337.135 -242.332 341.073 -239.75C350.896 -233.274 351.946 -220.301 352.428 -201.202C352.493 -198.554 352.559 -195.951 352.668 -193.435C353.74 -169.238 354.966 -141.847 366.867 -116.972C378.44 -92.8195 396.489 -77.2207 412.395 -63.4597C422.043 -55.1243 431.144 -47.2483 435.541 -39.8755C445.43 -23.2703 447.421 -1.7864 449.74 23.1104C452.803 56.1457 456.281 93.5784 479.231 130.114C479.778 130.967 480.39 131.952 481.025 132.936C492.992 151.489 498.461 182.993 494.326 209.508C491.92 225.02 486.669 232.086 482.906 233.442C482.337 233.661 481.769 233.749 481.178 233.749ZM327.356 31.3804C315.148 28.1644 302.284 26.5455 289.114 26.5455C276.009 26.5455 261.898 27.6175 249.121 30.5053C237.942 33.0212 227.331 39.0158 215.692 40.2409C204.972 41.3567 193.114 38.0093 186.901 29.1926C181.607 21.6667 181.344 11.406 184.363 2.69873C189.045 -10.9967 200.968 -22.2199 210.157 -33.0931C239.079 -67.3755 257.435 -96.2321 269.664 -126.642C275.681 -141.585 278.219 -157.052 280.472 -170.704C283.404 -188.534 285.941 -203.936 294.649 -211.724C302.393 -218.66 318.123 -226.733 327.006 -217.631C336.304 -208.115 331.928 -190.481 331.884 -178.755C331.797 -162.587 334.247 -146.463 338.973 -131.018C345.558 -109.403 356.584 -89.1 371.308 -71.9479C384.325 -56.7867 406.597 -45.7384 416.77 -28.6301C424.143 -16.2692 425.915 2.93945 427.993 25.1672C431.1 58.8588 380.081 45.2509 327.356 31.3804ZM400.996 21.5789C400.537 21.8851 400.055 22.1477 399.552 22.3665C395.417 24.2042 390.648 23.2197 386.251 22.1915C368.814 18.166 351.093 14.928 333.81 10.4431L332.935 10.2244C299.09 1.38578 262.904 2.50155 230.175 15.1906C226.15 16.7439 222.081 18.4941 217.771 18.6035C213.461 18.7129 208.757 16.7439 207.072 12.7621C204.819 7.42399 208.713 1.62644 212.389 -2.83661C228.731 -22.7234 246.54 -42.0196 261.679 -62.8034C272.421 -77.549 285.504 -100.696 289.967 -118.482C295.677 -132.659 293.402 -147.273 294.911 -162.041C295.786 -170.529 298.434 -179.127 302.853 -186.456C303.947 -188.272 308.016 -195.754 310.444 -195.798C317.642 -195.885 316.373 -172.061 316.155 -167.619C315.411 -153.246 313.77 -138.675 318.058 -124.652C325.562 -100.061 338.251 -76.9145 354.725 -57.7278C361.595 -49.7424 369.711 -43.2885 377.587 -37.0533C391.808 -25.7863 404.54 -11.5439 406.728 7.40216C407.319 12.7403 405.394 18.7129 400.996 21.5789ZM481.528 169.998C478.728 163.478 474.133 157.899 470.721 151.664C463.851 139.194 461.948 124.667 457.309 111.212C454.334 102.549 448.712 99.7483 442.367 94.2352C441.317 93.3163 440.245 92.3318 438.91 91.9161C437.576 91.5005 435.869 91.8505 435.235 93.0975C434.622 94.2789 435.147 95.701 435.672 96.9261C437.86 102.002 439.917 106.99 441.558 112.284C450.374 140.835 450.812 172.514 466.367 198.023C468.905 202.202 473.761 206.643 478.006 204.214C479.647 203.274 480.631 201.501 481.397 199.773C485.51 190.431 485.554 179.383 481.528 169.998ZM997.229 -207.24C994.735 -223.364 983.096 -236.468 971.085 -247.516C956.58 -260.84 940.128 -273.004 920.963 -277.598C910.287 -280.18 890.882 -280.005 890.925 -264.494C890.947 -260.84 892.304 -257.361 893.66 -253.97C900.114 -237.759 915.078 -219.163 904.774 -201.639C900.42 -194.222 893.769 -188.425 888.519 -181.599C878.28 -168.297 873.62 -150.839 875.895 -134.19C878.98 -111.612 900.508 -69.1258 926.105 -93.8695C942.775 -109.993 933.806 -140.031 956.121 -154.143C961 -157.227 966.71 -158.715 971.938 -161.165C988.959 -169.129 1000.12 -188.666 997.229 -207.24ZM912.606 -95.1163C904.73 -95.1163 891.582 -114.084 888.934 -133.49C887.075 -147.141 890.991 -161.821 899.392 -172.738C901.142 -175.014 903.155 -177.245 905.277 -179.608C909.149 -183.896 913.153 -188.359 916.413 -193.894C929.824 -216.756 912.912 -234.74 905.299 -255.064C904.118 -258.193 904.205 -262.043 906.371 -264.581C909.631 -268.409 916.457 -265.762 920.57 -264.756C939.188 -260.271 955.333 -246.904 965.835 -237.256C975.329 -228.526 986.487 -216.8 988.565 -203.345C990.644 -190 982.243 -174.839 969.466 -168.844C967.847 -168.078 966.053 -167.4 964.15 -166.656C960.518 -165.256 956.405 -163.659 952.445 -161.165C936.387 -151.036 932.712 -134.781 929.758 -121.72C927.658 -112.509 925.864 -104.546 920.679 -99.5137C918.622 -97.5228 915.516 -95.1163 912.606 -95.1163ZM909.281 -122.026C907.793 -121.807 906.152 -122.857 905.43 -124.258C902.871 -129.246 903.877 -138.981 904.227 -144.429C904.686 -151.605 906.634 -158.474 911.075 -164.25C912.409 -165.978 914.094 -167.86 916.063 -170.048C920.351 -174.795 925.164 -180.133 929.321 -187.222C942.382 -209.449 917.332 -235.943 928.533 -244.169C931.99 -246.707 935.971 -246.641 939.231 -243.71C941.113 -242.025 942.425 -239.838 943.804 -237.737C947.96 -231.327 952.795 -225.354 958.199 -219.951C962.881 -215.291 968.066 -209.69 969.116 -202.864C969.991 -197.176 965.594 -189.584 959.884 -186.893C958.834 -186.39 957.324 -185.821 955.749 -185.209C951.767 -183.677 946.363 -181.599 940.96 -178.164C932.274 -172.673 925.164 -165.103 920.198 -156.112C915.56 -147.711 910.768 -138.434 911.731 -128.568C911.95 -126.27 912.169 -123.383 910.134 -122.289C909.85 -122.157 909.565 -122.07 909.281 -122.026ZM2006.45 -95.7295C1996.16 -130.799 1983.69 -165.41 1966.24 -197.504C1953.92 -220.148 1938.56 -242.047 1916.84 -255.94C1896.99 -268.651 1873.37 -273.748 1850.28 -278.627C1780.08 -293.46 1803.71 -186.347 1787.54 -150.599C1774.37 -121.37 1748.6 -98.0485 1718.19 -87.8754C1707.05 -84.1343 1694.93 -81.8809 1685.85 -74.4206C1676.77 -66.9603 1672.62 -51.6897 1681.19 -43.6387C1684.58 -40.4445 1689.2 -39.0444 1693.36 -36.9879C1716.46 -25.6333 1723.57 3.7046 1724.86 29.4109C1726.15 55.1172 1724.92 83.0113 1739.95 103.904C1749.41 117.053 1764.39 125.804 1772.33 139.915C1786.12 164.418 1774.32 195.681 1781.39 222.897C1787.6 246.831 1812.33 266.303 1836.54 261.358C1868.18 254.882 1880.23 215.874 1880.52 183.583C1880.8 151.292 1876.49 115.368 1896.62 90.0996C1920.05 60.6741 1965.95 59.8865 1993.21 33.9615C2009.82 18.1658 2017.36 -5.35273 2017.95 -28.2587C2018.57 -51.1865 2012.9 -73.7643 2006.45 -95.7295ZM1828.87 251.185C1812.98 251.185 1796.44 237.249 1792 220.14C1789.4 210.12 1789.75 198.985 1790.14 187.193C1790.71 169.537 1791.32 151.291 1781.89 134.533C1776.67 125.235 1769.34 118.365 1762.25 111.715C1757.19 106.967 1752.45 102.504 1748.86 97.5159C1737.81 82.1578 1737.07 61.5053 1736.26 39.6276C1736.13 35.9959 1735.99 32.4079 1735.82 28.8419C1733.87 -9.50973 1720.88 -35.6754 1698.21 -46.8112C1696.97 -47.4237 1695.67 -47.9926 1694.38 -48.5614C1692.02 -49.5897 1689.81 -50.5741 1688.7 -51.6243C1688.37 -51.9306 1687.38 -52.8713 1687.47 -55.4966C1687.6 -59.194 1689.79 -63.5039 1692.81 -65.9979C1698.15 -70.3953 1705.72 -72.6488 1713.75 -75.0553C1716.41 -75.8429 1719.06 -76.6524 1721.69 -77.5275C1754.83 -88.6195 1783.19 -114.26 1797.54 -146.136C1803.27 -158.781 1804.56 -177.29 1805.94 -196.892C1809.02 -240.516 1812.89 -269.132 1837.94 -269.132C1841.01 -269.132 1844.4 -268.738 1848.05 -267.973C1869.91 -263.357 1892.53 -258.587 1910.95 -246.773C1927.77 -236.009 1942.28 -218.704 1956.63 -192.32C1971.6 -164.841 1984.09 -133.184 1995.97 -92.6887C2001.63 -73.3707 2007.63 -50.9242 2007.04 -28.6089C2006.45 -6.27183 1998.68 13.615 1985.68 25.9759C1974.57 36.5428 1959.37 42.581 1943.29 48.9693C1923.2 56.9328 1902.44 65.1807 1888.07 83.2298C1868.66 107.58 1869.1 139.806 1869.49 168.247C1869.56 173.519 1869.62 178.485 1869.58 183.43C1869.32 213.315 1858.33 245.694 1834.36 250.594C1832.58 250.988 1830.73 251.185 1828.87 251.185ZM1815.19 214.671C1812.61 212.943 1810.62 210.077 1809.7 206.926C1807.97 201.019 1809.61 194.303 1809.81 188.286C1810.47 168.181 1811.28 143.196 1797.36 118.453C1784.37 95.35 1762.2 87.2115 1757.89 58.3767C1755.25 40.6558 1756.45 22.0379 1749.56 5.49835C1743.35 -9.42223 1730.79 -22.1332 1729.67 -38.2352C1728.25 -58.9752 1746.21 -75.6023 1763.82 -86.6505C1782.81 -98.552 1800.36 -108.878 1811.34 -129.159C1824.01 -152.546 1826.92 -179.412 1824.1 -205.578C1823.29 -213.147 1821.95 -221.133 1825.06 -228.09C1834.27 -248.808 1861.62 -234.609 1874.28 -226.318C1889.29 -216.473 1901 -195.361 1910.45 -180.484C1932.85 -145.261 1948.95 -106.012 1957.55 -65.1447C1961.47 -46.5049 1963.61 -26.093 1954.64 -9.29095C1943.46 11.6898 1918.81 20.7471 1896.62 29.2794C1868.77 39.9994 1852.65 54.2856 1838.25 79.9481C1823.35 106.551 1823.18 139.171 1823.57 168.772C1823.75 182.467 1822.3 202.748 1815.19 214.671ZM1809.64 105.195C1802.94 106.727 1796.88 95.4376 1792.31 89.8151C1787.19 83.5143 1782.94 76.404 1781.72 68.2437C1780.98 63.2993 1780.56 58.0268 1780.12 52.4698C1779.09 39.4089 1777.93 24.6196 1771.94 10.1803C1769.07 3.26695 1765.33 -2.90255 1762.05 -8.3501C1757.92 -15.1978 1754.02 -21.6736 1753.67 -26.6617C1753.13 -34.669 1762.07 -45.2797 1777.63 -55.0371L1780.25 -56.6779C1799.57 -68.7544 1819.52 -81.2465 1832.74 -105.662C1846.43 -130.931 1845.25 -161.319 1846.61 -189.169C1846.78 -192.888 1847.22 -197.133 1850.24 -199.364C1852.6 -201.114 1855.97 -201.005 1858.66 -199.824C1861.35 -198.62 1863.52 -196.52 1865.58 -194.398C1902.97 -155.784 1927.38 -99.6457 1938.3 -47.5987C1941.08 -34.3846 1943.48 -17.7575 1937.49 -6.51239C1930.44 6.72361 1911.21 14.1183 1892.62 21.2723L1890.93 21.9286C1873.3 28.7107 1856.85 38.2275 1843.59 51.8135C1835.58 60.0177 1829.41 69.7314 1823.99 79.7951C1820.22 86.7741 1819.39 96.3128 1813.9 102.417C1812.44 103.992 1811.04 104.867 1809.64 105.195ZM1811.06 81.8082C1808.76 82.4646 1806.77 80.1455 1805.59 72.2039C1804.93 67.8503 1804.56 62.9059 1804.14 57.6553C1802.44 35.9526 1799.37 13.3748 1786.64 -4.87115C1783.56 -9.31233 1780.49 -14.1692 1780.43 -19.5948C1780.32 -28.5428 1789.81 -31.365 1796.11 -35.3249C1816.35 -47.9921 1839.28 -62.3439 1854.7 -90.7849C1863.45 -106.931 1867.55 -125.833 1866.87 -144.145C1866.71 -148.258 1866.74 -153.224 1870.24 -155.39C1873.21 -157.227 1877.32 -155.827 1879.6 -153.18C1887.76 -143.729 1893.8 -128.589 1899.57 -117.41C1909.44 -98.3326 1917.65 -78.3802 1924.1 -57.9026C1928.23 -44.776 1931.65 -30.7087 1928.08 -17.4071C1922.46 3.61735 1905.9 7.51159 1887.98 12.9373C1869.8 18.4286 1850.72 32.6929 1837.59 46.1039C1832.13 51.7046 1827.55 58.0491 1823.4 64.678C1820.53 69.2942 1815.3 80.6268 1811.06 81.8082ZM1816.53 27.2674C1815.76 27.158 1815.02 26.9174 1814.3 26.4798C1808.39 22.8481 1808.87 9.76527 1806.92 3.9458C1804.17 -4.34584 1798.08 -11.3905 1795.74 -19.7697C1793.42 -28.0613 1801.91 -29.1552 1807.75 -33.1369C1812.2 -36.156 1816.61 -39.2627 1820.92 -42.5005C1843.63 -59.5214 1864.68 -81.4428 1871.11 -109.949C1871.55 -111.94 1872.03 -114.106 1873.63 -115.353C1877.35 -118.285 1879.91 -112.093 1881.22 -109.774C1884.61 -103.758 1886.51 -97.1073 1889.18 -90.7846C1893.56 -80.4365 1897.43 -69.8695 1900.8 -59.1495C1904.63 -46.9855 1909.86 -33.4213 1900.36 -22.3074C1893.08 -13.797 1881.18 -11.4123 1870.63 -7.67126C1857.33 -2.94568 1845.06 4.71147 1834.95 14.5783C1831.29 18.1881 1823.02 28.1425 1816.53 27.2674ZM1813.11 -8.00031C1812.83 -7.80341 1812.52 -7.60654 1812.24 -7.43152C1811.39 -6.8627 1810.31 -6.27201 1809.37 -6.68768C1808.32 -7.14711 1808.13 -8.54727 1808.1 -9.70679C1808.04 -13.0322 1808.24 -16.467 1809.79 -19.3986C1812.44 -24.3867 1817.23 -22.9427 1821.12 -25.8525C1830.16 -32.6346 1836.55 -42.3701 1843.15 -51.3619C1847.24 -56.9407 1856.3 -71.2925 1865.23 -66.9607C1867.06 -66.0637 1868.38 -64.1604 1868.55 -62.1039C1868.95 -57.4439 1866.19 -53.8997 1868.03 -48.9335C1868.92 -46.505 1870.5 -44.2735 1870.78 -41.7138C1871.05 -39.3291 1870.08 -36.857 1868.31 -35.2599C1865.75 -32.9846 1860.44 -32.4377 1857.13 -31.3876C1854.86 -30.6437 1852.58 -29.9218 1850.37 -29.1342C1836.7 -24.2554 1825.12 -15.9638 1813.11 -8.00031ZM1904.5 319.925C1892.51 297.216 1868.64 277.241 1844.07 278.095C1826.15 278.729 1808.83 287.874 1791.04 285.599C1765.62 282.317 1749.36 257.836 1728.71 242.653C1695.06 217.909 1649.49 218.325 1607.99 223.05C1599.89 223.969 1590.51 225.894 1586.96 233.245C1584.12 239.152 1586.35 246.219 1589.22 252.126C1599.54 273.456 1618.01 290.74 1639.97 299.666C1659.36 307.542 1680.97 309.008 1700.05 317.649C1738.6 335.086 1759.69 380.679 1755.53 422.794C1751.4 464.908 1725.65 502.691 1692.65 529.185C1673.18 544.827 1648.79 561.17 1648.13 586.111C1647.78 599.368 1654.87 611.992 1664.65 620.94C1674.43 629.888 1686.7 635.62 1699.04 640.433C1709.63 644.568 1721.4 648.899 1726.76 658.919C1731.82 668.371 1729.61 680.25 1733.63 690.183C1738.38 701.844 1750.59 708.429 1762.12 713.482C1773.6 718.514 1786.49 722.999 1798.41 719.149C1806.27 716.611 1812.54 710.748 1818.32 704.863C1842.8 679.813 1863.5 649.425 1869.36 614.88C1872.77 594.752 1871.05 574.187 1870.83 553.775C1870.35 507.154 1878.02 460.467 1893.43 416.471C1901.74 392.712 1915.7 367.946 1912.02 342.087C1910.97 334.802 1908.35 327.232 1904.5 319.925ZM1788.54 697.293C1784.06 698.299 1779.44 698.234 1774.83 696.768C1764.92 693.639 1756.67 685.654 1753.21 675.853C1751.18 670.055 1750.76 663.82 1749.56 657.782C1745.49 637.457 1725.54 627.241 1707.86 620.371L1706.98 620.021C1697.6 616.367 1686.97 611.685 1679.42 604.772C1673.47 599.325 1669.86 592.389 1670.01 586.657C1670.34 574.581 1685.39 562.723 1699.96 551.259C1702.13 549.553 1704.27 547.868 1706.35 546.184C1747.06 513.455 1772.92 469.24 1777.3 424.872C1782.64 370.571 1754.57 318.262 1709.06 297.653C1697.07 292.227 1685.06 289.383 1673.47 286.627C1664.39 284.461 1655.81 282.426 1648.22 279.341C1640.3 276.125 1633.76 270.7 1627.66 264.815C1620.31 257.704 1602.23 244.272 1619.06 238.693C1624.55 236.877 1631.88 238.933 1637.2 240.509C1664.28 248.45 1691.01 241.996 1715.78 260.22C1721.14 264.158 1726.48 269.168 1732.14 274.485C1746.96 288.355 1763.74 304.085 1788.28 307.257C1791.1 307.629 1794.01 307.804 1796.97 307.804C1807.73 307.804 1817.69 305.398 1826.46 303.254C1833.11 301.635 1839.41 300.103 1844.88 299.928C1845.14 299.928 1845.38 299.906 1845.65 299.906C1859.1 299.906 1876.1 312.88 1885.2 330.098C1887.94 335.305 1889.75 340.49 1890.41 345.106C1892.66 360.836 1885.75 377.441 1879.38 391.421C1871.57 408.573 1865.73 426.447 1861.51 444.802C1853.13 481.185 1850.83 518.662 1849.58 555.854C1848.64 583.682 1848.12 612.014 1839.19 638.376C1832.89 656.775 1812.19 691.977 1788.54 697.293ZM1782.59 686.223C1780.25 686.201 1777.91 685.785 1775.7 684.91C1769.29 682.351 1764.79 676.29 1762.49 669.771C1758.88 659.576 1760.3 649.95 1754.28 640.499C1749.08 632.316 1741.88 625.797 1733.7 620.677C1720.61 612.495 1703.81 610.089 1691.5 601.359C1685.96 597.443 1681.83 590.771 1682.9 584.076C1683.9 577.71 1689.2 572.918 1694.56 569.33C1742.62 537.17 1782.4 484.839 1788.17 425.966C1793.97 367.071 1763.28 310.211 1713.55 287.721C1700.62 281.879 1688.1 278.904 1676.01 276.016C1667.32 273.96 1659.16 272.013 1652.31 269.234C1648.11 267.528 1633.76 261.577 1633.87 255.692C1634.09 245.125 1660.32 255.736 1665.57 256.261C1681.87 257.88 1695.96 259.28 1709.24 269.059C1714.09 272.625 1719.19 277.416 1724.6 282.492C1739.82 296.756 1758.77 314.521 1786.82 318.131C1790.08 318.546 1793.49 318.765 1796.9 318.765C1808.96 318.765 1820.05 316.074 1828.95 313.93C1835.08 312.443 1840.83 311.042 1845.19 310.889H1845.58C1853.81 310.889 1867.76 320.669 1875.44 335.239C1877.57 339.287 1879.01 343.334 1879.49 346.681C1881.28 359.283 1875.18 374.072 1869.34 386.936C1861.53 404.088 1855.27 422.75 1850.74 442.396C1842.12 479.851 1839.78 518.902 1838.54 555.526L1838.4 559.704C1837.57 585.126 1836.7 611.401 1828.73 634.898C1823.51 650.322 1812.48 669.661 1799.53 679.922C1794.76 683.751 1788.61 686.267 1782.59 686.223ZM1784.87 659.991C1779.73 658.635 1779.77 646.121 1777.21 640.148C1773.82 632.229 1769.23 624.812 1763.58 618.293C1752.21 605.166 1736.58 596.021 1719.3 593.483C1715.87 592.98 1711.89 592.411 1710.07 589.458C1707.95 586.045 1710.03 581.626 1712.19 578.234C1725.23 557.757 1741.99 539.97 1757.98 521.724C1773.97 503.478 1789.51 484.336 1799.4 462.173C1809.31 440.011 1813.13 414.261 1805.22 391.312C1802.11 382.276 1797.27 373.919 1794.39 364.818C1785.48 336.814 1808.89 339.111 1829.28 335.48C1836.81 334.145 1845.4 333.029 1851.4 337.777C1856.19 341.562 1857.9 348.191 1857.33 354.273C1856.74 360.333 1854.22 366.021 1851.86 371.622C1830.48 422.093 1818.65 476.569 1817.16 531.351C1816.53 554.935 1817.77 578.694 1814.16 602.037C1812.3 614.07 1809.5 626.169 1804.54 637.326C1801.56 643.999 1796.88 653.406 1790.95 657.869C1788.33 659.816 1786.38 660.385 1784.87 659.991ZM1786.64 621.99C1786.29 621.968 1785.94 621.881 1785.61 621.749C1783.05 620.699 1782.03 615.186 1780.87 612.933C1778.33 608.032 1775.27 603.438 1771.66 599.259C1766.25 593.046 1759.23 588.78 1751.9 585.214C1747.17 582.916 1733.13 580.116 1732.45 573.771C1731.79 567.624 1741.18 561.673 1744.53 557.516C1749.69 551.106 1755.05 544.849 1760.52 538.702C1762.69 536.273 1764.85 533.823 1767 531.372C1776.53 520.477 1785.31 508.926 1792.94 496.609C1796.57 490.768 1801.63 483.985 1803.66 477.378C1804.58 474.359 1803.47 463.617 1808.5 463.617C1811.93 463.617 1801.52 513.98 1800.97 518.136C1799.02 532.838 1800.4 548.634 1799.51 563.489C1798.61 578.606 1797.27 593.68 1795.55 608.71C1795.2 611.817 1794.78 615.033 1793.16 617.724C1792.05 619.583 1789.2 622.165 1786.64 621.99ZM1782.2 592.652C1780.03 593.68 1778.33 590.442 1777.76 588.583C1774.65 578.628 1765.88 576.134 1757.48 572.021C1756.14 571.365 1754.92 570.337 1754.37 568.936C1753.12 565.852 1755.93 563.03 1757.72 560.885C1760.3 557.823 1762.73 554.628 1765.25 551.5C1767.76 548.349 1770.3 545.177 1772.81 542.027C1774.24 540.255 1775.83 538.636 1777.28 536.864C1778.59 535.223 1779.4 533.254 1780.71 531.679C1781.39 530.869 1782.35 530.213 1783.43 530.191C1785.29 530.125 1786.75 531.963 1786.97 533.801C1787.21 535.748 1786.27 537.454 1786.03 539.314C1785.74 541.392 1785.83 543.69 1785.72 545.812C1785.53 550.406 1785.53 555.022 1785.35 559.617C1784.98 568.696 1784.72 577.797 1784.56 586.898C1784.54 588.626 1784.43 590.53 1783.27 591.82C1782.9 592.214 1782.55 592.499 1782.2 592.652ZM1295.07 930.948C1290.13 915.458 1271.51 904.17 1274.22 888.133C1275.29 881.745 1279.71 876.516 1282.58 870.719C1288.09 859.561 1287.55 845.625 1281.2 834.905C1274.86 824.185 1262.89 817.031 1250.46 816.484C1228.65 815.543 1210.43 833.089 1189.03 837.552C1142.74 847.2 1099.79 794.19 1053.85 805.37C1023.02 812.852 1006.61 845.384 984.146 867.765C956.996 894.828 893.66 893.559 879.702 933.529C876.158 943.702 877.252 956.982 886.375 962.714C891.647 966.018 898.32 966.018 904.533 965.58C960.102 961.62 1014.8 931.495 1068.92 944.709C1087.98 949.369 1105.33 959.17 1123.51 966.543C1160.26 981.485 1200.89 986.473 1240.29 981.835C1254.49 980.173 1269.08 977.044 1280.52 968.468C1291.97 959.848 1299.43 944.578 1295.07 930.948ZM1211.83 972.537C1182.75 972.537 1153.63 966.958 1127.62 956.369C1122 954.094 1116.26 951.469 1110.73 948.953C1098.3 943.287 1085.48 937.445 1071.53 934.032C1061.48 931.582 1051.18 930.401 1040 930.401C1014.58 930.401 989.221 936.767 964.718 942.937C944.634 947.99 923.873 953.197 903.767 954.641C902.039 954.772 900.682 954.816 899.457 954.816C896.066 954.816 893.703 954.357 892.194 953.416C888.212 950.922 887.971 943.002 890.028 937.117C896.525 918.499 918.556 910.448 941.878 901.916C960.102 895.243 978.961 888.352 991.846 875.51C998.782 868.596 1005.08 860.873 1011.19 853.413C1025.03 836.458 1038.14 820.422 1056.43 815.98C1059.89 815.149 1063.34 814.733 1067.02 814.733C1083.12 814.733 1099.7 822.675 1117.27 831.076C1136.37 840.221 1156.1 849.65 1177.39 849.65C1182.09 849.65 1186.75 849.169 1191.24 848.25C1201.59 846.106 1210.75 841.555 1219.62 837.158C1229.74 832.126 1239.31 827.401 1248.73 827.401C1249.15 827.401 1249.54 827.4 1249.96 827.422C1258.73 827.794 1267.29 832.935 1271.77 840.483C1276.23 848.031 1276.63 858.007 1272.76 865.883C1272.03 867.349 1271.09 868.902 1270.11 870.565C1267.48 874.963 1264.49 879.951 1263.41 886.317C1261.01 900.538 1269.32 911.476 1275.97 920.271C1279.69 925.172 1283.21 929.81 1284.64 934.295C1287.57 943.527 1281.49 954.072 1273.96 959.717C1263.94 967.243 1250 969.693 1239 970.984C1230.03 972.012 1220.88 972.537 1211.83 972.537ZM1211.78 951.162C1191.44 948.887 1170.96 948.975 1151.53 940.18C1129.28 930.094 1106.55 920.709 1082.68 915.174C1052.08 908.085 1019.04 907.648 990.096 919.855C984.89 922.043 979.77 924.647 974.191 925.456C954.326 928.3 961.874 912.614 973.054 906.991C984.19 901.369 998.147 900.166 1007.31 891.021C1015.04 883.32 1021.69 875.181 1028.12 867.305C1034.88 859.014 1042.47 845.865 1052.05 841.008C1064.5 834.708 1082.55 839.083 1094.65 843.874C1110.49 850.131 1124.8 859.933 1140.81 865.752C1170.39 876.494 1204.96 872.337 1231.12 854.901C1234.16 852.866 1237.23 850.613 1240.81 849.891C1244.4 849.169 1248.73 850.525 1250.09 853.916C1251.01 856.213 1250.4 858.795 1249.78 861.201C1245.96 875.903 1237.62 892.859 1243.59 907.495C1248.38 919.265 1263.22 932.96 1255.56 946.546C1250.11 956.369 1239.06 956.238 1229.5 954.05C1223.64 952.694 1217.71 951.819 1211.78 951.162ZM1232.2 935.017C1231.04 937.358 1229.09 939.196 1226.07 940.202C1217.65 943.002 1205.29 935.608 1197.26 933.507C1181.22 929.285 1165.16 925.084 1149.13 920.862C1117.8 912.636 1086.47 904.41 1055.16 896.162C1048.77 894.478 1041.57 892.137 1038.97 886.077C1036.11 879.382 1040.59 871.659 1046.32 867.174C1063.93 853.457 1089.6 859.32 1109.88 868.64C1130.16 877.96 1150.74 890.496 1172.95 888.264C1185.05 887.039 1197.26 881.438 1208.9 884.939C1218.67 887.892 1225.68 896.884 1228.89 906.598C1231.36 914.058 1236.02 927.294 1232.2 935.017Z" stroke="#0A0A0B" stroke-width="2" stroke-miterlimit="10"/>
</g>
</svg>
