<svg width="1920" height="212" viewBox="0 0 1920 212" fill="none" xmlns="http://www.w3.org/2000/svg">
<mask id="mask0_1219_365" style="mask-type:alpha" maskUnits="userSpaceOnUse" x="0" y="0" width="1920" height="212">
<rect width="1920" height="212" fill="#FE8C12"/>
</mask>
<g mask="url(#mask0_1219_365)">
<rect width="1920" height="212" fill="#0A0A0B"/>
<g opacity="0.05">
<path d="M1560.64 422.061L1847.37 199.532L1852.82 203.765L1565.31 425.689L1560.64 422.061Z" fill="white"/>
<path d="M1931.5 154.176L1733.59 307.165L1735.93 308.979L1931.5 157.804L1931.5 154.176Z" fill="white"/>
<path d="M1931.5 60.448L1761.64 192.272L1766.32 195.9L1931.5 68.3091L1931.5 60.448Z" fill="white"/>
<path d="M1931.5 25.381L1739.05 174.741L1743.72 178.37L1931.5 33.242L1931.5 25.381Z" fill="white"/>
<path d="M1788.13 155.99L1830.21 123.336L1832.54 125.15L1790.47 157.804L1788.13 155.99Z" fill="white"/>
<path d="M1931.5 4.82165L1816.96 93.7122L1819.3 95.5264L1931.5 9.05451L1931.5 4.82165Z" fill="white"/>
<path d="M1682.96 272.701L1920.6 88.2676L1922.94 90.6864L1685.29 274.515L1682.96 272.701Z" fill="white"/>
<path d="M1474.9 398.475L1725.01 204.367L1727.35 206.786L1477.24 400.289L1474.9 398.475Z" fill="white"/>
<path d="M1931.5 -29.0408L1800.6 71.9438L1802.94 73.7578L1931.5 -25.4126L1931.5 -29.0408Z" fill="white"/>
<path d="M1442.2 330.146L1728.93 108.222L1734.39 111.85L1446.88 334.379L1442.2 330.146Z" fill="white"/>
<path d="M1419.6 312.607L1706.33 90.6832L1711.79 94.3114L1424.28 316.84L1419.6 312.607Z" fill="white"/>
<path d="M1592.56 197.718L1843.45 4.21475L1845.78 6.02888L1594.89 199.532L1592.56 197.718Z" fill="white"/>
<path d="M1665.04 180.18L1707.89 147.526L1710.23 149.34L1668.15 181.994L1665.04 180.18Z" fill="white"/>
<path d="M1497.5 231.577L1626.06 132.407L1628.4 134.221L1499.83 233.392L1497.5 231.577Z" fill="white"/>
<path d="M1620.6 82.8267L1908.11 -139.098L1912.78 -135.469L1625.27 87.0596L1620.6 82.8267Z" fill="white"/>
<path d="M1598.04 65.2874L1884.77 -156.637L1890.22 -153.009L1602.71 68.9155L1598.04 65.2874Z" fill="white"/>
<path d="M1647.1 47.1494L1689.17 13.8909L1691.51 15.705L1649.44 48.9634L1647.1 47.1494Z" fill="white"/>
<path d="M1541.93 163.852L1779.57 -20.581L1781.91 -18.7669L1544.26 165.666L1541.93 163.852Z" fill="white"/>
<path d="M1182.74 422.061L1470.25 199.532L1474.92 203.16L1188.19 425.689L1182.74 422.061Z" fill="white"/>
<path d="M1160.14 404.522L1447.65 181.993L1452.32 185.621L1164.81 408.15L1160.14 404.522Z" fill="white"/>
<path d="M1333.87 289.633L1583.98 95.5251L1586.32 97.3392L1336.21 291.447L1333.87 289.633Z" fill="white"/>
<path d="M1301.17 221.304L1587.9 -1.22447L1593.36 2.40379L1305.85 224.933L1301.17 221.304Z" fill="white"/>
<path d="M1278.57 203.766L1565.3 -18.763L1570.76 -15.1349L1283.25 207.394L1278.57 203.766Z" fill="white"/>
<path d="M1451.52 88.8695L1702.41 -105.239L1704.75 -103.424L1453.86 90.6836L1451.52 88.8695Z" fill="white"/>
<path d="M1524.01 71.3387L1566.86 38.0802L1569.2 39.8944L1527.12 73.1528L1524.01 71.3387Z" fill="white"/>
<path d="M1327.64 185.022L1369.71 152.369L1372.05 154.183L1329.97 186.836L1327.64 185.022Z" fill="white"/>
<path d="M1356.46 122.737L1485.02 22.9615L1487.36 24.7756L1358.8 124.551L1356.46 122.737Z" fill="white"/>
<path d="M1222.46 301.724L1460.11 117.896L1462.44 119.71L1224.8 303.539L1222.46 301.724Z" fill="white"/>
<path d="M1400.89 54.4051L1638.54 -130.028L1640.87 -127.609L1403.23 56.2192L1400.89 54.4051Z" fill="white"/>
<path d="M1041.71 312.615L1329.21 90.6903L1333.89 94.3185L1046.38 316.243L1041.71 312.615Z" fill="white"/>
<path d="M1019.11 295.076L1306.62 73.1517L1311.29 76.7799L1023.78 298.704L1019.11 295.076Z" fill="white"/>
<path d="M1192.84 180.18L1442.95 -13.9285L1445.29 -12.1145L1195.18 181.994L1192.84 180.18Z" fill="white"/>
<path d="M1265.32 162.649L1307.39 129.995L1309.73 131.809L1267.66 164.463L1265.32 162.649Z" fill="white"/>
<path d="M1097.8 214.047L1226.36 114.272L1228.7 116.69L1100.13 215.861L1097.8 214.047Z" fill="white"/>
<path d="M963.016 393.64L1200.66 209.207L1203.78 211.021L965.353 395.454L963.016 393.64Z" fill="white"/>
<path d="M1160.14 111.851L1446.87 -110.073L1452.32 -106.445L1164.81 116.084L1160.14 111.851Z" fill="white"/>
<path d="M1137.54 94.3126L1424.27 -127.612L1429.72 -123.983L1142.21 98.5454L1137.54 94.3126Z" fill="white"/>
<path d="M1186.6 76.1737L1228.68 42.9153L1231.02 44.7293L1188.94 77.9878L1186.6 76.1737Z" fill="white"/>
<path d="M1215.47 13.2821L1344.03 -85.8884L1346.37 -84.0743L1217.81 15.0962L1215.47 13.2821Z" fill="white"/>
<path d="M1081.43 192.883L1319.07 8.45024L1321.41 10.2644L1083.77 194.697L1081.43 192.883Z" fill="white"/>
<path d="M699.643 433.554L986.374 211.025L991.828 214.653L704.318 437.182L699.643 433.554Z" fill="white"/>
<path d="M873.412 318.658L1123.52 124.549L1125.86 126.364L875.75 320.472L873.412 318.658Z" fill="white"/>
<path d="M900.673 203.766L1188.18 -18.763L1192.86 -15.1349L906.127 207.394L900.673 203.766Z" fill="white"/>
<path d="M878.074 186.227L1165.58 -36.3016L1170.26 -32.6734L882.749 189.855L878.074 186.227Z" fill="white"/>
<path d="M1051.84 71.3387L1301.95 -122.769L1304.29 -120.955L1054.18 73.1528L1051.84 71.3387Z" fill="white"/>
<path d="M1124.29 53.1954L1166.36 20.5418L1168.7 22.3559L1126.62 55.6143L1124.29 53.1954Z" fill="white"/>
<path d="M927.176 167.484L969.25 134.83L971.588 136.644L929.513 169.298L927.176 167.484Z" fill="white"/>
<path d="M956.765 104.593L1084.55 5.42291L1087.66 7.23705L959.102 107.012L956.765 104.593Z" fill="white"/>
<path d="M821.984 284.193L1059.63 99.7603L1062.74 101.574L824.321 286.007L821.984 284.193Z" fill="white"/>
<path d="M1311.29 -215.9L1309.73 -216.504L1302.72 -216.504L1019.11 3.00113L1023.78 6.6294L1311.29 -215.9Z" fill="white"/>
<path d="M940.397 83.4295L1178.04 -101.003L1180.38 -98.5845L942.735 85.2437L940.397 83.4295Z" fill="white"/>
<path d="M581.209 341.639L868.719 119.715L873.394 123.343L585.884 345.267L581.209 341.639Z" fill="white"/>
<path d="M558.611 324.1L846.121 102.176L850.796 105.804L563.286 327.728L558.611 324.1Z" fill="white"/>
<path d="M732.38 209.204L982.49 15.0959L984.828 17.5147L734.718 211.018L732.38 209.204Z" fill="white"/>
<path d="M804.823 191.673L846.898 159.019L849.235 160.834L807.161 193.487L804.823 191.673Z" fill="white"/>
<path d="M636.522 243.07L765.084 143.9L768.2 145.714L639.639 244.884L636.522 243.07Z" fill="white"/>
<path d="M759.64 94.3112L1047.15 -128.218L1051.82 -123.985L765.094 97.9395L759.64 94.3112Z" fill="white"/>
<path d="M737.041 76.7805L1024.55 -145.748L1029.23 -141.516L741.716 80.4087L737.041 76.7805Z" fill="white"/>
<path d="M786.144 58.0292L828.219 25.3755L830.556 27.1896L788.482 59.8433L786.144 58.0292Z" fill="white"/>
<path d="M680.951 174.74L918.595 -9.08833L921.711 -7.27431L683.289 177.159L680.951 174.74Z" fill="white"/>
<path d="M321.744 432.949L609.253 211.025L613.928 214.653L327.198 437.182L321.744 432.949Z" fill="white"/>
<path d="M299.145 415.411L586.655 193.486L591.33 197.115L304.599 419.644L299.145 415.411Z" fill="white"/>
<path d="M472.896 300.514L723.785 107.011L726.123 108.825L475.233 302.328L472.896 300.514Z" fill="white"/>
<path d="M440.178 232.79L727.687 10.2614L732.362 13.8895L444.853 236.418L440.178 232.79Z" fill="white"/>
<path d="M417.579 215.251L704.309 -7.27782L709.763 -3.64954L422.253 218.879L417.579 215.251Z" fill="white"/>
<path d="M590.569 100.363L841.458 -93.7449L843.796 -91.9309L593.686 102.177L590.569 100.363Z" fill="white"/>
<path d="M663.791 82.2199L705.866 49.5662L708.204 51.3803L666.129 84.6387L663.791 82.2199Z" fill="white"/>
<path d="M466.681 196.508L508.755 163.854L511.093 165.668L469.018 198.322L466.681 196.508Z" fill="white"/>
<path d="M495.508 133.617L624.07 34.4468L626.407 36.261L498.625 136.036L495.508 133.617Z" fill="white"/>
<path d="M361.507 313.218L599.15 128.785L601.488 130.599L363.844 315.032L361.507 313.218Z" fill="white"/>
<path d="M539.919 65.891L777.562 -118.542L780.679 -116.728L542.256 67.7051L539.919 65.891Z" fill="white"/>
<path d="M181.491 324.1L468.221 101.571L472.896 105.804L186.165 327.728L181.491 324.1Z" fill="white"/>
<path d="M158.151 306.561L445.661 84.0324L450.335 87.6606L163.605 310.189L158.151 306.561Z" fill="white"/>
<path d="M331.902 191.673L582.012 -2.43488L585.128 -0.620865L334.239 193.487L331.902 191.673Z" fill="white"/>
<path d="M404.345 174.134L447.199 140.875L449.537 143.294L406.683 175.948L404.345 174.134Z" fill="white"/>
<path d="M236.841 225.532L365.402 125.757L367.74 127.571L239.179 227.346L236.841 225.532Z" fill="white"/>
<path d="M299.145 123.344L586.655 -98.5807L591.33 -94.9525L303.82 126.972L299.145 123.344Z" fill="white"/>
<path d="M276.546 105.805L564.056 -116.724L568.731 -112.491L281.221 109.433L276.546 105.805Z" fill="white"/>
<path d="M325.649 87.0615L367.723 54.4077L370.061 56.2219L327.986 88.8755L325.649 87.0615Z" fill="white"/>
<path d="M354.495 24.7757L483.057 -74.9995L486.173 -73.1853L357.612 26.5898L354.495 24.7757Z" fill="white"/>
<path d="M220.475 204.369L458.118 19.9361L460.456 21.7502L222.812 206.183L220.475 204.369Z" fill="white"/>
<path d="M12.4192 329.545L262.529 136.042L264.867 137.856L14.7566 331.359L12.4192 329.545Z" fill="white"/>
<path d="M40.4964 214.646L327.227 -7.27782L331.902 -3.64954L45.1715 218.879L40.4964 214.646Z" fill="white"/>
<path d="M17.1183 197.115L304.628 -24.8092L309.303 -21.181L22.5724 200.743L17.1183 197.115Z" fill="white"/>
<path d="M190.87 82.2187L440.98 -111.285L444.096 -109.471L193.207 84.0327L190.87 82.2187Z" fill="white"/>
<path d="M263.313 64.6878L305.387 32.0342L308.504 33.8482L265.65 66.502L263.313 64.6878Z" fill="white"/>
<path d="M66.2021 178.969L109.056 145.711L111.393 147.525L68.5396 180.783L66.2021 178.969Z" fill="white"/>
<path d="M95.8088 116.086L224.37 16.9153L226.708 18.7293L98.1462 117.9L95.8088 116.086Z" fill="white"/>
<path d="M-16.4145 281.771L201.75 113.06L199.413 111.246L-16.4145 278.142L-16.4145 281.771Z" fill="white"/>
<path d="M158.151 14.4949L445.661 -208.034L450.335 -204.406L162.826 18.1231L158.151 14.4949Z" fill="white"/>
<path d="M420.698 -216.502L410.569 -216.502L135.526 -3.04367L140.201 0.584482L420.698 -216.502Z" fill="white"/>
<path d="M79.4421 94.9227L317.086 -89.5102L319.423 -87.6962L81.7797 96.7368L79.4421 94.9227Z" fill="white"/>
<path d="M-16.4143 137.247L123.834 28.4009L121.497 26.5868L-16.4143 133.618L-16.4143 137.247Z" fill="white"/>
<path d="M-16.3869 47.7524L190.869 -113.097L186.194 -116.726L-16.3869 40.496L-16.3869 47.7524Z" fill="white"/>
<path d="M-16.39 12.6826L168.271 -130.631L163.596 -134.259L-16.39 4.82148L-16.39 12.6826Z" fill="white"/>
<path d="M-16.3806 63.4751L60.7561 3.61L58.4186 1.79598L-16.3806 59.8469L-16.3806 63.4751Z" fill="white"/>
</g>
</g>
<rect x="1337" y="76" width="208" height="60" rx="4" fill="white"/>
<path d="M1383.29 102.43C1382.83 102.43 1382.41 102.521 1382.05 102.703C1381.7 102.88 1381.4 103.138 1381.16 103.477C1380.92 103.815 1380.73 104.224 1380.61 104.703C1380.48 105.182 1380.42 105.721 1380.42 106.32C1380.42 107.128 1380.52 107.818 1380.72 108.391C1380.92 108.958 1381.23 109.393 1381.66 109.695C1382.08 109.992 1382.62 110.141 1383.29 110.141C1383.75 110.141 1384.22 110.089 1384.68 109.984C1385.15 109.88 1385.66 109.732 1386.2 109.539V111.57C1385.7 111.779 1385.2 111.927 1384.71 112.016C1384.22 112.109 1383.67 112.156 1383.06 112.156C1381.89 112.156 1380.92 111.914 1380.16 111.43C1379.4 110.94 1378.84 110.258 1378.48 109.383C1378.11 108.503 1377.93 107.477 1377.93 106.305C1377.93 105.44 1378.05 104.648 1378.28 103.93C1378.52 103.211 1378.86 102.589 1379.31 102.062C1379.77 101.536 1380.33 101.13 1380.99 100.844C1381.66 100.557 1382.42 100.414 1383.29 100.414C1383.86 100.414 1384.42 100.487 1384.99 100.633C1385.57 100.773 1386.11 100.969 1386.63 101.219L1385.85 103.188C1385.42 102.984 1384.99 102.807 1384.56 102.656C1384.13 102.505 1383.71 102.43 1383.29 102.43ZM1399.01 106.273C1399.01 107.154 1398.9 107.956 1398.68 108.68C1398.46 109.398 1398.13 110.018 1397.68 110.539C1397.24 111.06 1396.67 111.461 1395.99 111.742C1395.31 112.018 1394.5 112.156 1393.57 112.156C1392.64 112.156 1391.83 112.018 1391.15 111.742C1390.47 111.461 1389.9 111.06 1389.45 110.539C1389.01 110.018 1388.68 109.396 1388.46 108.672C1388.24 107.948 1388.13 107.143 1388.13 106.258C1388.13 105.076 1388.33 104.047 1388.71 103.172C1389.1 102.292 1389.7 101.609 1390.51 101.125C1391.32 100.641 1392.34 100.398 1393.59 100.398C1394.83 100.398 1395.84 100.641 1396.64 101.125C1397.44 101.609 1398.04 102.292 1398.42 103.172C1398.81 104.052 1399.01 105.086 1399.01 106.273ZM1390.67 106.273C1390.67 107.07 1390.77 107.758 1390.97 108.336C1391.17 108.909 1391.49 109.352 1391.91 109.664C1392.34 109.971 1392.89 110.125 1393.57 110.125C1394.26 110.125 1394.82 109.971 1395.24 109.664C1395.67 109.352 1395.98 108.909 1396.17 108.336C1396.37 107.758 1396.47 107.07 1396.47 106.273C1396.47 105.076 1396.24 104.133 1395.8 103.445C1395.35 102.758 1394.61 102.414 1393.59 102.414C1392.9 102.414 1392.35 102.57 1391.91 102.883C1391.49 103.19 1391.17 103.633 1390.97 104.211C1390.77 104.784 1390.67 105.471 1390.67 106.273ZM1411.51 112H1408.43L1403.46 103.359H1403.39C1403.41 103.719 1403.43 104.081 1403.45 104.445C1403.46 104.81 1403.48 105.174 1403.49 105.539C1403.51 105.898 1403.52 106.26 1403.54 106.625V112H1401.38V100.578H1404.43L1409.39 109.133H1409.45C1409.43 108.779 1409.42 108.427 1409.41 108.078C1409.39 107.729 1409.38 107.38 1409.36 107.031C1409.35 106.682 1409.34 106.333 1409.33 105.984V100.578H1411.51V112ZM1418.8 112H1416.38V102.594H1413.27V100.578H1421.9V102.594H1418.8V112ZM1430.65 112L1429.82 109.281H1425.66L1424.83 112H1422.22L1426.25 100.531H1429.21L1433.26 112H1430.65ZM1429.24 107.25L1428.41 104.594C1428.36 104.417 1428.29 104.19 1428.2 103.914C1428.12 103.633 1428.03 103.349 1427.95 103.062C1427.86 102.771 1427.79 102.518 1427.74 102.305C1427.69 102.518 1427.62 102.784 1427.52 103.102C1427.43 103.414 1427.35 103.711 1427.27 103.992C1427.18 104.273 1427.12 104.474 1427.09 104.594L1426.27 107.25H1429.24ZM1439.55 102.43C1439.09 102.43 1438.68 102.521 1438.32 102.703C1437.97 102.88 1437.67 103.138 1437.42 103.477C1437.18 103.815 1437 104.224 1436.88 104.703C1436.75 105.182 1436.69 105.721 1436.69 106.32C1436.69 107.128 1436.79 107.818 1436.98 108.391C1437.19 108.958 1437.5 109.393 1437.92 109.695C1438.34 109.992 1438.89 110.141 1439.55 110.141C1440.02 110.141 1440.48 110.089 1440.95 109.984C1441.41 109.88 1441.92 109.732 1442.47 109.539V111.57C1441.96 111.779 1441.47 111.927 1440.98 112.016C1440.49 112.109 1439.94 112.156 1439.33 112.156C1438.15 112.156 1437.18 111.914 1436.42 111.43C1435.67 110.94 1435.11 110.258 1434.74 109.383C1434.38 108.503 1434.2 107.477 1434.2 106.305C1434.2 105.44 1434.31 104.648 1434.55 103.93C1434.78 103.211 1435.12 102.589 1435.58 102.062C1436.03 101.536 1436.59 101.13 1437.26 100.844C1437.92 100.557 1438.69 100.414 1439.55 100.414C1440.12 100.414 1440.69 100.487 1441.26 100.633C1441.83 100.773 1442.38 100.969 1442.9 101.219L1442.12 103.188C1441.69 102.984 1441.26 102.807 1440.83 102.656C1440.4 102.505 1439.97 102.43 1439.55 102.43ZM1449.31 112H1446.89V102.594H1443.79V100.578H1452.41V102.594H1449.31V112ZM1467.62 100.578V107.969C1467.62 108.755 1467.45 109.466 1467.1 110.102C1466.76 110.732 1466.23 111.232 1465.53 111.602C1464.83 111.971 1463.95 112.156 1462.89 112.156C1461.38 112.156 1460.23 111.771 1459.44 111C1458.65 110.229 1458.25 109.208 1458.25 107.938V100.578H1460.66V107.57C1460.66 108.513 1460.86 109.174 1461.24 109.555C1461.63 109.935 1462.2 110.125 1462.95 110.125C1463.48 110.125 1463.91 110.034 1464.24 109.852C1464.58 109.669 1464.82 109.388 1464.98 109.008C1465.13 108.628 1465.21 108.143 1465.21 107.555V100.578H1467.62ZM1477.16 108.828C1477.16 109.505 1477 110.094 1476.67 110.594C1476.34 111.094 1475.86 111.479 1475.23 111.75C1474.61 112.021 1473.85 112.156 1472.95 112.156C1472.56 112.156 1472.17 112.13 1471.79 112.078C1471.41 112.026 1471.05 111.951 1470.7 111.852C1470.36 111.747 1470.03 111.62 1469.72 111.469V109.219C1470.26 109.458 1470.82 109.674 1471.41 109.867C1471.99 110.06 1472.57 110.156 1473.14 110.156C1473.54 110.156 1473.85 110.104 1474.09 110C1474.34 109.896 1474.52 109.753 1474.62 109.57C1474.73 109.388 1474.79 109.18 1474.79 108.945C1474.79 108.659 1474.69 108.414 1474.5 108.211C1474.31 108.008 1474.04 107.818 1473.7 107.641C1473.37 107.464 1472.99 107.273 1472.57 107.07C1472.3 106.945 1472.02 106.794 1471.7 106.617C1471.39 106.435 1471.09 106.214 1470.81 105.953C1470.53 105.693 1470.3 105.378 1470.12 105.008C1469.94 104.633 1469.85 104.185 1469.85 103.664C1469.85 102.982 1470.01 102.398 1470.32 101.914C1470.63 101.43 1471.08 101.06 1471.66 100.805C1472.24 100.544 1472.93 100.414 1473.72 100.414C1474.31 100.414 1474.88 100.484 1475.41 100.625C1475.96 100.76 1476.52 100.958 1477.11 101.219L1476.33 103.102C1475.8 102.888 1475.33 102.724 1474.91 102.609C1474.5 102.49 1474.07 102.43 1473.64 102.43C1473.34 102.43 1473.08 102.479 1472.87 102.578C1472.65 102.672 1472.49 102.807 1472.38 102.984C1472.27 103.156 1472.22 103.357 1472.22 103.586C1472.22 103.857 1472.3 104.086 1472.45 104.273C1472.61 104.456 1472.85 104.633 1473.17 104.805C1473.49 104.977 1473.9 105.177 1474.38 105.406C1474.96 105.682 1475.46 105.971 1475.87 106.273C1476.28 106.57 1476.6 106.922 1476.83 107.328C1477.05 107.729 1477.16 108.229 1477.16 108.828Z" fill="#0A0A0B"/>
<path fill-rule="evenodd" clip-rule="evenodd" d="M1499.22 101.209C1499.36 101.075 1499.55 101 1499.75 101C1499.95 101 1500.14 101.075 1500.28 101.209L1504.78 105.499C1504.92 105.633 1505 105.815 1505 106.004C1505 106.194 1504.92 106.376 1504.78 106.51L1500.28 110.799C1500.14 110.93 1499.95 111.002 1499.75 111C1499.56 110.998 1499.37 110.923 1499.23 110.791C1499.09 110.658 1499.01 110.479 1499.01 110.291C1499.01 110.104 1499.08 109.923 1499.22 109.788L1502.44 106.719H1493.75C1493.55 106.719 1493.36 106.644 1493.22 106.51C1493.08 106.376 1493 106.194 1493 106.004C1493 105.815 1493.08 105.633 1493.22 105.499C1493.36 105.365 1493.55 105.289 1493.75 105.289H1502.44L1499.22 102.22C1499.08 102.086 1499 101.904 1499 101.715C1499 101.525 1499.08 101.343 1499.22 101.209Z" fill="#0A0A0B"/>
<path d="M389.221 99.627C387.568 99.627 386.279 100.307 385.354 101.666C384.428 103.014 383.965 104.877 383.965 107.256C383.965 112.201 385.846 114.674 389.607 114.674C390.744 114.674 391.846 114.516 392.912 114.199C393.979 113.883 395.051 113.502 396.129 113.057V118.928C393.984 119.877 391.559 120.352 388.852 120.352C384.973 120.352 381.996 119.227 379.922 116.977C377.859 114.727 376.828 111.475 376.828 107.221C376.828 104.561 377.326 102.223 378.322 100.207C379.33 98.1914 380.771 96.6445 382.646 95.5664C384.533 94.4766 386.748 93.9316 389.291 93.9316C392.068 93.9316 394.723 94.5352 397.254 95.7422L395.127 101.209C394.178 100.764 393.229 100.389 392.279 100.084C391.33 99.7793 390.311 99.627 389.221 99.627ZM425.203 107.115C425.203 111.439 424.143 114.727 422.021 116.977C419.9 119.227 416.795 120.352 412.705 120.352C408.674 120.352 405.58 119.221 403.424 116.959C401.279 114.697 400.207 111.404 400.207 107.08C400.207 102.803 401.273 99.5391 403.406 97.2891C405.551 95.0273 408.662 93.8965 412.74 93.8965C416.83 93.8965 419.93 95.0156 422.039 97.2539C424.148 99.4922 425.203 102.779 425.203 107.115ZM407.52 107.115C407.52 112.084 409.248 114.568 412.705 114.568C414.463 114.568 415.764 113.965 416.607 112.758C417.463 111.551 417.891 109.67 417.891 107.115C417.891 104.549 417.457 102.656 416.59 101.438C415.734 100.207 414.451 99.5918 412.74 99.5918C409.26 99.5918 407.52 102.1 407.52 107.115ZM454.312 120H445.207L435.82 101.895H435.662C435.885 104.742 435.996 106.916 435.996 108.416V120H429.844V94.3008H438.914L448.266 112.16H448.371C448.207 109.57 448.125 107.49 448.125 105.92V94.3008H454.312V120ZM471.205 120H464.262V99.9785H457.986V94.3008H477.463V99.9785H471.205V120ZM496.904 120L495.639 115.184H487.289L485.988 120H478.359L486.744 94.1953H496.008L504.498 120H496.904ZM494.197 109.488L493.09 105.27C492.832 104.332 492.516 103.119 492.141 101.631C491.777 100.143 491.537 99.0762 491.42 98.4316C491.314 99.0293 491.104 100.014 490.787 101.385C490.482 102.756 489.797 105.457 488.73 109.488H494.197ZM518.736 99.627C517.084 99.627 515.795 100.307 514.869 101.666C513.943 103.014 513.48 104.877 513.48 107.256C513.48 112.201 515.361 114.674 519.123 114.674C520.26 114.674 521.361 114.516 522.428 114.199C523.494 113.883 524.566 113.502 525.645 113.057V118.928C523.5 119.877 521.074 120.352 518.367 120.352C514.488 120.352 511.512 119.227 509.438 116.977C507.375 114.727 506.344 111.475 506.344 107.221C506.344 104.561 506.842 102.223 507.838 100.207C508.846 98.1914 510.287 96.6445 512.162 95.5664C514.049 94.4766 516.264 93.9316 518.807 93.9316C521.584 93.9316 524.238 94.5352 526.77 95.7422L524.643 101.209C523.693 100.764 522.744 100.389 521.795 100.084C520.846 99.7793 519.826 99.627 518.736 99.627ZM542.01 120H535.066V99.9785H528.791V94.3008H548.268V99.9785H542.01V120ZM583.143 94.3008V109.77C583.143 113.133 582.188 115.74 580.277 117.592C578.379 119.432 575.637 120.352 572.051 120.352C568.547 120.352 565.852 119.455 563.965 117.662C562.09 115.869 561.152 113.291 561.152 109.928V94.3008H568.131V109.383C568.131 111.199 568.471 112.518 569.15 113.338C569.83 114.158 570.832 114.568 572.156 114.568C573.574 114.568 574.6 114.164 575.232 113.355C575.877 112.535 576.199 111.199 576.199 109.348V94.3008H583.143ZM605.344 112.195C605.344 113.789 604.939 115.207 604.131 116.449C603.322 117.68 602.156 118.641 600.633 119.332C599.109 120.012 597.322 120.352 595.271 120.352C593.561 120.352 592.125 120.234 590.965 120C589.805 119.754 588.598 119.332 587.344 118.734V112.547C588.668 113.227 590.045 113.76 591.475 114.146C592.904 114.521 594.217 114.709 595.412 114.709C596.443 114.709 597.199 114.533 597.68 114.182C598.16 113.818 598.4 113.355 598.4 112.793C598.4 112.441 598.301 112.137 598.102 111.879C597.914 111.609 597.604 111.34 597.17 111.07C596.748 110.801 595.611 110.25 593.76 109.418C592.084 108.656 590.824 107.918 589.98 107.203C589.148 106.488 588.527 105.668 588.117 104.742C587.719 103.816 587.52 102.721 587.52 101.455C587.52 99.0879 588.381 97.2422 590.104 95.918C591.826 94.5938 594.193 93.9316 597.205 93.9316C599.865 93.9316 602.578 94.5469 605.344 95.7773L603.217 101.139C600.814 100.037 598.74 99.4863 596.994 99.4863C596.092 99.4863 595.436 99.6445 595.025 99.9609C594.615 100.277 594.41 100.67 594.41 101.139C594.41 101.643 594.668 102.094 595.184 102.492C595.711 102.891 597.129 103.617 599.438 104.672C601.652 105.668 603.188 106.74 604.043 107.889C604.91 109.025 605.344 110.461 605.344 112.195ZM625.506 120H618.668V94.3008H633.855V99.873H625.506V104.777H633.205V110.35H625.506V120ZM662.121 107.115C662.121 111.439 661.061 114.727 658.939 116.977C656.818 119.227 653.713 120.352 649.623 120.352C645.592 120.352 642.498 119.221 640.342 116.959C638.197 114.697 637.125 111.404 637.125 107.08C637.125 102.803 638.191 99.5391 640.324 97.2891C642.469 95.0273 645.58 93.8965 649.658 93.8965C653.748 93.8965 656.848 95.0156 658.957 97.2539C661.066 99.4922 662.121 102.779 662.121 107.115ZM644.438 107.115C644.438 112.084 646.166 114.568 649.623 114.568C651.381 114.568 652.682 113.965 653.525 112.758C654.381 111.551 654.809 109.67 654.809 107.115C654.809 104.549 654.375 102.656 653.508 101.438C652.652 100.207 651.369 99.5918 649.658 99.5918C646.178 99.5918 644.438 102.1 644.438 107.115ZM673.705 110.648V120H666.762V94.3008H675.182C682.166 94.3008 685.658 96.832 685.658 101.895C685.658 104.871 684.205 107.174 681.299 108.803L688.787 120H680.912L675.463 110.648H673.705ZM673.705 105.428H675.006C677.432 105.428 678.645 104.355 678.645 102.211C678.645 100.441 677.455 99.5566 675.076 99.5566H673.705V105.428ZM716.244 120L714.979 115.184H706.629L705.328 120H697.699L706.084 94.1953H715.348L723.838 120H716.244ZM713.537 109.488L712.43 105.27C712.172 104.332 711.855 103.119 711.48 101.631C711.117 100.143 710.877 99.0762 710.76 98.4316C710.654 99.0293 710.443 100.014 710.127 101.385C709.822 102.756 709.137 105.457 708.07 109.488H713.537ZM752.789 112.195C752.789 113.789 752.385 115.207 751.576 116.449C750.768 117.68 749.602 118.641 748.078 119.332C746.555 120.012 744.768 120.352 742.717 120.352C741.006 120.352 739.57 120.234 738.41 120C737.25 119.754 736.043 119.332 734.789 118.734V112.547C736.113 113.227 737.49 113.76 738.92 114.146C740.35 114.521 741.662 114.709 742.857 114.709C743.889 114.709 744.645 114.533 745.125 114.182C745.605 113.818 745.846 113.355 745.846 112.793C745.846 112.441 745.746 112.137 745.547 111.879C745.359 111.609 745.049 111.34 744.615 111.07C744.193 110.801 743.057 110.25 741.205 109.418C739.529 108.656 738.27 107.918 737.426 107.203C736.594 106.488 735.973 105.668 735.562 104.742C735.164 103.816 734.965 102.721 734.965 101.455C734.965 99.0879 735.826 97.2422 737.549 95.918C739.271 94.5938 741.639 93.9316 744.65 93.9316C747.311 93.9316 750.023 94.5469 752.789 95.7773L750.662 101.139C748.26 100.037 746.186 99.4863 744.439 99.4863C743.537 99.4863 742.881 99.6445 742.471 99.9609C742.061 100.277 741.855 100.67 741.855 101.139C741.855 101.643 742.113 102.094 742.629 102.492C743.156 102.891 744.574 103.617 746.883 104.672C749.098 105.668 750.633 106.74 751.488 107.889C752.355 109.025 752.789 110.461 752.789 112.195ZM780.809 107.115C780.809 111.439 779.748 114.727 777.627 116.977C775.506 119.227 772.4 120.352 768.311 120.352C764.279 120.352 761.186 119.221 759.029 116.959C756.885 114.697 755.812 111.404 755.812 107.08C755.812 102.803 756.879 99.5391 759.012 97.2891C761.156 95.0273 764.268 93.8965 768.346 93.8965C772.436 93.8965 775.535 95.0156 777.645 97.2539C779.754 99.4922 780.809 102.779 780.809 107.115ZM763.125 107.115C763.125 112.084 764.854 114.568 768.311 114.568C770.068 114.568 771.369 113.965 772.213 112.758C773.068 111.551 773.496 109.67 773.496 107.115C773.496 104.549 773.062 102.656 772.195 101.438C771.34 100.207 770.057 99.5918 768.346 99.5918C764.865 99.5918 763.125 102.1 763.125 107.115ZM785.449 120V94.3008H792.393V114.393H802.289V120H785.449ZM828.252 94.3008V109.77C828.252 113.133 827.297 115.74 825.387 117.592C823.488 119.432 820.746 120.352 817.16 120.352C813.656 120.352 810.961 119.455 809.074 117.662C807.199 115.869 806.262 113.291 806.262 109.928V94.3008H813.24V109.383C813.24 111.199 813.58 112.518 814.26 113.338C814.939 114.158 815.941 114.568 817.266 114.568C818.684 114.568 819.709 114.164 820.342 113.355C820.986 112.535 821.309 111.199 821.309 109.348V94.3008H828.252ZM844.986 120H838.043V99.9785H831.768V94.3008H851.244V99.9785H844.986V120ZM854.918 120V94.3008H861.896V120H854.918ZM891.516 107.115C891.516 111.439 890.455 114.727 888.334 116.977C886.213 119.227 883.107 120.352 879.018 120.352C874.986 120.352 871.893 119.221 869.736 116.959C867.592 114.697 866.52 111.404 866.52 107.08C866.52 102.803 867.586 99.5391 869.719 97.2891C871.863 95.0273 874.975 93.8965 879.053 93.8965C883.143 93.8965 886.242 95.0156 888.352 97.2539C890.461 99.4922 891.516 102.779 891.516 107.115ZM873.832 107.115C873.832 112.084 875.561 114.568 879.018 114.568C880.775 114.568 882.076 113.965 882.92 112.758C883.775 111.551 884.203 109.67 884.203 107.115C884.203 104.549 883.77 102.656 882.902 101.438C882.047 100.207 880.764 99.5918 879.053 99.5918C875.572 99.5918 873.832 102.1 873.832 107.115ZM920.625 120H911.52L902.133 101.895H901.975C902.197 104.742 902.309 106.916 902.309 108.416V120H896.156V94.3008H905.227L914.578 112.16H914.684C914.52 109.57 914.438 107.49 914.438 105.92V94.3008H920.625V120Z" fill="white"/>
</svg>
