<svg width="185" height="24" viewBox="0 0 185 24" fill="none" xmlns="http://www.w3.org/2000/svg">
<path d="M44.7441 11.3193H47.3896V12.8164H44.7441V15.4482H43.2471V12.8164H40.6016V11.3193H43.2471V8.65332H44.7441V11.3193ZM48.5723 13.165C48.5723 12.404 48.6452 11.6611 48.791 10.9365C48.9368 10.2074 49.1624 9.51237 49.4678 8.85156C49.7731 8.1862 50.1605 7.57096 50.6299 7.00586H52.3389C51.7008 7.88086 51.2155 8.84701 50.8828 9.9043C50.5547 10.9616 50.3906 12.0439 50.3906 13.1514C50.3906 13.8714 50.4635 14.5892 50.6094 15.3047C50.7552 16.0156 50.9717 16.7015 51.2588 17.3623C51.5505 18.0231 51.9059 18.6406 52.3252 19.2148H50.6299C50.1605 18.668 49.7731 18.0687 49.4678 17.417C49.1624 16.7699 48.9368 16.0885 48.791 15.373C48.6452 14.653 48.5723 13.917 48.5723 13.165ZM58.5391 17H56.4268V11.2168C56.4268 11.0573 56.429 10.8613 56.4336 10.6289C56.4382 10.3919 56.445 10.1504 56.4541 9.9043C56.4632 9.65365 56.4723 9.42806 56.4814 9.22754C56.4313 9.28678 56.3288 9.38932 56.1738 9.53516C56.0234 9.67643 55.8822 9.80404 55.75 9.91797L54.6016 10.8408L53.583 9.56934L56.8027 7.00586H58.5391V17ZM68.54 14.9287H67.3369V17H65.2725V14.9287H61.0068V13.459L65.3887 7.00586H67.3369V13.2881H68.54V14.9287ZM65.2725 13.2881V11.5928C65.2725 11.4333 65.2747 11.2441 65.2793 11.0254C65.2884 10.8066 65.2975 10.5879 65.3066 10.3691C65.3158 10.1504 65.3249 9.95671 65.334 9.78809C65.3477 9.61491 65.3568 9.49414 65.3613 9.42578H65.3066C65.2201 9.61263 65.1289 9.79492 65.0332 9.97266C64.9375 10.1458 64.8258 10.3281 64.6982 10.5195L62.8662 13.2881H65.2725ZM74.5625 17H72.4502V11.2168C72.4502 11.0573 72.4525 10.8613 72.457 10.6289C72.4616 10.3919 72.4684 10.1504 72.4775 9.9043C72.4867 9.65365 72.4958 9.42806 72.5049 9.22754C72.4548 9.28678 72.3522 9.38932 72.1973 9.53516C72.0469 9.67643 71.9056 9.80404 71.7734 9.91797L70.625 10.8408L69.6064 9.56934L72.8262 7.00586H74.5625V17ZM80.8447 14.1016V12.3926H84.5156V14.1016H80.8447ZM92.7734 10.6152C93.3841 10.6152 93.9264 10.7314 94.4004 10.9639C94.8789 11.1963 95.2549 11.5381 95.5283 11.9893C95.8018 12.4404 95.9385 12.9964 95.9385 13.6572C95.9385 14.3773 95.7881 14.9993 95.4873 15.5234C95.1911 16.043 94.7467 16.4417 94.1543 16.7197C93.5664 16.9977 92.8327 17.1367 91.9531 17.1367C91.429 17.1367 90.9346 17.0911 90.4697 17C90.0094 16.9134 89.6061 16.779 89.2598 16.5967V14.7715C89.6061 14.9538 90.0208 15.1087 90.5039 15.2363C90.9915 15.3594 91.4495 15.4209 91.8779 15.4209C92.2972 15.4209 92.6504 15.3662 92.9375 15.2568C93.2246 15.1429 93.4411 14.9697 93.5869 14.7373C93.7373 14.5003 93.8125 14.1995 93.8125 13.835C93.8125 13.3473 93.6484 12.9736 93.3203 12.7139C92.9922 12.4541 92.4886 12.3242 91.8096 12.3242C91.5498 12.3242 91.2786 12.3493 90.9961 12.3994C90.7181 12.4495 90.4857 12.4997 90.2988 12.5498L89.458 12.0986L89.834 7.00586H95.2549V8.79688H91.6865L91.502 10.7588C91.6569 10.7269 91.8255 10.695 92.0078 10.6631C92.1901 10.6312 92.4453 10.6152 92.7734 10.6152ZM100.594 6.87598C101.168 6.87598 101.697 6.96484 102.18 7.14258C102.667 7.32031 103.057 7.58919 103.349 7.94922C103.64 8.30469 103.786 8.7513 103.786 9.28906C103.786 9.6901 103.706 10.041 103.547 10.3418C103.392 10.6426 103.18 10.9069 102.911 11.1348C102.642 11.3581 102.337 11.554 101.995 11.7227C102.351 11.9095 102.688 12.1283 103.007 12.3789C103.326 12.625 103.586 12.9144 103.786 13.2471C103.991 13.5798 104.094 13.9671 104.094 14.4092C104.094 14.9652 103.946 15.4482 103.649 15.8584C103.353 16.264 102.943 16.5785 102.419 16.8018C101.895 17.0251 101.286 17.1367 100.594 17.1367C99.8464 17.1367 99.2106 17.0296 98.6865 16.8154C98.1624 16.6012 97.7637 16.2959 97.4902 15.8994C97.2168 15.4984 97.0801 15.0199 97.0801 14.4639C97.0801 14.0081 97.1644 13.6117 97.333 13.2744C97.5062 12.9372 97.7386 12.6478 98.0303 12.4062C98.3219 12.1602 98.6432 11.9505 98.9941 11.7773C98.6979 11.5905 98.4268 11.3786 98.1807 11.1416C97.9391 10.9046 97.7454 10.6335 97.5996 10.3281C97.4583 10.0228 97.3877 9.67188 97.3877 9.27539C97.3877 8.74674 97.5358 8.30469 97.832 7.94922C98.1328 7.59375 98.527 7.32715 99.0146 7.14941C99.5023 6.96712 100.029 6.87598 100.594 6.87598ZM99.0352 14.3408C99.0352 14.7008 99.1628 14.9993 99.418 15.2363C99.6777 15.4688 100.061 15.585 100.566 15.585C101.09 15.585 101.482 15.4733 101.742 15.25C102.002 15.0221 102.132 14.7236 102.132 14.3545C102.132 14.0993 102.057 13.876 101.906 13.6846C101.76 13.4932 101.576 13.3223 101.353 13.1719C101.129 13.0169 100.904 12.8734 100.676 12.7412L100.491 12.6455C100.2 12.7777 99.9443 12.9258 99.7256 13.0898C99.5114 13.2539 99.3428 13.4385 99.2197 13.6436C99.0967 13.8486 99.0352 14.0811 99.0352 14.3408ZM100.58 8.4209C100.234 8.4209 99.9466 8.50977 99.7188 8.6875C99.4909 8.86523 99.377 9.11589 99.377 9.43945C99.377 9.66732 99.4316 9.86784 99.541 10.041C99.6549 10.2096 99.8031 10.3577 99.9854 10.4854C100.172 10.613 100.375 10.7314 100.594 10.8408C100.803 10.7406 100.999 10.6289 101.182 10.5059C101.364 10.3828 101.512 10.2347 101.626 10.0615C101.74 9.88835 101.797 9.68099 101.797 9.43945C101.797 9.11589 101.681 8.86523 101.448 8.6875C101.22 8.50977 100.931 8.4209 100.58 8.4209ZM112.105 11.2715C112.105 11.8457 112.062 12.4154 111.976 12.9805C111.894 13.5456 111.748 14.0788 111.538 14.5801C111.328 15.0768 111.035 15.5189 110.656 15.9062C110.278 16.2891 109.797 16.5898 109.214 16.8086C108.631 17.0273 107.924 17.1367 107.095 17.1367C106.899 17.1367 106.669 17.1276 106.404 17.1094C106.14 17.0957 105.921 17.0729 105.748 17.041V15.3457C105.93 15.3913 106.124 15.4277 106.329 15.4551C106.534 15.4779 106.742 15.4893 106.951 15.4893C107.785 15.4893 108.428 15.3571 108.879 15.0928C109.335 14.8285 109.654 14.4616 109.836 13.9922C110.023 13.5228 110.13 12.9805 110.157 12.3652H110.075C109.943 12.584 109.786 12.7822 109.604 12.96C109.426 13.1331 109.198 13.2721 108.92 13.377C108.642 13.4772 108.289 13.5273 107.86 13.5273C107.291 13.5273 106.794 13.4043 106.37 13.1582C105.951 12.9076 105.625 12.5475 105.393 12.0781C105.165 11.6042 105.051 11.0322 105.051 10.3623C105.051 9.6377 105.188 9.0179 105.461 8.50293C105.739 7.9834 106.133 7.58464 106.644 7.30664C107.154 7.02865 107.756 6.88965 108.448 6.88965C108.959 6.88965 109.435 6.97852 109.877 7.15625C110.319 7.32943 110.706 7.59603 111.039 7.95605C111.376 8.31608 111.638 8.77181 111.825 9.32324C112.012 9.87467 112.105 10.5241 112.105 11.2715ZM108.489 8.58496C108.079 8.58496 107.744 8.72624 107.484 9.00879C107.225 9.29134 107.095 9.7334 107.095 10.335C107.095 10.818 107.206 11.2008 107.43 11.4834C107.653 11.766 107.993 11.9072 108.448 11.9072C108.763 11.9072 109.036 11.8389 109.269 11.7021C109.501 11.5609 109.681 11.3854 109.809 11.1758C109.941 10.9616 110.007 10.7428 110.007 10.5195C110.007 10.2871 109.975 10.057 109.911 9.8291C109.847 9.60124 109.752 9.39388 109.624 9.20703C109.496 9.02018 109.337 8.86979 109.146 8.75586C108.959 8.64193 108.74 8.58496 108.489 8.58496ZM116.665 14.1016V12.3926H120.336V14.1016H116.665ZM128.594 10.6152C129.204 10.6152 129.747 10.7314 130.221 10.9639C130.699 11.1963 131.075 11.5381 131.349 11.9893C131.622 12.4404 131.759 12.9964 131.759 13.6572C131.759 14.3773 131.608 14.9993 131.308 15.5234C131.011 16.043 130.567 16.4417 129.975 16.7197C129.387 16.9977 128.653 17.1367 127.773 17.1367C127.249 17.1367 126.755 17.0911 126.29 17C125.83 16.9134 125.426 16.779 125.08 16.5967V14.7715C125.426 14.9538 125.841 15.1087 126.324 15.2363C126.812 15.3594 127.27 15.4209 127.698 15.4209C128.118 15.4209 128.471 15.3662 128.758 15.2568C129.045 15.1429 129.261 14.9697 129.407 14.7373C129.558 14.5003 129.633 14.1995 129.633 13.835C129.633 13.3473 129.469 12.9736 129.141 12.7139C128.812 12.4541 128.309 12.3242 127.63 12.3242C127.37 12.3242 127.099 12.3493 126.816 12.3994C126.538 12.4495 126.306 12.4997 126.119 12.5498L125.278 12.0986L125.654 7.00586H131.075V8.79688H127.507L127.322 10.7588C127.477 10.7269 127.646 10.695 127.828 10.6631C128.01 10.6312 128.266 10.6152 128.594 10.6152ZM140.181 14.9287H138.978V17H136.913V14.9287H132.647V13.459L137.029 7.00586H138.978V13.2881H140.181V14.9287ZM136.913 13.2881V11.5928C136.913 11.4333 136.915 11.2441 136.92 11.0254C136.929 10.8066 136.938 10.5879 136.947 10.3691C136.956 10.1504 136.965 9.95671 136.975 9.78809C136.988 9.61491 136.997 9.49414 137.002 9.42578H136.947C136.861 9.61263 136.77 9.79492 136.674 9.97266C136.578 10.1458 136.466 10.3281 136.339 10.5195L134.507 13.2881H136.913ZM144.426 6.87598C145 6.87598 145.529 6.96484 146.012 7.14258C146.499 7.32031 146.889 7.58919 147.181 7.94922C147.472 8.30469 147.618 8.7513 147.618 9.28906C147.618 9.6901 147.538 10.041 147.379 10.3418C147.224 10.6426 147.012 10.9069 146.743 11.1348C146.474 11.3581 146.169 11.554 145.827 11.7227C146.183 11.9095 146.52 12.1283 146.839 12.3789C147.158 12.625 147.418 12.9144 147.618 13.2471C147.823 13.5798 147.926 13.9671 147.926 14.4092C147.926 14.9652 147.778 15.4482 147.481 15.8584C147.185 16.264 146.775 16.5785 146.251 16.8018C145.727 17.0251 145.118 17.1367 144.426 17.1367C143.678 17.1367 143.043 17.0296 142.519 16.8154C141.994 16.6012 141.596 16.2959 141.322 15.8994C141.049 15.4984 140.912 15.0199 140.912 14.4639C140.912 14.0081 140.996 13.6117 141.165 13.2744C141.338 12.9372 141.571 12.6478 141.862 12.4062C142.154 12.1602 142.475 11.9505 142.826 11.7773C142.53 11.5905 142.259 11.3786 142.013 11.1416C141.771 10.9046 141.577 10.6335 141.432 10.3281C141.29 10.0228 141.22 9.67188 141.22 9.27539C141.22 8.74674 141.368 8.30469 141.664 7.94922C141.965 7.59375 142.359 7.32715 142.847 7.14941C143.334 6.96712 143.861 6.87598 144.426 6.87598ZM142.867 14.3408C142.867 14.7008 142.995 14.9993 143.25 15.2363C143.51 15.4688 143.893 15.585 144.398 15.585C144.923 15.585 145.314 15.4733 145.574 15.25C145.834 15.0221 145.964 14.7236 145.964 14.3545C145.964 14.0993 145.889 13.876 145.738 13.6846C145.592 13.4932 145.408 13.3223 145.185 13.1719C144.961 13.0169 144.736 12.8734 144.508 12.7412L144.323 12.6455C144.032 12.7777 143.776 12.9258 143.558 13.0898C143.343 13.2539 143.175 13.4385 143.052 13.6436C142.929 13.8486 142.867 14.0811 142.867 14.3408ZM144.412 8.4209C144.066 8.4209 143.779 8.50977 143.551 8.6875C143.323 8.86523 143.209 9.11589 143.209 9.43945C143.209 9.66732 143.264 9.86784 143.373 10.041C143.487 10.2096 143.635 10.3577 143.817 10.4854C144.004 10.613 144.207 10.7314 144.426 10.8408C144.635 10.7406 144.831 10.6289 145.014 10.5059C145.196 10.3828 145.344 10.2347 145.458 10.0615C145.572 9.88835 145.629 9.68099 145.629 9.43945C145.629 9.11589 145.513 8.86523 145.28 8.6875C145.052 8.50977 144.763 8.4209 144.412 8.4209ZM152.485 14.1016V12.3926H156.156V14.1016H152.485ZM160.709 12.7549C160.709 12.1807 160.75 11.6133 160.832 11.0527C160.919 10.4876 161.067 9.95671 161.276 9.45996C161.486 8.95866 161.78 8.5166 162.158 8.13379C162.536 7.74642 163.017 7.44336 163.601 7.22461C164.184 7.0013 164.89 6.88965 165.72 6.88965C165.916 6.88965 166.144 6.89876 166.403 6.91699C166.668 6.93066 166.886 6.95573 167.06 6.99219V8.68066C166.877 8.63965 166.681 8.60775 166.472 8.58496C166.267 8.55762 166.062 8.54395 165.856 8.54395C165.027 8.54395 164.384 8.67611 163.929 8.94043C163.478 9.20475 163.159 9.57161 162.972 10.041C162.789 10.5059 162.682 11.0482 162.65 11.668H162.739C162.867 11.4447 163.026 11.2464 163.218 11.0732C163.414 10.9001 163.651 10.7633 163.929 10.6631C164.207 10.5583 164.533 10.5059 164.906 10.5059C165.49 10.5059 165.995 10.6312 166.424 10.8818C166.852 11.1279 167.183 11.4857 167.415 11.9551C167.647 12.4245 167.764 12.9964 167.764 13.6709C167.764 14.391 167.625 15.0107 167.347 15.5303C167.069 16.0498 166.674 16.4486 166.164 16.7266C165.658 17 165.057 17.1367 164.359 17.1367C163.849 17.1367 163.373 17.0501 162.931 16.877C162.489 16.6992 162.101 16.4303 161.769 16.0703C161.436 15.7103 161.176 15.2568 160.989 14.71C160.802 14.1585 160.709 13.5068 160.709 12.7549ZM164.318 15.4482C164.733 15.4482 165.07 15.307 165.33 15.0244C165.59 14.7419 165.72 14.2998 165.72 13.6982C165.72 13.2106 165.606 12.8278 165.378 12.5498C165.155 12.2673 164.815 12.126 164.359 12.126C164.049 12.126 163.776 12.1966 163.539 12.3379C163.307 12.4746 163.127 12.6501 162.999 12.8643C162.871 13.0739 162.808 13.2904 162.808 13.5137C162.808 13.7461 162.84 13.9762 162.903 14.2041C162.967 14.432 163.063 14.6393 163.19 14.8262C163.318 15.013 163.475 15.1634 163.662 15.2773C163.854 15.3913 164.072 15.4482 164.318 15.4482ZM172.426 10.6152C173.036 10.6152 173.579 10.7314 174.053 10.9639C174.531 11.1963 174.907 11.5381 175.181 11.9893C175.454 12.4404 175.591 12.9964 175.591 13.6572C175.591 14.3773 175.44 14.9993 175.14 15.5234C174.843 16.043 174.399 16.4417 173.807 16.7197C173.219 16.9977 172.485 17.1367 171.605 17.1367C171.081 17.1367 170.587 17.0911 170.122 17C169.662 16.9134 169.258 16.779 168.912 16.5967V14.7715C169.258 14.9538 169.673 15.1087 170.156 15.2363C170.644 15.3594 171.102 15.4209 171.53 15.4209C171.95 15.4209 172.303 15.3662 172.59 15.2568C172.877 15.1429 173.093 14.9697 173.239 14.7373C173.39 14.5003 173.465 14.1995 173.465 13.835C173.465 13.3473 173.301 12.9736 172.973 12.7139C172.645 12.4541 172.141 12.3242 171.462 12.3242C171.202 12.3242 170.931 12.3493 170.648 12.3994C170.37 12.4495 170.138 12.4997 169.951 12.5498L169.11 12.0986L169.486 7.00586H174.907V8.79688H171.339L171.154 10.7588C171.309 10.7269 171.478 10.695 171.66 10.6631C171.842 10.6312 172.098 10.6152 172.426 10.6152ZM176.732 12.7549C176.732 12.1807 176.773 11.6133 176.855 11.0527C176.942 10.4876 177.09 9.95671 177.3 9.45996C177.509 8.95866 177.803 8.5166 178.182 8.13379C178.56 7.74642 179.041 7.44336 179.624 7.22461C180.207 7.0013 180.914 6.88965 181.743 6.88965C181.939 6.88965 182.167 6.89876 182.427 6.91699C182.691 6.93066 182.91 6.95573 183.083 6.99219V8.68066C182.901 8.63965 182.705 8.60775 182.495 8.58496C182.29 8.55762 182.085 8.54395 181.88 8.54395C181.05 8.54395 180.408 8.67611 179.952 8.94043C179.501 9.20475 179.182 9.57161 178.995 10.041C178.813 10.5059 178.706 11.0482 178.674 11.668H178.763C178.89 11.4447 179.05 11.2464 179.241 11.0732C179.437 10.9001 179.674 10.7633 179.952 10.6631C180.23 10.5583 180.556 10.5059 180.93 10.5059C181.513 10.5059 182.019 10.6312 182.447 10.8818C182.876 11.1279 183.206 11.4857 183.438 11.9551C183.671 12.4245 183.787 12.9964 183.787 13.6709C183.787 14.391 183.648 15.0107 183.37 15.5303C183.092 16.0498 182.698 16.4486 182.188 16.7266C181.682 17 181.08 17.1367 180.383 17.1367C179.872 17.1367 179.396 17.0501 178.954 16.877C178.512 16.6992 178.125 16.4303 177.792 16.0703C177.459 15.7103 177.2 15.2568 177.013 14.71C176.826 14.1585 176.732 13.5068 176.732 12.7549ZM180.342 15.4482C180.757 15.4482 181.094 15.307 181.354 15.0244C181.613 14.7419 181.743 14.2998 181.743 13.6982C181.743 13.2106 181.629 12.8278 181.401 12.5498C181.178 12.2673 180.839 12.126 180.383 12.126C180.073 12.126 179.799 12.1966 179.562 12.3379C179.33 12.4746 179.15 12.6501 179.022 12.8643C178.895 13.0739 178.831 13.2904 178.831 13.5137C178.831 13.7461 178.863 13.9762 178.927 14.2041C178.991 14.432 179.086 14.6393 179.214 14.8262C179.341 15.013 179.499 15.1634 179.686 15.2773C179.877 15.3913 180.096 15.4482 180.342 15.4482Z" fill="#0A0A0B"/>
<path d="M8.28241 14.7176C6.37356 12.8088 5.94255 10.8999 5.84531 10.1351C5.81814 9.92366 5.89091 9.71159 6.0422 9.56136L7.58693 8.01732C7.81417 7.79023 7.85449 7.43631 7.68417 7.16392L5.22466 3.34483C5.03623 3.04321 4.64932 2.93435 4.33126 3.09347L0.382872 4.95301C0.125666 5.07966 -0.0256186 5.35294 0.00358427 5.63815C0.210469 7.60355 1.06731 12.435 5.81531 17.1833C10.5633 21.9317 15.3941 22.7882 17.3605 22.9951C17.6457 23.0243 17.919 22.873 18.0456 22.6158L19.9052 18.6674C20.0637 18.35 19.9556 17.9641 19.6552 17.7754L15.8361 15.3165C15.5639 15.146 15.21 15.1861 14.9827 15.4131L13.4387 16.9578C13.2884 17.1091 13.0764 17.1819 12.8649 17.1547C12.1001 17.0575 10.1913 16.6265 8.28241 14.7176V14.7176Z" fill="#FE8C12"/>
<path d="M15.8624 13.6892C15.4815 13.6892 15.1728 13.3804 15.1728 12.9996C15.1695 10.1444 12.8558 7.8307 10.0006 7.82747C9.61979 7.82747 9.31104 7.51872 9.31104 7.13786C9.31104 6.75699 9.61979 6.44824 10.0006 6.44824C13.6172 6.45223 16.548 9.38303 16.552 12.9996C16.552 13.3804 16.2432 13.6892 15.8624 13.6892Z" fill="#FE8C12"/>
<path d="M19.3104 13.689C18.9296 13.689 18.6208 13.3803 18.6208 12.9994C18.6155 8.24082 14.7592 4.38455 10.0006 4.37923C9.61979 4.37923 9.31104 4.07048 9.31104 3.68961C9.31104 3.30875 9.61979 3 10.0006 3C15.5207 3.00608 19.994 7.47941 20.0001 12.9994C20.0001 13.1823 19.9274 13.3577 19.7981 13.487C19.6688 13.6164 19.4933 13.689 19.3104 13.689Z" fill="#FE8C12"/>
</svg>
