<svg width="106" height="22" viewBox="0 0 106 22" fill="none" xmlns="http://www.w3.org/2000/svg">
<path d="M36.4688 16H30.4805V14.7402L32.6309 12.5664C33.0645 12.1211 33.4121 11.75 33.6738 11.4531C33.9395 11.1523 34.1309 10.8789 34.248 10.6328C34.3691 10.3867 34.4297 10.123 34.4297 9.8418C34.4297 9.50195 34.334 9.24805 34.1426 9.08008C33.9551 8.9082 33.7031 8.82227 33.3867 8.82227C33.0547 8.82227 32.7324 8.89844 32.4199 9.05078C32.1074 9.20312 31.7812 9.41992 31.4414 9.70117L30.457 8.53516C30.7031 8.32422 30.9629 8.125 31.2363 7.9375C31.5137 7.75 31.834 7.59961 32.1973 7.48633C32.5645 7.36914 33.0039 7.31055 33.5156 7.31055C34.0781 7.31055 34.5605 7.41211 34.9629 7.61523C35.3691 7.81836 35.6816 8.0957 35.9004 8.44727C36.1191 8.79492 36.2285 9.18945 36.2285 9.63086C36.2285 10.1035 36.1348 10.5352 35.9473 10.9258C35.7598 11.3164 35.4863 11.7031 35.127 12.0859C34.7715 12.4688 34.3418 12.8926 33.8379 13.3574L32.7363 14.3945V14.4766H36.4688V16ZM43.3359 16H37.3477V14.7402L39.498 12.5664C39.9316 12.1211 40.2793 11.75 40.541 11.4531C40.8066 11.1523 40.998 10.8789 41.1152 10.6328C41.2363 10.3867 41.2969 10.123 41.2969 9.8418C41.2969 9.50195 41.2012 9.24805 41.0098 9.08008C40.8223 8.9082 40.5703 8.82227 40.2539 8.82227C39.9219 8.82227 39.5996 8.89844 39.2871 9.05078C38.9746 9.20312 38.6484 9.41992 38.3086 9.70117L37.3242 8.53516C37.5703 8.32422 37.8301 8.125 38.1035 7.9375C38.3809 7.75 38.7012 7.59961 39.0645 7.48633C39.4316 7.36914 39.8711 7.31055 40.3828 7.31055C40.9453 7.31055 41.4277 7.41211 41.8301 7.61523C42.2363 7.81836 42.5488 8.0957 42.7676 8.44727C42.9863 8.79492 43.0957 9.18945 43.0957 9.63086C43.0957 10.1035 43.002 10.5352 42.8145 10.9258C42.627 11.3164 42.3535 11.7031 41.9941 12.0859C41.6387 12.4688 41.209 12.8926 40.7051 13.3574L39.6035 14.3945V14.4766H43.3359V16ZM55.7051 11.7051C55.7051 12.3652 55.623 12.9668 55.459 13.5098C55.2949 14.0488 55.0449 14.5137 54.709 14.9043C54.377 15.2949 53.9551 15.5957 53.4434 15.8066C52.9316 16.0137 52.3262 16.1172 51.627 16.1172C50.9277 16.1172 50.3223 16.0137 49.8105 15.8066C49.2988 15.5957 48.875 15.2949 48.5391 14.9043C48.207 14.5137 47.959 14.0469 47.7949 13.5039C47.6309 12.9609 47.5488 12.3574 47.5488 11.6934C47.5488 10.8066 47.6934 10.0352 47.9824 9.37891C48.2754 8.71875 48.7246 8.20703 49.3301 7.84375C49.9355 7.48047 50.7051 7.29883 51.6387 7.29883C52.5684 7.29883 53.332 7.48047 53.9297 7.84375C54.5312 8.20703 54.9766 8.71875 55.2656 9.37891C55.5586 10.0391 55.7051 10.8145 55.7051 11.7051ZM49.4531 11.7051C49.4531 12.3027 49.5273 12.8184 49.6758 13.252C49.8281 13.6816 50.0645 14.0137 50.3848 14.248C50.7051 14.4785 51.1191 14.5938 51.627 14.5938C52.1426 14.5938 52.5605 14.4785 52.8809 14.248C53.2012 14.0137 53.4336 13.6816 53.5781 13.252C53.7266 12.8184 53.8008 12.3027 53.8008 11.7051C53.8008 10.8066 53.6328 10.0996 53.2969 9.58398C52.9609 9.06836 52.4082 8.81055 51.6387 8.81055C51.127 8.81055 50.709 8.92773 50.3848 9.16211C50.0645 9.39258 49.8281 9.72461 49.6758 10.1582C49.5273 10.5879 49.4531 11.1035 49.4531 11.7051ZM61.1191 8.82227C60.7715 8.82227 60.4629 8.89062 60.1934 9.02734C59.9277 9.16016 59.7031 9.35352 59.5195 9.60742C59.3398 9.86133 59.2031 10.168 59.1094 10.5273C59.0156 10.8867 58.9688 11.291 58.9688 11.7402C58.9688 12.3457 59.043 12.8633 59.1914 13.293C59.3438 13.7188 59.5781 14.0449 59.8945 14.2715C60.2109 14.4941 60.6191 14.6055 61.1191 14.6055C61.4668 14.6055 61.8145 14.5664 62.1621 14.4883C62.5137 14.4102 62.8945 14.2988 63.3047 14.1543V15.6777C62.9258 15.834 62.5527 15.9453 62.1855 16.0117C61.8184 16.082 61.4062 16.1172 60.9492 16.1172C60.0664 16.1172 59.3398 15.9355 58.7695 15.5723C58.2031 15.2051 57.7832 14.6934 57.5098 14.0371C57.2363 13.377 57.0996 12.6074 57.0996 11.7285C57.0996 11.0801 57.1875 10.4863 57.3633 9.94727C57.5391 9.4082 57.7969 8.94141 58.1367 8.54688C58.4766 8.15234 58.8965 7.84766 59.3965 7.63281C59.8965 7.41797 60.4707 7.31055 61.1191 7.31055C61.5449 7.31055 61.9707 7.36523 62.3965 7.47461C62.8262 7.58008 63.2363 7.72656 63.627 7.91406L63.041 9.39062C62.7207 9.23828 62.3984 9.10547 62.0742 8.99219C61.75 8.87891 61.4316 8.82227 61.1191 8.82227ZM68.4375 16H66.6211V8.94531H64.2949V7.43359H70.7637V8.94531H68.4375V16ZM73.6055 14.6055L73.6934 14.7402C73.623 15.0215 73.5312 15.3242 73.418 15.6484C73.3086 15.9727 73.1875 16.2969 73.0547 16.6211C72.9258 16.9453 72.7949 17.2539 72.6621 17.5469H71.373C71.4512 17.2305 71.5273 16.8984 71.6016 16.5508C71.6758 16.2031 71.7441 15.8613 71.8066 15.5254C71.873 15.1895 71.9258 14.8828 71.9648 14.6055H73.6055ZM84.0117 16H78.0234V14.7402L80.1738 12.5664C80.6074 12.1211 80.9551 11.75 81.2168 11.4531C81.4824 11.1523 81.6738 10.8789 81.791 10.6328C81.9121 10.3867 81.9727 10.123 81.9727 9.8418C81.9727 9.50195 81.877 9.24805 81.6855 9.08008C81.498 8.9082 81.2461 8.82227 80.9297 8.82227C80.5977 8.82227 80.2754 8.89844 79.9629 9.05078C79.6504 9.20312 79.3242 9.41992 78.9844 9.70117L78 8.53516C78.2461 8.32422 78.5059 8.125 78.7793 7.9375C79.0566 7.75 79.377 7.59961 79.7402 7.48633C80.1074 7.36914 80.5469 7.31055 81.0586 7.31055C81.6211 7.31055 82.1035 7.41211 82.5059 7.61523C82.9121 7.81836 83.2246 8.0957 83.4434 8.44727C83.6621 8.79492 83.7715 9.18945 83.7715 9.63086C83.7715 10.1035 83.6777 10.5352 83.4902 10.9258C83.3027 11.3164 83.0293 11.7031 82.6699 12.0859C82.3145 12.4688 81.8848 12.8926 81.3809 13.3574L80.2793 14.3945V14.4766H84.0117V16ZM90.832 11.7168C90.832 12.4082 90.7773 13.0254 90.668 13.5684C90.5625 14.1113 90.3906 14.5723 90.1523 14.9512C89.918 15.3301 89.6094 15.6191 89.2266 15.8184C88.8438 16.0176 88.3789 16.1172 87.832 16.1172C87.1445 16.1172 86.5801 15.9434 86.1387 15.5957C85.6973 15.2441 85.3711 14.7402 85.1602 14.084C84.9492 13.4238 84.8438 12.6348 84.8438 11.7168C84.8438 10.791 84.9395 10 85.1309 9.34375C85.3262 8.68359 85.6426 8.17773 86.0801 7.82617C86.5176 7.47461 87.1016 7.29883 87.832 7.29883C88.5156 7.29883 89.0781 7.47461 89.5195 7.82617C89.9648 8.17383 90.2949 8.67773 90.5098 9.33789C90.7246 9.99414 90.832 10.7871 90.832 11.7168ZM86.6426 11.7168C86.6426 12.3691 86.6777 12.9141 86.748 13.3516C86.8223 13.7852 86.9453 14.1113 87.1172 14.3301C87.2891 14.5488 87.5273 14.6582 87.832 14.6582C88.1328 14.6582 88.3691 14.5508 88.541 14.3359C88.7168 14.1172 88.8418 13.791 88.916 13.3574C88.9902 12.9199 89.0273 12.373 89.0273 11.7168C89.0273 11.0645 88.9902 10.5195 88.916 10.082C88.8418 9.64453 88.7168 9.31641 88.541 9.09766C88.3691 8.875 88.1328 8.76367 87.832 8.76367C87.5273 8.76367 87.2891 8.875 87.1172 9.09766C86.9453 9.31641 86.8223 9.64453 86.748 10.082C86.6777 10.5195 86.6426 11.0645 86.6426 11.7168ZM97.7461 16H91.7578V14.7402L93.9082 12.5664C94.3418 12.1211 94.6895 11.75 94.9512 11.4531C95.2168 11.1523 95.4082 10.8789 95.5254 10.6328C95.6465 10.3867 95.707 10.123 95.707 9.8418C95.707 9.50195 95.6113 9.24805 95.4199 9.08008C95.2324 8.9082 94.9805 8.82227 94.6641 8.82227C94.332 8.82227 94.0098 8.89844 93.6973 9.05078C93.3848 9.20312 93.0586 9.41992 92.7188 9.70117L91.7344 8.53516C91.9805 8.32422 92.2402 8.125 92.5137 7.9375C92.791 7.75 93.1113 7.59961 93.4746 7.48633C93.8418 7.36914 94.2812 7.31055 94.793 7.31055C95.3555 7.31055 95.8379 7.41211 96.2402 7.61523C96.6465 7.81836 96.959 8.0957 97.1777 8.44727C97.3965 8.79492 97.5059 9.18945 97.5059 9.63086C97.5059 10.1035 97.4121 10.5352 97.2246 10.9258C97.0371 11.3164 96.7637 11.7031 96.4043 12.0859C96.0488 12.4688 95.6191 12.8926 95.1152 13.3574L94.0137 14.3945V14.4766H97.7461V16ZM103.102 16H101.291V11.043C101.291 10.9062 101.293 10.7383 101.297 10.5391C101.301 10.3359 101.307 10.1289 101.314 9.91797C101.322 9.70312 101.33 9.50977 101.338 9.33789C101.295 9.38867 101.207 9.47656 101.074 9.60156C100.945 9.72266 100.824 9.83203 100.711 9.92969L99.7266 10.7207L98.8535 9.63086L101.613 7.43359H103.102V16Z" fill="#686C73"/>
<path d="M5.625 4V4.625H3.125V18.375H16.875V4.625H14.375V4H13.125V4.625H6.875V4H5.625ZM4.375 5.875H5.625V6.5H6.875V5.875H13.125V6.5H14.375V5.875H15.625V7.125H4.375V5.875ZM4.375 8.375H15.625V17.125H4.375V8.375ZM8.125 9.625V10.875H9.375V9.625H8.125ZM10.625 9.625V10.875H11.875V9.625H10.625ZM13.125 9.625V10.875H14.375V9.625H13.125ZM5.625 12.125V13.375H6.875V12.125H5.625ZM8.125 12.125V13.375H9.375V12.125H8.125ZM10.625 12.125V13.375H11.875V12.125H10.625ZM13.125 12.125V13.375H14.375V12.125H13.125ZM5.625 14.625V15.875H6.875V14.625H5.625ZM8.125 14.625V15.875H9.375V14.625H8.125ZM10.625 14.625V15.875H11.875V14.625H10.625Z" fill="#FE8C12"/>
</svg>
