<svg width="174" height="44" viewBox="0 0 174 44" fill="none" xmlns="http://www.w3.org/2000/svg">
<path d="M55.4219 30.5078H58.4453V32.2188H55.4219V35.2266H53.7109V32.2188H50.6875V30.5078H53.7109V27.4609H55.4219V30.5078ZM65.7656 37H63.3516V30.3906C63.3516 30.2083 63.3542 29.9844 63.3594 29.7188C63.3646 29.4479 63.3724 29.1719 63.3828 28.8906C63.3932 28.6042 63.4036 28.3464 63.4141 28.1172C63.3568 28.1849 63.2396 28.3021 63.0625 28.4688C62.8906 28.6302 62.7292 28.776 62.5781 28.9062L61.2656 29.9609L60.1016 28.5078L63.7812 25.5781H65.7656V37ZM76.9375 37H68.9531V35.3203L71.8203 32.4219C72.3984 31.8281 72.862 31.3333 73.2109 30.9375C73.5651 30.5365 73.8203 30.1719 73.9766 29.8438C74.138 29.5156 74.2188 29.1641 74.2188 28.7891C74.2188 28.3359 74.0911 27.9974 73.8359 27.7734C73.5859 27.5443 73.25 27.4297 72.8281 27.4297C72.3854 27.4297 71.9557 27.5312 71.5391 27.7344C71.1224 27.9375 70.6875 28.2266 70.2344 28.6016L68.9219 27.0469C69.25 26.7656 69.5964 26.5 69.9609 26.25C70.3307 26 70.7578 25.7995 71.2422 25.6484C71.7318 25.4922 72.3177 25.4141 73 25.4141C73.75 25.4141 74.3932 25.5495 74.9297 25.8203C75.4714 26.0911 75.888 26.4609 76.1797 26.9297C76.4714 27.3932 76.6172 27.9193 76.6172 28.5078C76.6172 29.138 76.4922 29.7135 76.2422 30.2344C75.9922 30.7552 75.6276 31.2708 75.1484 31.7812C74.6745 32.2917 74.1016 32.8568 73.4297 33.4766L71.9609 34.8594V34.9688H76.9375V37ZM85.6484 28.1328C85.6484 28.6589 85.5391 29.1146 85.3203 29.5C85.1016 29.8854 84.8047 30.2005 84.4297 30.4453C84.0599 30.6901 83.6432 30.8698 83.1797 30.9844V31.0312C84.0964 31.1458 84.7917 31.4271 85.2656 31.875C85.7448 32.3229 85.9844 32.9219 85.9844 33.6719C85.9844 34.3385 85.8203 34.9349 85.4922 35.4609C85.1693 35.987 84.6693 36.401 83.9922 36.7031C83.3151 37.0052 82.4427 37.1562 81.375 37.1562C80.7448 37.1562 80.1562 37.1042 79.6094 37C79.0677 36.901 78.5573 36.7474 78.0781 36.5391V34.4844C78.5677 34.7344 79.0807 34.9245 79.6172 35.0547C80.1536 35.1797 80.6536 35.2422 81.1172 35.2422C81.9818 35.2422 82.5859 35.0938 82.9297 34.7969C83.2786 34.4948 83.4531 34.0729 83.4531 33.5312C83.4531 33.2135 83.3724 32.9453 83.2109 32.7266C83.0495 32.5078 82.7682 32.3411 82.3672 32.2266C81.9714 32.112 81.4167 32.0547 80.7031 32.0547H79.8359V30.2031H80.7188C81.4219 30.2031 81.9557 30.138 82.3203 30.0078C82.6901 29.8724 82.9401 29.6901 83.0703 29.4609C83.2057 29.2266 83.2734 28.9609 83.2734 28.6641C83.2734 28.2578 83.1484 27.9401 82.8984 27.7109C82.6484 27.4818 82.2318 27.3672 81.6484 27.3672C81.2839 27.3672 80.9505 27.4141 80.6484 27.5078C80.3516 27.5964 80.0833 27.7057 79.8438 27.8359C79.6042 27.9609 79.3932 28.0833 79.2109 28.2031L78.0938 26.5391C78.5417 26.2161 79.0651 25.9479 79.6641 25.7344C80.2682 25.5208 80.987 25.4141 81.8203 25.4141C82.9974 25.4141 83.9297 25.651 84.6172 26.125C85.3047 26.599 85.6484 27.2682 85.6484 28.1328ZM91.2578 33.6875V31.7344H95.4531V33.6875H91.2578ZM100.734 29.7031C101.432 29.7031 102.052 29.8359 102.594 30.1016C103.141 30.3672 103.57 30.7578 103.883 31.2734C104.195 31.7891 104.352 32.4245 104.352 33.1797C104.352 34.0026 104.18 34.7135 103.836 35.3125C103.497 35.9062 102.99 36.362 102.312 36.6797C101.641 36.9974 100.802 37.1562 99.7969 37.1562C99.1979 37.1562 98.6328 37.1042 98.1016 37C97.5755 36.901 97.1146 36.7474 96.7188 36.5391V34.4531C97.1146 34.6615 97.5885 34.8385 98.1406 34.9844C98.6979 35.125 99.2214 35.1953 99.7109 35.1953C100.19 35.1953 100.594 35.1328 100.922 35.0078C101.25 34.8776 101.497 34.6797 101.664 34.4141C101.836 34.1432 101.922 33.7995 101.922 33.3828C101.922 32.8255 101.734 32.3984 101.359 32.1016C100.984 31.8047 100.409 31.6562 99.6328 31.6562C99.3359 31.6562 99.026 31.6849 98.7031 31.7422C98.3854 31.7995 98.1198 31.8568 97.9062 31.9141L96.9453 31.3984L97.375 25.5781H103.57V27.625H99.4922L99.2812 29.8672C99.4583 29.8307 99.651 29.7943 99.8594 29.7578C100.068 29.7214 100.359 29.7031 100.734 29.7031ZM105.656 32.1484C105.656 31.4922 105.703 30.8438 105.797 30.2031C105.896 29.5573 106.065 28.9505 106.305 28.3828C106.544 27.8099 106.88 27.3047 107.312 26.8672C107.745 26.4245 108.294 26.0781 108.961 25.8281C109.628 25.5729 110.435 25.4453 111.383 25.4453C111.607 25.4453 111.867 25.4557 112.164 25.4766C112.466 25.4922 112.716 25.5208 112.914 25.5625V27.4922C112.706 27.4453 112.482 27.4089 112.242 27.3828C112.008 27.3516 111.773 27.3359 111.539 27.3359C110.591 27.3359 109.857 27.487 109.336 27.7891C108.82 28.0911 108.456 28.5104 108.242 29.0469C108.034 29.5781 107.911 30.1979 107.875 30.9062H107.977C108.122 30.651 108.305 30.4245 108.523 30.2266C108.747 30.0286 109.018 29.8724 109.336 29.7578C109.654 29.638 110.026 29.5781 110.453 29.5781C111.12 29.5781 111.698 29.7214 112.188 30.0078C112.677 30.2891 113.055 30.6979 113.32 31.2344C113.586 31.7708 113.719 32.4245 113.719 33.1953C113.719 34.0182 113.56 34.7266 113.242 35.3203C112.924 35.9141 112.474 36.3698 111.891 36.6875C111.312 37 110.625 37.1562 109.828 37.1562C109.245 37.1562 108.701 37.0573 108.195 36.8594C107.69 36.6562 107.247 36.349 106.867 35.9375C106.487 35.526 106.19 35.0078 105.977 34.3828C105.763 33.7526 105.656 33.0078 105.656 32.1484ZM109.781 35.2266C110.255 35.2266 110.641 35.0651 110.938 34.7422C111.234 34.4193 111.383 33.9141 111.383 33.2266C111.383 32.6693 111.253 32.2318 110.992 31.9141C110.737 31.5911 110.349 31.4297 109.828 31.4297C109.474 31.4297 109.161 31.5104 108.891 31.6719C108.625 31.8281 108.419 32.0286 108.273 32.2734C108.128 32.513 108.055 32.7604 108.055 33.0156C108.055 33.2812 108.091 33.5443 108.164 33.8047C108.237 34.0651 108.346 34.3021 108.492 34.5156C108.638 34.7292 108.818 34.901 109.031 35.0312C109.25 35.1615 109.5 35.2266 109.781 35.2266ZM118.828 25.4297C119.484 25.4297 120.089 25.5312 120.641 25.7344C121.198 25.9375 121.643 26.2448 121.977 26.6562C122.31 27.0625 122.477 27.5729 122.477 28.1875C122.477 28.6458 122.385 29.0469 122.203 29.3906C122.026 29.7344 121.784 30.0365 121.477 30.2969C121.169 30.5521 120.82 30.776 120.43 30.9688C120.836 31.1823 121.221 31.4323 121.586 31.7188C121.951 32 122.247 32.3307 122.477 32.7109C122.711 33.0911 122.828 33.5339 122.828 34.0391C122.828 34.6745 122.659 35.2266 122.32 35.6953C121.982 36.1589 121.513 36.5182 120.914 36.7734C120.315 37.0286 119.62 37.1562 118.828 37.1562C117.974 37.1562 117.247 37.0339 116.648 36.7891C116.049 36.5443 115.594 36.1953 115.281 35.7422C114.969 35.2839 114.812 34.737 114.812 34.1016C114.812 33.5807 114.909 33.1276 115.102 32.7422C115.299 32.3568 115.565 32.026 115.898 31.75C116.232 31.4688 116.599 31.2292 117 31.0312C116.661 30.8177 116.352 30.5755 116.07 30.3047C115.794 30.0339 115.573 29.724 115.406 29.375C115.245 29.026 115.164 28.625 115.164 28.1719C115.164 27.5677 115.333 27.0625 115.672 26.6562C116.016 26.25 116.466 25.9453 117.023 25.7422C117.581 25.5339 118.182 25.4297 118.828 25.4297ZM117.047 33.9609C117.047 34.3724 117.193 34.7135 117.484 34.9844C117.781 35.25 118.219 35.3828 118.797 35.3828C119.396 35.3828 119.844 35.2552 120.141 35C120.438 34.7396 120.586 34.3984 120.586 33.9766C120.586 33.6849 120.5 33.4297 120.328 33.2109C120.161 32.9922 119.951 32.7969 119.695 32.625C119.44 32.4479 119.182 32.2839 118.922 32.1328L118.711 32.0234C118.378 32.1745 118.086 32.3438 117.836 32.5312C117.591 32.7188 117.398 32.9297 117.258 33.1641C117.117 33.3984 117.047 33.6641 117.047 33.9609ZM118.812 27.1953C118.417 27.1953 118.089 27.2969 117.828 27.5C117.568 27.7031 117.438 27.9896 117.438 28.3594C117.438 28.6198 117.5 28.849 117.625 29.0469C117.755 29.2396 117.924 29.4089 118.133 29.5547C118.346 29.7005 118.578 29.8359 118.828 29.9609C119.068 29.8464 119.292 29.7188 119.5 29.5781C119.708 29.4375 119.878 29.2682 120.008 29.0703C120.138 28.8724 120.203 28.6354 120.203 28.3594C120.203 27.9896 120.07 27.7031 119.805 27.5C119.544 27.2969 119.214 27.1953 118.812 27.1953ZM128.039 33.6875V31.7344H132.234V33.6875H128.039ZM145.758 34.6328H144.383V37H142.023V34.6328H137.148V32.9531L142.156 25.5781H144.383V32.7578H145.758V34.6328ZM142.023 32.7578V30.8203C142.023 30.638 142.026 30.4219 142.031 30.1719C142.042 29.9219 142.052 29.6719 142.062 29.4219C142.073 29.1719 142.083 28.9505 142.094 28.7578C142.109 28.5599 142.12 28.4219 142.125 28.3438H142.062C141.964 28.5573 141.859 28.7656 141.75 28.9688C141.641 29.1667 141.513 29.375 141.367 29.5938L139.273 32.7578H142.023ZM147.805 37L152.094 27.6094H146.461V25.5781H154.656V27.0938L150.336 37H147.805ZM159.984 29.7031C160.682 29.7031 161.302 29.8359 161.844 30.1016C162.391 30.3672 162.82 30.7578 163.133 31.2734C163.445 31.7891 163.602 32.4245 163.602 33.1797C163.602 34.0026 163.43 34.7135 163.086 35.3125C162.747 35.9062 162.24 36.362 161.562 36.6797C160.891 36.9974 160.052 37.1562 159.047 37.1562C158.448 37.1562 157.883 37.1042 157.352 37C156.826 36.901 156.365 36.7474 155.969 36.5391V34.4531C156.365 34.6615 156.839 34.8385 157.391 34.9844C157.948 35.125 158.471 35.1953 158.961 35.1953C159.44 35.1953 159.844 35.1328 160.172 35.0078C160.5 34.8776 160.747 34.6797 160.914 34.4141C161.086 34.1432 161.172 33.7995 161.172 33.3828C161.172 32.8255 160.984 32.3984 160.609 32.1016C160.234 31.8047 159.659 31.6562 158.883 31.6562C158.586 31.6562 158.276 31.6849 157.953 31.7422C157.635 31.7995 157.37 31.8568 157.156 31.9141L156.195 31.3984L156.625 25.5781H162.82V27.625H158.742L158.531 29.8672C158.708 29.8307 158.901 29.7943 159.109 29.7578C159.318 29.7214 159.609 29.7031 159.984 29.7031ZM168.922 25.4297C169.578 25.4297 170.182 25.5312 170.734 25.7344C171.292 25.9375 171.737 26.2448 172.07 26.6562C172.404 27.0625 172.57 27.5729 172.57 28.1875C172.57 28.6458 172.479 29.0469 172.297 29.3906C172.12 29.7344 171.878 30.0365 171.57 30.2969C171.263 30.5521 170.914 30.776 170.523 30.9688C170.93 31.1823 171.315 31.4323 171.68 31.7188C172.044 32 172.341 32.3307 172.57 32.7109C172.805 33.0911 172.922 33.5339 172.922 34.0391C172.922 34.6745 172.753 35.2266 172.414 35.6953C172.076 36.1589 171.607 36.5182 171.008 36.7734C170.409 37.0286 169.714 37.1562 168.922 37.1562C168.068 37.1562 167.341 37.0339 166.742 36.7891C166.143 36.5443 165.688 36.1953 165.375 35.7422C165.062 35.2839 164.906 34.737 164.906 34.1016C164.906 33.5807 165.003 33.1276 165.195 32.7422C165.393 32.3568 165.659 32.026 165.992 31.75C166.326 31.4688 166.693 31.2292 167.094 31.0312C166.755 30.8177 166.445 30.5755 166.164 30.3047C165.888 30.0339 165.667 29.724 165.5 29.375C165.339 29.026 165.258 28.625 165.258 28.1719C165.258 27.5677 165.427 27.0625 165.766 26.6562C166.109 26.25 166.56 25.9453 167.117 25.7422C167.674 25.5339 168.276 25.4297 168.922 25.4297ZM167.141 33.9609C167.141 34.3724 167.286 34.7135 167.578 34.9844C167.875 35.25 168.312 35.3828 168.891 35.3828C169.49 35.3828 169.938 35.2552 170.234 35C170.531 34.7396 170.68 34.3984 170.68 33.9766C170.68 33.6849 170.594 33.4297 170.422 33.2109C170.255 32.9922 170.044 32.7969 169.789 32.625C169.534 32.4479 169.276 32.2839 169.016 32.1328L168.805 32.0234C168.471 32.1745 168.18 32.3438 167.93 32.5312C167.685 32.7188 167.492 32.9297 167.352 33.1641C167.211 33.3984 167.141 33.6641 167.141 33.9609ZM168.906 27.1953C168.51 27.1953 168.182 27.2969 167.922 27.5C167.661 27.7031 167.531 27.9896 167.531 28.3594C167.531 28.6198 167.594 28.849 167.719 29.0469C167.849 29.2396 168.018 29.4089 168.227 29.5547C168.44 29.7005 168.672 29.8359 168.922 29.9609C169.161 29.8464 169.385 29.7188 169.594 29.5781C169.802 29.4375 169.971 29.2682 170.102 29.0703C170.232 28.8724 170.297 28.6354 170.297 28.3594C170.297 27.9896 170.164 27.7031 169.898 27.5C169.638 27.2969 169.307 27.1953 168.906 27.1953Z" fill="#0A0A0B"/>
<a href="mailto:bioven@gmail.com">
<rect fill="black" fill-opacity="0" y="2.10547" width="123.492" height="21.7891"/>
</a>
<path d="M53.6523 14H52.1387V8.12109H50.2002V6.86133H55.5908V8.12109H53.6523V14ZM60.8008 14H56.6895V6.86133H60.8008V8.10156H58.2031V9.66895H60.6201V10.9092H58.2031V12.75H60.8008V14ZM62.2949 14V6.86133H63.8086V12.75H66.7041V14H62.2949ZM67.9492 14V6.86133H69.4629V12.75H72.3584V14H67.9492ZM84.9707 6.86133L83.1543 14H81.4307L80.4639 10.25C80.4443 10.1784 80.4183 10.0693 80.3857 9.92285C80.3532 9.77637 80.319 9.61686 80.2832 9.44434C80.2474 9.26855 80.2148 9.10417 80.1855 8.95117C80.1595 8.79492 80.1416 8.67122 80.1318 8.58008C80.1221 8.67122 80.1025 8.79329 80.0732 8.94629C80.0472 9.09928 80.0163 9.26204 79.9805 9.43457C79.9479 9.6071 79.9154 9.76823 79.8828 9.91797C79.8503 10.0677 79.8242 10.1816 79.8047 10.2598L78.8428 14H77.124L75.3027 6.86133H76.792L77.7051 10.7578C77.7311 10.875 77.7604 11.015 77.793 11.1777C77.8288 11.3405 77.863 11.5114 77.8955 11.6904C77.9313 11.8662 77.9622 12.0371 77.9883 12.2031C78.0176 12.3659 78.0387 12.5075 78.0518 12.6279C78.068 12.5042 78.0892 12.361 78.1152 12.1982C78.1413 12.0322 78.1689 11.8646 78.1982 11.6953C78.2308 11.5228 78.2633 11.3633 78.2959 11.2168C78.3285 11.0703 78.3577 10.9515 78.3838 10.8604L79.4238 6.86133H80.8545L81.8945 10.8604C81.9173 10.9482 81.9434 11.0671 81.9727 11.2168C82.0052 11.3633 82.0378 11.5228 82.0703 11.6953C82.1029 11.8678 82.1322 12.0371 82.1582 12.2031C82.1875 12.3659 82.2087 12.5075 82.2217 12.6279C82.2445 12.4652 82.2754 12.2682 82.3145 12.0371C82.3568 11.8027 82.4007 11.57 82.4463 11.3389C82.4951 11.1077 82.5374 10.9141 82.5732 10.7578L83.4814 6.86133H84.9707ZM85.8691 14V6.86133H87.3828V14H85.8691ZM91.9336 14H90.4199V8.12109H88.4814V6.86133H93.8721V8.12109H91.9336V14ZM100.82 14H99.3115V10.9189H96.4844V14H94.9707V6.86133H96.4844V9.65918H99.3115V6.86133H100.82V14ZM111.035 6.86133V11.4805C111.035 11.972 110.926 12.4163 110.708 12.8135C110.493 13.2074 110.166 13.5199 109.727 13.751C109.29 13.9821 108.74 14.0977 108.076 14.0977C107.132 14.0977 106.413 13.8568 105.918 13.375C105.423 12.8932 105.176 12.2552 105.176 11.4609V6.86133H106.685V11.2314C106.685 11.8206 106.805 12.234 107.046 12.4717C107.287 12.7093 107.643 12.8281 108.115 12.8281C108.447 12.8281 108.716 12.7712 108.921 12.6572C109.129 12.5433 109.282 12.3675 109.38 12.1299C109.478 11.8923 109.526 11.5895 109.526 11.2217V6.86133H111.035ZM116.997 12.0176C116.997 12.4408 116.895 12.8086 116.689 13.1211C116.484 13.4336 116.185 13.6745 115.791 13.8438C115.4 14.013 114.925 14.0977 114.365 14.0977C114.118 14.0977 113.875 14.0814 113.638 14.0488C113.403 14.0163 113.177 13.9691 112.959 13.9072C112.744 13.8421 112.539 13.7624 112.344 13.668V12.2617C112.682 12.4115 113.034 12.5465 113.398 12.667C113.763 12.7874 114.124 12.8477 114.482 12.8477C114.73 12.8477 114.928 12.8151 115.078 12.75C115.231 12.6849 115.342 12.5954 115.41 12.4814C115.479 12.3675 115.513 12.2373 115.513 12.0908C115.513 11.9118 115.452 11.7588 115.332 11.6318C115.212 11.5049 115.046 11.3861 114.834 11.2754C114.626 11.1647 114.39 11.0459 114.126 10.9189C113.96 10.8408 113.779 10.7464 113.584 10.6357C113.389 10.5218 113.203 10.3835 113.027 10.2207C112.852 10.0579 112.707 9.861 112.593 9.62988C112.482 9.39551 112.427 9.11556 112.427 8.79004C112.427 8.36361 112.524 7.99902 112.72 7.69629C112.915 7.39355 113.193 7.16243 113.555 7.00293C113.919 6.84017 114.349 6.75879 114.844 6.75879C115.215 6.75879 115.568 6.80273 115.903 6.89062C116.242 6.97526 116.595 7.09896 116.963 7.26172L116.475 8.43848C116.146 8.30501 115.851 8.20247 115.591 8.13086C115.33 8.05599 115.065 8.01855 114.795 8.01855C114.606 8.01855 114.445 8.04948 114.312 8.11133C114.178 8.16992 114.077 8.25456 114.009 8.36523C113.94 8.47266 113.906 8.59798 113.906 8.74121C113.906 8.91048 113.955 9.05371 114.053 9.1709C114.154 9.28483 114.303 9.39551 114.502 9.50293C114.704 9.61035 114.954 9.73568 115.254 9.87891C115.618 10.0514 115.929 10.2321 116.187 10.4209C116.447 10.6064 116.647 10.8262 116.787 11.0801C116.927 11.3307 116.997 11.6432 116.997 12.0176Z" fill="#686C73"/>
<path d="M34.6992 18.3188L30.3799 13.9994V5.02539C30.3799 4.4591 29.9208 4 29.3546 4H5.64516C5.07887 4 4.61977 4.4591 4.61977 5.02539V13.9994C-0.103313 18.7226 0.000182442 18.4776 0.000182442 19.0439V37.9746C0.000182442 38.5409 0.459284 39 1.02557 39H33.9742C34.5405 39 34.9996 38.5409 34.9996 37.9746C34.9996 37.8371 35.0019 19.032 34.9954 18.9559C34.9739 18.7053 34.8608 18.4804 34.6992 18.3188ZM32.3896 18.9094L30.3799 20.3324V16.8996L32.3896 18.9094ZM28.3292 6.05078V21.7843L21.2262 26.8134C19.1892 28.2556 16.43 28.2877 14.3632 26.8897C14.1018 26.7116 7.14605 21.9729 6.67055 21.649V6.05078H28.3292ZM4.61984 20.2518L2.626 18.8935L4.61984 16.8997V20.2518ZM32.9488 36.9492H2.05089V20.9831C2.44328 21.2505 11.1916 27.2105 11.621 27.5029L6.0156 33.1085C5.61515 33.5088 5.61515 34.1581 6.0156 34.5586C6.41605 34.959 7.06525 34.959 7.4657 34.5586L13.3486 28.6756C15.9494 30.3603 19.3872 30.4528 22.1289 28.6777L28.0096 34.5586C28.4099 34.9589 29.0592 34.9591 29.4597 34.5586C29.8601 34.1582 29.8601 33.5089 29.4597 33.1085L23.8324 27.481C24.1646 27.2458 32.5171 21.332 32.9488 21.0263V36.9492Z" fill="#FF7210"/>
<path d="M10.4292 10.8359H24.5684C25.1346 10.8359 25.5937 10.3768 25.5937 9.81055C25.5937 9.24426 25.1346 8.78516 24.5684 8.78516H10.4292C9.86291 8.78516 9.40381 9.24426 9.40381 9.81055C9.40381 10.3768 9.86291 10.8359 10.4292 10.8359Z" fill="#FF7210"/>
<path d="M10.4292 15.6211H24.5684C25.1346 15.6211 25.5937 15.162 25.5937 14.5957C25.5937 14.0294 25.1346 13.5703 24.5684 13.5703H10.4292C9.86291 13.5703 9.40381 14.0294 9.40381 14.5957C9.40381 15.162 9.86291 15.6211 10.4292 15.6211Z" fill="#FF7210"/>
<path d="M10.4292 20.4063H24.5684C25.1346 20.4063 25.5937 19.9471 25.5937 19.3809C25.5937 18.8146 25.1346 18.3555 24.5684 18.3555H10.4292C9.86291 18.3555 9.40381 18.8146 9.40381 19.3809C9.40381 19.9471 9.86291 20.4063 10.4292 20.4063Z" fill="#FF7210"/>
</svg>
