<svg width="205" height="24" viewBox="0 0 205 24" fill="none" xmlns="http://www.w3.org/2000/svg">
<path d="M41.2578 17V7.00586H43.377V17H41.2578ZM50.0693 9.21387C50.8851 9.21387 51.5413 9.43717 52.0381 9.88379C52.5348 10.3258 52.7832 11.0368 52.7832 12.0166V17H50.6982V12.5361C50.6982 11.9893 50.598 11.5768 50.3975 11.2988C50.2015 11.0208 49.8916 10.8818 49.4678 10.8818C48.8298 10.8818 48.3945 11.0983 48.1621 11.5312C47.9297 11.9642 47.8135 12.5885 47.8135 13.4043V17H45.7285V9.35742H47.3213L47.6016 10.335H47.7178C47.8818 10.0706 48.0846 9.85645 48.3262 9.69238C48.5723 9.52832 48.8434 9.40755 49.1396 9.33008C49.4404 9.2526 49.7503 9.21387 50.0693 9.21387ZM59.1543 10.9229H57.3496V17H55.2646V10.9229H54.1162V9.91797L55.2646 9.35742V8.79688C55.2646 8.14518 55.374 7.63932 55.5928 7.2793C55.8161 6.91471 56.1283 6.65951 56.5293 6.51367C56.9349 6.36328 57.4134 6.28809 57.9648 6.28809C58.3704 6.28809 58.7396 6.32227 59.0723 6.39062C59.4049 6.45443 59.6761 6.52734 59.8857 6.60938L59.3525 8.14062C59.193 8.09049 59.0199 8.04492 58.833 8.00391C58.6462 7.96289 58.432 7.94238 58.1904 7.94238C57.8988 7.94238 57.6846 8.03125 57.5479 8.20898C57.4157 8.38216 57.3496 8.60547 57.3496 8.87891V9.35742H59.1543V10.9229ZM67.3027 13.165C67.3027 13.8031 67.2161 14.3682 67.043 14.8604C66.8743 15.3525 66.626 15.7695 66.2979 16.1113C65.9743 16.4486 65.5824 16.7038 65.1221 16.877C64.6663 17.0501 64.1514 17.1367 63.5771 17.1367C63.0394 17.1367 62.5449 17.0501 62.0938 16.877C61.6471 16.7038 61.2575 16.4486 60.9248 16.1113C60.5967 15.7695 60.3415 15.3525 60.1592 14.8604C59.9814 14.3682 59.8926 13.8031 59.8926 13.165C59.8926 12.3174 60.043 11.5996 60.3438 11.0117C60.6445 10.4238 61.0729 9.97721 61.6289 9.67188C62.1849 9.36654 62.848 9.21387 63.6182 9.21387C64.3337 9.21387 64.9671 9.36654 65.5186 9.67188C66.0745 9.97721 66.5098 10.4238 66.8242 11.0117C67.1432 11.5996 67.3027 12.3174 67.3027 13.165ZM62.0186 13.165C62.0186 13.6663 62.0732 14.0879 62.1826 14.4297C62.292 14.7715 62.4629 15.029 62.6953 15.2021C62.9277 15.3753 63.2308 15.4619 63.6045 15.4619C63.9736 15.4619 64.2721 15.3753 64.5 15.2021C64.7324 15.029 64.901 14.7715 65.0059 14.4297C65.1152 14.0879 65.1699 13.6663 65.1699 13.165C65.1699 12.6592 65.1152 12.2399 65.0059 11.9072C64.901 11.57 64.7324 11.3171 64.5 11.1484C64.2676 10.9798 63.9645 10.8955 63.5908 10.8955C63.0394 10.8955 62.6383 11.0846 62.3877 11.4629C62.1416 11.8411 62.0186 12.4085 62.0186 13.165ZM71.1104 6.36328V8.83789C71.1104 9.125 71.1012 9.40983 71.083 9.69238C71.0693 9.97493 71.0511 10.1937 71.0283 10.3486H71.1104C71.3109 10.0342 71.5843 9.76758 71.9307 9.54883C72.277 9.32552 72.7259 9.21387 73.2773 9.21387C74.1341 9.21387 74.8291 9.54883 75.3623 10.2188C75.8955 10.8887 76.1621 11.8708 76.1621 13.165C76.1621 14.0355 76.0391 14.7669 75.793 15.3594C75.5469 15.9473 75.2028 16.3916 74.7607 16.6924C74.3187 16.9886 73.806 17.1367 73.2227 17.1367C72.6621 17.1367 72.2201 17.0365 71.8965 16.8359C71.5729 16.6354 71.3109 16.4098 71.1104 16.1592H70.9668L70.6182 17H69.0254V6.36328H71.1104ZM72.6074 10.8818C72.2428 10.8818 71.9535 10.957 71.7393 11.1074C71.5251 11.2578 71.3678 11.4834 71.2676 11.7842C71.1719 12.085 71.1195 12.4655 71.1104 12.9258V13.1514C71.1104 13.8942 71.2197 14.4639 71.4385 14.8604C71.6572 15.2523 72.056 15.4482 72.6348 15.4482C73.0632 15.4482 73.4027 15.25 73.6533 14.8535C73.9085 14.457 74.0361 13.8851 74.0361 13.1377C74.0361 12.3903 73.9085 11.8275 73.6533 11.4492C73.3981 11.071 73.0495 10.8818 72.6074 10.8818ZM79.9697 9.35742V17H77.8848V9.35742H79.9697ZM78.9307 6.36328C79.2406 6.36328 79.5072 6.4362 79.7305 6.58203C79.9538 6.72331 80.0654 6.98991 80.0654 7.38184C80.0654 7.76921 79.9538 8.03809 79.7305 8.18848C79.5072 8.33431 79.2406 8.40723 78.9307 8.40723C78.6162 8.40723 78.3473 8.33431 78.124 8.18848C77.9053 8.03809 77.7959 7.76921 77.7959 7.38184C77.7959 6.98991 77.9053 6.72331 78.124 6.58203C78.3473 6.4362 78.6162 6.36328 78.9307 6.36328ZM89.1094 13.165C89.1094 13.8031 89.0228 14.3682 88.8496 14.8604C88.681 15.3525 88.4326 15.7695 88.1045 16.1113C87.7809 16.4486 87.389 16.7038 86.9287 16.877C86.473 17.0501 85.958 17.1367 85.3838 17.1367C84.846 17.1367 84.3516 17.0501 83.9004 16.877C83.4538 16.7038 83.0641 16.4486 82.7314 16.1113C82.4033 15.7695 82.1481 15.3525 81.9658 14.8604C81.7881 14.3682 81.6992 13.8031 81.6992 13.165C81.6992 12.3174 81.8496 11.5996 82.1504 11.0117C82.4512 10.4238 82.8796 9.97721 83.4355 9.67188C83.9915 9.36654 84.6546 9.21387 85.4248 9.21387C86.1403 9.21387 86.7738 9.36654 87.3252 9.67188C87.8812 9.97721 88.3164 10.4238 88.6309 11.0117C88.9499 11.5996 89.1094 12.3174 89.1094 13.165ZM83.8252 13.165C83.8252 13.6663 83.8799 14.0879 83.9893 14.4297C84.0986 14.7715 84.2695 15.029 84.502 15.2021C84.7344 15.3753 85.0374 15.4619 85.4111 15.4619C85.7803 15.4619 86.0788 15.3753 86.3066 15.2021C86.5391 15.029 86.7077 14.7715 86.8125 14.4297C86.9219 14.0879 86.9766 13.6663 86.9766 13.165C86.9766 12.6592 86.9219 12.2399 86.8125 11.9072C86.7077 11.57 86.5391 11.3171 86.3066 11.1484C86.0742 10.9798 85.7712 10.8955 85.3975 10.8955C84.846 10.8955 84.445 11.0846 84.1943 11.4629C83.9482 11.8411 83.8252 12.4085 83.8252 13.165ZM92.6504 17L89.7383 9.35742H91.9189L93.3955 13.7119C93.4775 13.9671 93.5413 14.236 93.5869 14.5186C93.637 14.8011 93.6712 15.054 93.6895 15.2773H93.7441C93.7578 15.0358 93.7897 14.7783 93.8398 14.5049C93.8945 14.2314 93.9652 13.9671 94.0518 13.7119L95.5215 9.35742H97.7021L94.79 17H92.6504ZM101.954 9.21387C102.66 9.21387 103.269 9.35059 103.779 9.62402C104.29 9.8929 104.684 10.2848 104.962 10.7998C105.24 11.3148 105.379 11.9437 105.379 12.6865V13.6982H100.45C100.473 14.2861 100.648 14.7487 100.977 15.0859C101.309 15.4186 101.77 15.585 102.357 15.585C102.845 15.585 103.292 15.5348 103.697 15.4346C104.103 15.3343 104.52 15.1839 104.948 14.9834V16.5967C104.57 16.7835 104.174 16.9202 103.759 17.0068C103.349 17.0934 102.85 17.1367 102.262 17.1367C101.496 17.1367 100.817 16.9954 100.225 16.7129C99.6367 16.4303 99.1742 15.9997 98.8369 15.4209C98.5042 14.8421 98.3379 14.113 98.3379 13.2334C98.3379 12.3402 98.4883 11.5973 98.7891 11.0049C99.0944 10.4079 99.5182 9.96126 100.061 9.66504C100.603 9.36426 101.234 9.21387 101.954 9.21387ZM101.968 10.6973C101.562 10.6973 101.225 10.8271 100.956 11.0869C100.692 11.3467 100.539 11.7546 100.498 12.3105H103.424C103.419 12.0007 103.362 11.7249 103.253 11.4834C103.148 11.2419 102.989 11.0505 102.774 10.9092C102.565 10.7679 102.296 10.6973 101.968 10.6973ZM111.415 9.21387C112.231 9.21387 112.887 9.43717 113.384 9.88379C113.881 10.3258 114.129 11.0368 114.129 12.0166V17H112.044V12.5361C112.044 11.9893 111.944 11.5768 111.743 11.2988C111.547 11.0208 111.237 10.8818 110.813 10.8818C110.175 10.8818 109.74 11.0983 109.508 11.5312C109.275 11.9642 109.159 12.5885 109.159 13.4043V17H107.074V9.35742H108.667L108.947 10.335H109.063C109.228 10.0706 109.43 9.85645 109.672 9.69238C109.918 9.52832 110.189 9.40755 110.485 9.33008C110.786 9.2526 111.096 9.21387 111.415 9.21387ZM127.042 11.9893C127.042 12.4222 126.99 12.8506 126.885 13.2744C126.785 13.6937 126.63 14.0742 126.42 14.416C126.21 14.7533 125.946 15.0244 125.627 15.2295C125.312 15.43 124.939 15.5303 124.506 15.5303C124.164 15.5303 123.861 15.4482 123.597 15.2842C123.337 15.1201 123.155 14.9082 123.05 14.6484H122.94C122.749 14.8809 122.498 15.0859 122.188 15.2637C121.879 15.4414 121.503 15.5303 121.061 15.5303C120.227 15.5303 119.584 15.2819 119.133 14.7852C118.682 14.2839 118.456 13.6276 118.456 12.8164C118.456 12.1875 118.59 11.6338 118.859 11.1553C119.128 10.6722 119.511 10.2939 120.008 10.0205C120.505 9.74707 121.09 9.61035 121.765 9.61035C122.207 9.61035 122.66 9.65137 123.125 9.7334C123.594 9.81087 123.961 9.89518 124.226 9.98633L124.089 12.8574C124.08 12.9531 124.073 13.0488 124.068 13.1445C124.068 13.2402 124.068 13.3018 124.068 13.3291C124.068 13.7165 124.121 13.974 124.226 14.1016C124.335 14.2246 124.456 14.2861 124.588 14.2861C124.798 14.2861 124.973 14.1813 125.114 13.9717C125.256 13.762 125.363 13.4818 125.436 13.1309C125.508 12.7799 125.545 12.3949 125.545 11.9756C125.545 11.1963 125.385 10.5332 125.066 9.98633C124.752 9.4349 124.319 9.01562 123.768 8.72852C123.221 8.43685 122.599 8.29102 121.901 8.29102C121.168 8.29102 120.521 8.40723 119.96 8.63965C119.399 8.87207 118.928 9.19792 118.545 9.61719C118.167 10.0365 117.88 10.5309 117.684 11.1006C117.492 11.6702 117.396 12.2923 117.396 12.9668C117.396 13.8053 117.547 14.5163 117.848 15.0996C118.148 15.6829 118.59 16.125 119.174 16.4258C119.762 16.7266 120.479 16.877 121.327 16.877C121.869 16.877 122.432 16.8177 123.016 16.6992C123.604 16.5762 124.141 16.4235 124.629 16.2412V17.5605C124.182 17.7474 123.683 17.8955 123.132 18.0049C122.58 18.1188 121.997 18.1758 121.382 18.1758C120.224 18.1758 119.235 17.9707 118.415 17.5605C117.595 17.1504 116.966 16.5602 116.528 15.79C116.095 15.0153 115.879 14.0879 115.879 13.0078C115.879 12.1602 116.018 11.374 116.296 10.6494C116.578 9.92025 116.982 9.28451 117.506 8.74219C118.03 8.19531 118.661 7.76921 119.399 7.46387C120.142 7.15853 120.972 7.00586 121.888 7.00586C122.886 7.00586 123.772 7.20866 124.547 7.61426C125.326 8.0153 125.937 8.58724 126.379 9.33008C126.821 10.0729 127.042 10.9593 127.042 11.9893ZM120.042 12.8438C120.042 13.3542 120.147 13.7233 120.356 13.9512C120.571 14.1745 120.858 14.2861 121.218 14.2861C121.687 14.2861 122.018 14.1152 122.209 13.7734C122.4 13.4316 122.512 12.985 122.544 12.4336L122.633 10.9229C122.528 10.9001 122.41 10.8841 122.277 10.875C122.145 10.8613 122.002 10.8545 121.847 10.8545C121.405 10.8545 121.051 10.9525 120.787 11.1484C120.523 11.3398 120.331 11.5882 120.213 11.8936C120.099 12.1943 120.042 12.5111 120.042 12.8438ZM132.798 11.3877H136.763V16.5693C136.239 16.7425 135.694 16.8815 135.129 16.9863C134.564 17.0866 133.924 17.1367 133.208 17.1367C132.215 17.1367 131.371 16.9408 130.679 16.5488C129.986 16.1569 129.46 15.5781 129.1 14.8125C128.74 14.0469 128.56 13.1058 128.56 11.9893C128.56 10.9411 128.76 10.0342 129.161 9.26855C129.567 8.50293 130.157 7.91048 130.932 7.49121C131.711 7.07194 132.661 6.8623 133.782 6.8623C134.311 6.8623 134.833 6.91927 135.348 7.0332C135.863 7.14714 136.33 7.29525 136.749 7.47754L136.045 9.17285C135.74 9.0179 135.391 8.88802 134.999 8.7832C134.607 8.67839 134.197 8.62598 133.769 8.62598C133.153 8.62598 132.618 8.76725 132.162 9.0498C131.711 9.33236 131.36 9.72884 131.109 10.2393C130.863 10.7451 130.74 11.3421 130.74 12.0303C130.74 12.682 130.829 13.2607 131.007 13.7666C131.185 14.2679 131.465 14.6621 131.848 14.9492C132.23 15.2318 132.729 15.373 133.345 15.373C133.646 15.373 133.898 15.3594 134.104 15.332C134.313 15.3001 134.509 15.2682 134.691 15.2363V13.1514H132.798V11.3877ZM147.96 9.21387C148.826 9.21387 149.48 9.43717 149.922 9.88379C150.368 10.3258 150.592 11.0368 150.592 12.0166V17H148.5V12.5361C148.5 11.9893 148.407 11.5768 148.22 11.2988C148.033 11.0208 147.743 10.8818 147.352 10.8818C146.8 10.8818 146.408 11.0801 146.176 11.4766C145.943 11.8685 145.827 12.4313 145.827 13.165V17H143.742V12.5361C143.742 12.1715 143.701 11.8662 143.619 11.6201C143.537 11.374 143.412 11.1895 143.243 11.0664C143.075 10.9434 142.858 10.8818 142.594 10.8818C142.206 10.8818 141.901 10.9798 141.678 11.1758C141.459 11.3672 141.302 11.652 141.206 12.0303C141.115 12.404 141.069 12.862 141.069 13.4043V17H138.984V9.35742H140.577L140.857 10.335H140.974C141.129 10.0706 141.322 9.85645 141.555 9.69238C141.792 9.52832 142.051 9.40755 142.334 9.33008C142.617 9.2526 142.904 9.21387 143.195 9.21387C143.756 9.21387 144.23 9.30501 144.617 9.4873C145.009 9.6696 145.31 9.95215 145.52 10.335H145.704C145.932 9.94303 146.253 9.6582 146.668 9.48047C147.087 9.30273 147.518 9.21387 147.96 9.21387ZM155.869 9.2002C156.895 9.2002 157.681 9.4235 158.228 9.87012C158.774 10.3167 159.048 10.9958 159.048 11.9072V17H157.592L157.188 15.9609H157.134C156.915 16.2344 156.692 16.4577 156.464 16.6309C156.236 16.804 155.974 16.9316 155.678 17.0137C155.382 17.0957 155.021 17.1367 154.598 17.1367C154.146 17.1367 153.741 17.0501 153.381 16.877C153.025 16.7038 152.745 16.4395 152.54 16.084C152.335 15.724 152.232 15.2682 152.232 14.7168C152.232 13.9056 152.517 13.3086 153.087 12.9258C153.657 12.5384 154.511 12.3242 155.65 12.2832L156.977 12.2422V11.9072C156.977 11.5062 156.872 11.2122 156.662 11.0254C156.452 10.8385 156.161 10.7451 155.787 10.7451C155.418 10.7451 155.056 10.7975 154.7 10.9023C154.345 11.0072 153.989 11.1393 153.634 11.2988L152.943 9.89062C153.349 9.67643 153.802 9.50781 154.304 9.38477C154.81 9.26172 155.331 9.2002 155.869 9.2002ZM156.977 13.459L156.17 13.4863C155.495 13.5046 155.026 13.6253 154.762 13.8486C154.502 14.0719 154.372 14.3659 154.372 14.7305C154.372 15.0495 154.465 15.2773 154.652 15.4141C154.839 15.5462 155.083 15.6123 155.384 15.6123C155.83 15.6123 156.206 15.4801 156.512 15.2158C156.822 14.9515 156.977 14.5755 156.977 14.0879V13.459ZM163.286 9.35742V17H161.201V9.35742H163.286ZM162.247 6.36328C162.557 6.36328 162.824 6.4362 163.047 6.58203C163.27 6.72331 163.382 6.98991 163.382 7.38184C163.382 7.76921 163.27 8.03809 163.047 8.18848C162.824 8.33431 162.557 8.40723 162.247 8.40723C161.933 8.40723 161.664 8.33431 161.44 8.18848C161.222 8.03809 161.112 7.76921 161.112 7.38184C161.112 6.98991 161.222 6.72331 161.44 6.58203C161.664 6.4362 161.933 6.36328 162.247 6.36328ZM167.565 17H165.48V6.36328H167.565V17ZM169.466 16.0225C169.466 15.5941 169.582 15.2933 169.814 15.1201C170.051 14.9469 170.336 14.8604 170.669 14.8604C170.993 14.8604 171.271 14.9469 171.503 15.1201C171.74 15.2933 171.858 15.5941 171.858 16.0225C171.858 16.4326 171.74 16.7288 171.503 16.9111C171.271 17.0934 170.993 17.1846 170.669 17.1846C170.336 17.1846 170.051 17.0934 169.814 16.9111C169.582 16.7288 169.466 16.4326 169.466 16.0225ZM178.161 8.62598C177.756 8.62598 177.396 8.70573 177.081 8.86523C176.771 9.02018 176.509 9.24577 176.295 9.54199C176.085 9.83822 175.926 10.196 175.816 10.6152C175.707 11.0345 175.652 11.5062 175.652 12.0303C175.652 12.7367 175.739 13.3405 175.912 13.8418C176.09 14.3385 176.363 14.7191 176.732 14.9834C177.102 15.2432 177.578 15.373 178.161 15.373C178.567 15.373 178.972 15.3275 179.378 15.2363C179.788 15.1452 180.232 15.0153 180.711 14.8467V16.624C180.269 16.8063 179.834 16.9362 179.405 17.0137C178.977 17.0957 178.496 17.1367 177.963 17.1367C176.933 17.1367 176.085 16.9248 175.42 16.501C174.759 16.0726 174.269 15.4756 173.95 14.71C173.631 13.9398 173.472 13.042 173.472 12.0166C173.472 11.2601 173.574 10.5674 173.779 9.93848C173.984 9.30957 174.285 8.76497 174.682 8.30469C175.078 7.8444 175.568 7.48893 176.151 7.23828C176.735 6.98763 177.405 6.8623 178.161 6.8623C178.658 6.8623 179.155 6.92611 179.651 7.05371C180.153 7.17676 180.631 7.34766 181.087 7.56641L180.403 9.28906C180.03 9.11133 179.654 8.95638 179.275 8.82422C178.897 8.69206 178.526 8.62598 178.161 8.62598ZM189.625 13.165C189.625 13.8031 189.538 14.3682 189.365 14.8604C189.197 15.3525 188.948 15.7695 188.62 16.1113C188.297 16.4486 187.905 16.7038 187.444 16.877C186.989 17.0501 186.474 17.1367 185.899 17.1367C185.362 17.1367 184.867 17.0501 184.416 16.877C183.969 16.7038 183.58 16.4486 183.247 16.1113C182.919 15.7695 182.664 15.3525 182.481 14.8604C182.304 14.3682 182.215 13.8031 182.215 13.165C182.215 12.3174 182.365 11.5996 182.666 11.0117C182.967 10.4238 183.395 9.97721 183.951 9.67188C184.507 9.36654 185.17 9.21387 185.94 9.21387C186.656 9.21387 187.289 9.36654 187.841 9.67188C188.397 9.97721 188.832 10.4238 189.146 11.0117C189.465 11.5996 189.625 12.3174 189.625 13.165ZM184.341 13.165C184.341 13.6663 184.396 14.0879 184.505 14.4297C184.614 14.7715 184.785 15.029 185.018 15.2021C185.25 15.3753 185.553 15.4619 185.927 15.4619C186.296 15.4619 186.594 15.3753 186.822 15.2021C187.055 15.029 187.223 14.7715 187.328 14.4297C187.438 14.0879 187.492 13.6663 187.492 13.165C187.492 12.6592 187.438 12.2399 187.328 11.9072C187.223 11.57 187.055 11.3171 186.822 11.1484C186.59 10.9798 186.287 10.8955 185.913 10.8955C185.362 10.8955 184.961 11.0846 184.71 11.4629C184.464 11.8411 184.341 12.4085 184.341 13.165ZM200.323 9.21387C201.189 9.21387 201.843 9.43717 202.285 9.88379C202.732 10.3258 202.955 11.0368 202.955 12.0166V17H200.863V12.5361C200.863 11.9893 200.77 11.5768 200.583 11.2988C200.396 11.0208 200.107 10.8818 199.715 10.8818C199.163 10.8818 198.771 11.0801 198.539 11.4766C198.307 11.8685 198.19 12.4313 198.19 13.165V17H196.105V12.5361C196.105 12.1715 196.064 11.8662 195.982 11.6201C195.9 11.374 195.775 11.1895 195.606 11.0664C195.438 10.9434 195.221 10.8818 194.957 10.8818C194.57 10.8818 194.264 10.9798 194.041 11.1758C193.822 11.3672 193.665 11.652 193.569 12.0303C193.478 12.404 193.433 12.862 193.433 13.4043V17H191.348V9.35742H192.94L193.221 10.335H193.337C193.492 10.0706 193.686 9.85645 193.918 9.69238C194.155 9.52832 194.415 9.40755 194.697 9.33008C194.98 9.2526 195.267 9.21387 195.559 9.21387C196.119 9.21387 196.593 9.30501 196.98 9.4873C197.372 9.6696 197.673 9.95215 197.883 10.335H198.067C198.295 9.94303 198.617 9.6582 199.031 9.48047C199.451 9.30273 199.881 9.21387 200.323 9.21387Z" fill="#0A0A0B"/>
<path d="M19.2857 6H0.714299C0.319796 6 0 6.3198 0 6.71426V19.5714C0 19.9659 0.319796 20.2857 0.714299 20.2857H19.2857C19.6802 20.2857 20 19.9659 20 19.5714V6.71426C20 6.3198 19.6802 6 19.2857 6ZM18.1143 7.42856L9.99998 13.67L1.88571 7.42856H18.1143ZM18.5714 18.8571H1.42856V8.87925L9.565 15.1378C9.82156 15.3348 10.1784 15.3348 10.435 15.1378L18.5714 8.87925V18.8571Z" fill="#FE8C12"/>
</svg>
