<svg width="236" height="48" viewBox="0 0 236 48" fill="none" xmlns="http://www.w3.org/2000/svg">
<path d="M37.2578 7.00586H40.3682C41.6989 7.00586 42.7061 7.19271 43.3896 7.56641C44.0732 7.9401 44.415 8.59635 44.415 9.53516C44.415 9.91341 44.3535 10.2552 44.2305 10.5605C44.112 10.8659 43.9388 11.1165 43.7109 11.3125C43.4831 11.5085 43.2051 11.6361 42.877 11.6953V11.7637C43.2096 11.832 43.5104 11.9505 43.7793 12.1191C44.0482 12.2832 44.2624 12.5247 44.4219 12.8438C44.5859 13.1582 44.668 13.5775 44.668 14.1016C44.668 14.7077 44.5199 15.2272 44.2236 15.6602C43.9274 16.0931 43.5036 16.4258 42.9521 16.6582C42.4053 16.8861 41.7536 17 40.9971 17H37.2578V7.00586ZM39.377 10.9639H40.6074C41.2227 10.9639 41.6488 10.8682 41.8857 10.6768C42.1227 10.4808 42.2412 10.1937 42.2412 9.81543C42.2412 9.43262 42.0999 9.15918 41.8174 8.99512C41.5394 8.8265 41.0973 8.74219 40.4912 8.74219H39.377V10.9639ZM39.377 12.6455V15.25H40.7578C41.3958 15.25 41.8402 15.127 42.0908 14.8809C42.3415 14.6348 42.4668 14.3044 42.4668 13.8896C42.4668 13.6436 42.4121 13.4271 42.3027 13.2402C42.1934 13.0534 42.0088 12.9076 41.749 12.8027C41.4938 12.6979 41.1406 12.6455 40.6895 12.6455H39.377ZM48.585 9.35742V17H46.5V9.35742H48.585ZM47.5459 6.36328C47.8558 6.36328 48.1224 6.4362 48.3457 6.58203C48.569 6.72331 48.6807 6.98991 48.6807 7.38184C48.6807 7.76921 48.569 8.03809 48.3457 8.18848C48.1224 8.33431 47.8558 8.40723 47.5459 8.40723C47.2314 8.40723 46.9626 8.33431 46.7393 8.18848C46.5205 8.03809 46.4111 7.76921 46.4111 7.38184C46.4111 6.98991 46.5205 6.72331 46.7393 6.58203C46.9626 6.4362 47.2314 6.36328 47.5459 6.36328ZM55.0449 9.21387C55.1497 9.21387 55.2705 9.2207 55.4072 9.23438C55.5485 9.24349 55.6624 9.25716 55.749 9.27539L55.5918 11.2305C55.5234 11.2077 55.4255 11.1917 55.2979 11.1826C55.1748 11.1689 55.0677 11.1621 54.9766 11.1621C54.7077 11.1621 54.4456 11.1963 54.1904 11.2646C53.9398 11.333 53.7142 11.4447 53.5137 11.5996C53.3132 11.75 53.1536 11.9505 53.0352 12.2012C52.9212 12.4473 52.8643 12.7503 52.8643 13.1104V17H50.7793V9.35742H52.3584L52.666 10.6426H52.7686C52.9189 10.3828 53.1058 10.1458 53.3291 9.93164C53.557 9.71289 53.8145 9.53971 54.1016 9.41211C54.3932 9.27995 54.7077 9.21387 55.0449 9.21387ZM59.2217 6.36328V11.1211C59.2217 11.4082 59.2103 11.6953 59.1875 11.9824C59.1647 12.2695 59.1396 12.5566 59.1123 12.8438H59.1396C59.2809 12.6432 59.4245 12.445 59.5703 12.249C59.7207 12.0531 59.8802 11.8639 60.0488 11.6816L62.1885 9.35742H64.54L61.5049 12.6729L64.7246 17H62.3184L60.1172 13.9033L59.2217 14.6211V17H57.1367V6.36328H59.2217ZM67.9033 6.36328V8.83789C67.9033 9.125 67.8942 9.40983 67.876 9.69238C67.8623 9.97493 67.8441 10.1937 67.8213 10.3486H67.9033C68.1038 10.0342 68.3773 9.76758 68.7236 9.54883C69.07 9.32552 69.5189 9.21387 70.0703 9.21387C70.9271 9.21387 71.6221 9.54883 72.1553 10.2188C72.6885 10.8887 72.9551 11.8708 72.9551 13.165C72.9551 14.0355 72.832 14.7669 72.5859 15.3594C72.3398 15.9473 71.9958 16.3916 71.5537 16.6924C71.1117 16.9886 70.599 17.1367 70.0156 17.1367C69.4551 17.1367 69.013 17.0365 68.6895 16.8359C68.3659 16.6354 68.1038 16.4098 67.9033 16.1592H67.7598L67.4111 17H65.8184V6.36328H67.9033ZM69.4004 10.8818C69.0358 10.8818 68.7464 10.957 68.5322 11.1074C68.318 11.2578 68.1608 11.4834 68.0605 11.7842C67.9648 12.085 67.9124 12.4655 67.9033 12.9258V13.1514C67.9033 13.8942 68.0127 14.4639 68.2314 14.8604C68.4502 15.2523 68.849 15.4482 69.4277 15.4482C69.8561 15.4482 70.1956 15.25 70.4463 14.8535C70.7015 14.457 70.8291 13.8851 70.8291 13.1377C70.8291 12.3903 70.7015 11.8275 70.4463 11.4492C70.1911 11.071 69.8424 10.8818 69.4004 10.8818ZM77.8291 9.21387C78.5355 9.21387 79.1439 9.35059 79.6543 9.62402C80.1647 9.8929 80.5589 10.2848 80.8369 10.7998C81.1149 11.3148 81.2539 11.9437 81.2539 12.6865V13.6982H76.3252C76.348 14.2861 76.5234 14.7487 76.8516 15.0859C77.1842 15.4186 77.6445 15.585 78.2324 15.585C78.7201 15.585 79.1667 15.5348 79.5723 15.4346C79.9779 15.3343 80.3949 15.1839 80.8232 14.9834V16.5967C80.445 16.7835 80.0485 16.9202 79.6338 17.0068C79.2236 17.0934 78.7246 17.1367 78.1367 17.1367C77.3711 17.1367 76.6921 16.9954 76.0996 16.7129C75.5117 16.4303 75.0492 15.9997 74.7119 15.4209C74.3792 14.8421 74.2129 14.113 74.2129 13.2334C74.2129 12.3402 74.3633 11.5973 74.6641 11.0049C74.9694 10.4079 75.3932 9.96126 75.9355 9.66504C76.4779 9.36426 77.109 9.21387 77.8291 9.21387ZM77.8428 10.6973C77.4372 10.6973 77.0999 10.8271 76.8311 11.0869C76.5667 11.3467 76.4141 11.7546 76.373 12.3105H79.2988C79.2943 12.0007 79.2373 11.7249 79.1279 11.4834C79.0231 11.2419 78.8636 11.0505 78.6494 10.9092C78.4398 10.7679 78.1709 10.6973 77.8428 10.6973ZM86.0527 17.1367C85.2962 17.1367 84.6514 17 84.1182 16.7266C83.585 16.4486 83.1794 16.0202 82.9014 15.4414C82.6234 14.8626 82.4844 14.1221 82.4844 13.2197C82.4844 12.2855 82.6416 11.5244 82.9561 10.9365C83.2751 10.3441 83.7148 9.90885 84.2754 9.63086C84.8405 9.35286 85.4945 9.21387 86.2373 9.21387C86.766 9.21387 87.2217 9.26628 87.6045 9.37109C87.9919 9.47135 88.3291 9.59212 88.6162 9.7334L88.001 11.3467C87.6729 11.2145 87.3675 11.1074 87.085 11.0254C86.8024 10.9388 86.5199 10.8955 86.2373 10.8955C85.8727 10.8955 85.5697 10.9821 85.3281 11.1553C85.0866 11.3239 84.9066 11.5791 84.7881 11.9209C84.6696 12.2627 84.6104 12.6911 84.6104 13.2061C84.6104 13.7119 84.6742 14.1312 84.8018 14.4639C84.9294 14.7965 85.1139 15.0449 85.3555 15.209C85.597 15.3685 85.891 15.4482 86.2373 15.4482C86.6702 15.4482 87.0553 15.3913 87.3926 15.2773C87.7298 15.1589 88.0579 14.9948 88.377 14.7852V16.5693C88.0579 16.7699 87.723 16.9134 87.3721 17C87.0257 17.0911 86.5859 17.1367 86.0527 17.1367ZM92.2393 6.36328V11.1211C92.2393 11.4082 92.2279 11.6953 92.2051 11.9824C92.1823 12.2695 92.1572 12.5566 92.1299 12.8438H92.1572C92.2985 12.6432 92.4421 12.445 92.5879 12.249C92.7383 12.0531 92.8978 11.8639 93.0664 11.6816L95.2061 9.35742H97.5576L94.5225 12.6729L97.7422 17H95.3359L93.1348 13.9033L92.2393 14.6211V17H90.1543V6.36328H92.2393ZM106.882 8.62598C106.476 8.62598 106.116 8.70573 105.802 8.86523C105.492 9.02018 105.23 9.24577 105.016 9.54199C104.806 9.83822 104.646 10.196 104.537 10.6152C104.428 11.0345 104.373 11.5062 104.373 12.0303C104.373 12.7367 104.46 13.3405 104.633 13.8418C104.811 14.3385 105.084 14.7191 105.453 14.9834C105.822 15.2432 106.299 15.373 106.882 15.373C107.287 15.373 107.693 15.3275 108.099 15.2363C108.509 15.1452 108.953 15.0153 109.432 14.8467V16.624C108.99 16.8063 108.554 16.9362 108.126 17.0137C107.698 17.0957 107.217 17.1367 106.684 17.1367C105.654 17.1367 104.806 16.9248 104.141 16.501C103.48 16.0726 102.99 15.4756 102.671 14.71C102.352 13.9398 102.192 13.042 102.192 12.0166C102.192 11.2601 102.295 10.5674 102.5 9.93848C102.705 9.30957 103.006 8.76497 103.402 8.30469C103.799 7.8444 104.289 7.48893 104.872 7.23828C105.455 6.98763 106.125 6.8623 106.882 6.8623C107.379 6.8623 107.875 6.92611 108.372 7.05371C108.873 7.17676 109.352 7.34766 109.808 7.56641L109.124 9.28906C108.75 9.11133 108.374 8.95638 107.996 8.82422C107.618 8.69206 107.246 8.62598 106.882 8.62598ZM118.346 13.165C118.346 13.8031 118.259 14.3682 118.086 14.8604C117.917 15.3525 117.669 15.7695 117.341 16.1113C117.017 16.4486 116.625 16.7038 116.165 16.877C115.709 17.0501 115.194 17.1367 114.62 17.1367C114.082 17.1367 113.588 17.0501 113.137 16.877C112.69 16.7038 112.3 16.4486 111.968 16.1113C111.64 15.7695 111.384 15.3525 111.202 14.8604C111.024 14.3682 110.936 13.8031 110.936 13.165C110.936 12.3174 111.086 11.5996 111.387 11.0117C111.688 10.4238 112.116 9.97721 112.672 9.67188C113.228 9.36654 113.891 9.21387 114.661 9.21387C115.377 9.21387 116.01 9.36654 116.562 9.67188C117.118 9.97721 117.553 10.4238 117.867 11.0117C118.186 11.5996 118.346 12.3174 118.346 13.165ZM113.062 13.165C113.062 13.6663 113.116 14.0879 113.226 14.4297C113.335 14.7715 113.506 15.029 113.738 15.2021C113.971 15.3753 114.274 15.4619 114.647 15.4619C115.017 15.4619 115.315 15.3753 115.543 15.2021C115.775 15.029 115.944 14.7715 116.049 14.4297C116.158 14.0879 116.213 13.6663 116.213 13.165C116.213 12.6592 116.158 12.2399 116.049 11.9072C115.944 11.57 115.775 11.3171 115.543 11.1484C115.311 10.9798 115.007 10.8955 114.634 10.8955C114.082 10.8955 113.681 11.0846 113.431 11.4629C113.185 11.8411 113.062 12.4085 113.062 13.165ZM127.082 9.35742V17H125.482L125.202 16.0225H125.093C124.929 16.2822 124.724 16.4941 124.478 16.6582C124.231 16.8223 123.96 16.943 123.664 17.0205C123.368 17.098 123.06 17.1367 122.741 17.1367C122.194 17.1367 121.718 17.041 121.312 16.8496C120.907 16.6536 120.59 16.3506 120.362 15.9404C120.139 15.5303 120.027 14.9971 120.027 14.3408V9.35742H122.112V13.8213C122.112 14.3682 122.21 14.7806 122.406 15.0586C122.602 15.3366 122.914 15.4756 123.343 15.4756C123.767 15.4756 124.099 15.3799 124.341 15.1885C124.582 14.9925 124.751 14.7077 124.847 14.334C124.947 13.9557 124.997 13.4954 124.997 12.9531V9.35742H127.082ZM133.535 9.21387C133.64 9.21387 133.761 9.2207 133.897 9.23438C134.039 9.24349 134.153 9.25716 134.239 9.27539L134.082 11.2305C134.014 11.2077 133.916 11.1917 133.788 11.1826C133.665 11.1689 133.558 11.1621 133.467 11.1621C133.198 11.1621 132.936 11.1963 132.681 11.2646C132.43 11.333 132.204 11.4447 132.004 11.5996C131.803 11.75 131.644 11.9505 131.525 12.2012C131.411 12.4473 131.354 12.7503 131.354 13.1104V17H129.27V9.35742H130.849L131.156 10.6426H131.259C131.409 10.3828 131.596 10.1458 131.819 9.93164C132.047 9.71289 132.305 9.53971 132.592 9.41211C132.883 9.27995 133.198 9.21387 133.535 9.21387ZM138.847 15.4756C139.075 15.4756 139.296 15.4528 139.51 15.4072C139.729 15.3617 139.945 15.3047 140.159 15.2363V16.7881C139.936 16.8883 139.658 16.9704 139.325 17.0342C138.997 17.1025 138.637 17.1367 138.245 17.1367C137.789 17.1367 137.379 17.0638 137.015 16.918C136.655 16.7676 136.37 16.5101 136.16 16.1455C135.955 15.7764 135.853 15.2637 135.853 14.6074V10.9229H134.854V10.041L136.003 9.34375L136.604 7.73047H137.938V9.35742H140.077V10.9229H137.938V14.6074C137.938 14.8991 138.02 15.1178 138.184 15.2637C138.352 15.4049 138.573 15.4756 138.847 15.4756ZM143.652 15.373L143.755 15.5303C143.673 15.8584 143.566 16.2116 143.434 16.5898C143.306 16.9681 143.165 17.3464 143.01 17.7246C142.859 18.1029 142.707 18.4629 142.552 18.8047H141.048C141.139 18.4355 141.228 18.0482 141.314 17.6426C141.401 17.237 141.481 16.8382 141.554 16.4463C141.631 16.0544 141.693 15.6966 141.738 15.373H143.652ZM149.504 7.00586H152.614C153.945 7.00586 154.952 7.19271 155.636 7.56641C156.319 7.9401 156.661 8.59635 156.661 9.53516C156.661 9.91341 156.6 10.2552 156.477 10.5605C156.358 10.8659 156.185 11.1165 155.957 11.3125C155.729 11.5085 155.451 11.6361 155.123 11.6953V11.7637C155.456 11.832 155.757 11.9505 156.025 12.1191C156.294 12.2832 156.508 12.5247 156.668 12.8438C156.832 13.1582 156.914 13.5775 156.914 14.1016C156.914 14.7077 156.766 15.2272 156.47 15.6602C156.174 16.0931 155.75 16.4258 155.198 16.6582C154.651 16.8861 154 17 153.243 17H149.504V7.00586ZM151.623 10.9639H152.854C153.469 10.9639 153.895 10.8682 154.132 10.6768C154.369 10.4808 154.487 10.1937 154.487 9.81543C154.487 9.43262 154.346 9.15918 154.063 8.99512C153.785 8.8265 153.343 8.74219 152.737 8.74219H151.623V10.9639ZM151.623 12.6455V15.25H153.004C153.642 15.25 154.086 15.127 154.337 14.8809C154.588 14.6348 154.713 14.3044 154.713 13.8896C154.713 13.6436 154.658 13.4271 154.549 13.2402C154.439 13.0534 154.255 12.9076 153.995 12.8027C153.74 12.6979 153.387 12.6455 152.936 12.6455H151.623ZM160.831 9.35742V17H158.746V9.35742H160.831ZM159.792 6.36328C160.102 6.36328 160.368 6.4362 160.592 6.58203C160.815 6.72331 160.927 6.98991 160.927 7.38184C160.927 7.76921 160.815 8.03809 160.592 8.18848C160.368 8.33431 160.102 8.40723 159.792 8.40723C159.478 8.40723 159.209 8.33431 158.985 8.18848C158.767 8.03809 158.657 7.76921 158.657 7.38184C158.657 6.98991 158.767 6.72331 158.985 6.58203C159.209 6.4362 159.478 6.36328 159.792 6.36328ZM167.291 9.21387C167.396 9.21387 167.517 9.2207 167.653 9.23438C167.795 9.24349 167.909 9.25716 167.995 9.27539L167.838 11.2305C167.77 11.2077 167.672 11.1917 167.544 11.1826C167.421 11.1689 167.314 11.1621 167.223 11.1621C166.954 11.1621 166.692 11.1963 166.437 11.2646C166.186 11.333 165.96 11.4447 165.76 11.5996C165.559 11.75 165.4 11.9505 165.281 12.2012C165.167 12.4473 165.11 12.7503 165.11 13.1104V17H163.025V9.35742H164.604L164.912 10.6426H165.015C165.165 10.3828 165.352 10.1458 165.575 9.93164C165.803 9.71289 166.061 9.53971 166.348 9.41211C166.639 9.27995 166.954 9.21387 167.291 9.21387ZM171.468 6.36328V11.1211C171.468 11.4082 171.456 11.6953 171.434 11.9824C171.411 12.2695 171.386 12.5566 171.358 12.8438H171.386C171.527 12.6432 171.671 12.445 171.816 12.249C171.967 12.0531 172.126 11.8639 172.295 11.6816L174.435 9.35742H176.786L173.751 12.6729L176.971 17H174.564L172.363 13.9033L171.468 14.6211V17H169.383V6.36328H171.468ZM180.149 6.36328V8.83789C180.149 9.125 180.14 9.40983 180.122 9.69238C180.108 9.97493 180.09 10.1937 180.067 10.3486H180.149C180.35 10.0342 180.623 9.76758 180.97 9.54883C181.316 9.32552 181.765 9.21387 182.316 9.21387C183.173 9.21387 183.868 9.54883 184.401 10.2188C184.935 10.8887 185.201 11.8708 185.201 13.165C185.201 14.0355 185.078 14.7669 184.832 15.3594C184.586 15.9473 184.242 16.3916 183.8 16.6924C183.358 16.9886 182.845 17.1367 182.262 17.1367C181.701 17.1367 181.259 17.0365 180.936 16.8359C180.612 16.6354 180.35 16.4098 180.149 16.1592H180.006L179.657 17H178.064V6.36328H180.149ZM181.646 10.8818C181.282 10.8818 180.993 10.957 180.778 11.1074C180.564 11.2578 180.407 11.4834 180.307 11.7842C180.211 12.085 180.159 12.4655 180.149 12.9258V13.1514C180.149 13.8942 180.259 14.4639 180.478 14.8604C180.696 15.2523 181.095 15.4482 181.674 15.4482C182.102 15.4482 182.442 15.25 182.692 14.8535C182.948 14.457 183.075 13.8851 183.075 13.1377C183.075 12.3903 182.948 11.8275 182.692 11.4492C182.437 11.071 182.089 10.8818 181.646 10.8818ZM190.075 9.21387C190.782 9.21387 191.39 9.35059 191.9 9.62402C192.411 9.8929 192.805 10.2848 193.083 10.7998C193.361 11.3148 193.5 11.9437 193.5 12.6865V13.6982H188.571C188.594 14.2861 188.77 14.7487 189.098 15.0859C189.43 15.4186 189.891 15.585 190.479 15.585C190.966 15.585 191.413 15.5348 191.818 15.4346C192.224 15.3343 192.641 15.1839 193.069 14.9834V16.5967C192.691 16.7835 192.295 16.9202 191.88 17.0068C191.47 17.0934 190.971 17.1367 190.383 17.1367C189.617 17.1367 188.938 16.9954 188.346 16.7129C187.758 16.4303 187.295 15.9997 186.958 15.4209C186.625 14.8421 186.459 14.113 186.459 13.2334C186.459 12.3402 186.609 11.5973 186.91 11.0049C187.215 10.4079 187.639 9.96126 188.182 9.66504C188.724 9.36426 189.355 9.21387 190.075 9.21387ZM190.089 10.6973C189.683 10.6973 189.346 10.8271 189.077 11.0869C188.813 11.3467 188.66 11.7546 188.619 12.3105H191.545C191.54 12.0007 191.483 11.7249 191.374 11.4834C191.269 11.2419 191.11 11.0505 190.896 10.9092C190.686 10.7679 190.417 10.6973 190.089 10.6973ZM198.299 17.1367C197.542 17.1367 196.897 17 196.364 16.7266C195.831 16.4486 195.425 16.0202 195.147 15.4414C194.869 14.8626 194.73 14.1221 194.73 13.2197C194.73 12.2855 194.888 11.5244 195.202 10.9365C195.521 10.3441 195.961 9.90885 196.521 9.63086C197.087 9.35286 197.741 9.21387 198.483 9.21387C199.012 9.21387 199.468 9.26628 199.851 9.37109C200.238 9.47135 200.575 9.59212 200.862 9.7334L200.247 11.3467C199.919 11.2145 199.614 11.1074 199.331 11.0254C199.049 10.9388 198.766 10.8955 198.483 10.8955C198.119 10.8955 197.816 10.9821 197.574 11.1553C197.333 11.3239 197.153 11.5791 197.034 11.9209C196.916 12.2627 196.856 12.6911 196.856 13.2061C196.856 13.7119 196.92 14.1312 197.048 14.4639C197.175 14.7965 197.36 15.0449 197.602 15.209C197.843 15.3685 198.137 15.4482 198.483 15.4482C198.916 15.4482 199.301 15.3913 199.639 15.2773C199.976 15.1589 200.304 14.9948 200.623 14.7852V16.5693C200.304 16.7699 199.969 16.9134 199.618 17C199.272 17.0911 198.832 17.1367 198.299 17.1367ZM204.485 6.36328V11.1211C204.485 11.4082 204.474 11.6953 204.451 11.9824C204.428 12.2695 204.403 12.5566 204.376 12.8438H204.403C204.545 12.6432 204.688 12.445 204.834 12.249C204.984 12.0531 205.144 11.8639 205.312 11.6816L207.452 9.35742H209.804L206.769 12.6729L209.988 17H207.582L205.381 13.9033L204.485 14.6211V17H202.4V6.36328H204.485ZM217.795 7.00586C218.702 7.00586 219.449 7.11523 220.037 7.33398C220.63 7.55273 221.069 7.88314 221.356 8.3252C221.644 8.76725 221.787 9.32552 221.787 10C221.787 10.4557 221.701 10.8545 221.527 11.1963C221.354 11.5381 221.126 11.8275 220.844 12.0645C220.561 12.3014 220.256 12.4951 219.928 12.6455L222.867 17H220.516L218.13 13.165H217.002V17H214.883V7.00586H217.795ZM217.645 8.74219H217.002V11.4424H217.686C218.387 11.4424 218.889 11.3262 219.189 11.0938C219.495 10.8568 219.647 10.5104 219.647 10.0547C219.647 9.58073 219.483 9.24349 219.155 9.04297C218.832 8.84245 218.328 8.74219 217.645 8.74219ZM226.381 17.1367C225.529 17.1367 224.834 16.804 224.296 16.1387C223.763 15.4688 223.496 14.4867 223.496 13.1924C223.496 11.8844 223.767 10.8955 224.31 10.2256C224.852 9.55111 225.561 9.21387 226.436 9.21387C226.8 9.21387 227.121 9.264 227.399 9.36426C227.677 9.46452 227.917 9.59896 228.117 9.76758C228.322 9.9362 228.495 10.1253 228.637 10.335H228.705C228.678 10.1891 228.644 9.97493 228.603 9.69238C228.566 9.40527 228.548 9.11133 228.548 8.81055V6.36328H230.64V17H229.04L228.637 16.0088H228.548C228.416 16.2184 228.249 16.4098 228.049 16.583C227.853 16.7516 227.618 16.8861 227.345 16.9863C227.071 17.0866 226.75 17.1367 226.381 17.1367ZM227.112 15.4756C227.682 15.4756 228.083 15.307 228.315 14.9697C228.552 14.6279 228.678 14.1152 228.691 13.4316V13.2061C228.691 12.4632 228.577 11.8958 228.35 11.5039C228.122 11.1074 227.698 10.9092 227.078 10.9092C226.618 10.9092 226.258 11.1074 225.998 11.5039C225.738 11.9004 225.608 12.4723 225.608 13.2197C225.608 13.9671 225.738 14.5299 225.998 14.9082C226.262 15.2865 226.634 15.4756 227.112 15.4756ZM234.762 15.373L234.864 15.5303C234.782 15.8584 234.675 16.2116 234.543 16.5898C234.415 16.9681 234.274 17.3464 234.119 17.7246C233.969 18.1029 233.816 18.4629 233.661 18.8047H232.157C232.248 18.4355 232.337 18.0482 232.424 17.6426C232.51 17.237 232.59 16.8382 232.663 16.4463C232.741 16.0544 232.802 15.6966 232.848 15.373H234.762ZM37.2578 41V31.0059H39.377V39.25H43.4307V41H37.2578ZM51.9551 37.165C51.9551 37.8031 51.8685 38.3682 51.6953 38.8604C51.5267 39.3525 51.2783 39.7695 50.9502 40.1113C50.6266 40.4486 50.2347 40.7038 49.7744 40.877C49.3187 41.0501 48.8037 41.1367 48.2295 41.1367C47.6917 41.1367 47.1973 41.0501 46.7461 40.877C46.2995 40.7038 45.9098 40.4486 45.5771 40.1113C45.249 39.7695 44.9938 39.3525 44.8115 38.8604C44.6338 38.3682 44.5449 37.8031 44.5449 37.165C44.5449 36.3174 44.6953 35.5996 44.9961 35.0117C45.2969 34.4238 45.7253 33.9772 46.2812 33.6719C46.8372 33.3665 47.5003 33.2139 48.2705 33.2139C48.986 33.2139 49.6195 33.3665 50.1709 33.6719C50.7269 33.9772 51.1621 34.4238 51.4766 35.0117C51.7956 35.5996 51.9551 36.3174 51.9551 37.165ZM46.6709 37.165C46.6709 37.6663 46.7256 38.0879 46.835 38.4297C46.9443 38.7715 47.1152 39.029 47.3477 39.2021C47.5801 39.3753 47.8831 39.4619 48.2568 39.4619C48.626 39.4619 48.9245 39.3753 49.1523 39.2021C49.3848 39.029 49.5534 38.7715 49.6582 38.4297C49.7676 38.0879 49.8223 37.6663 49.8223 37.165C49.8223 36.6592 49.7676 36.2399 49.6582 35.9072C49.5534 35.57 49.3848 35.3171 49.1523 35.1484C48.9199 34.9798 48.6169 34.8955 48.2432 34.8955C47.6917 34.8955 47.2907 35.0846 47.04 35.4629C46.7939 35.8411 46.6709 36.4085 46.6709 37.165ZM58.0186 33.2139C58.8343 33.2139 59.4906 33.4372 59.9873 33.8838C60.484 34.3258 60.7324 35.0368 60.7324 36.0166V41H58.6475V36.5361C58.6475 35.9893 58.5472 35.5768 58.3467 35.2988C58.1507 35.0208 57.8408 34.8818 57.417 34.8818C56.779 34.8818 56.3438 35.0983 56.1113 35.5312C55.8789 35.9642 55.7627 36.5885 55.7627 37.4043V41H53.6777V33.3574H55.2705L55.5508 34.335H55.667C55.8311 34.0706 56.0339 33.8564 56.2754 33.6924C56.5215 33.5283 56.7926 33.4076 57.0889 33.3301C57.3896 33.2526 57.6995 33.2139 58.0186 33.2139ZM65.2988 41.1367C64.4466 41.1367 63.7516 40.804 63.2139 40.1387C62.6807 39.4688 62.4141 38.4867 62.4141 37.1924C62.4141 35.8844 62.6852 34.8955 63.2275 34.2256C63.7699 33.5511 64.4785 33.2139 65.3535 33.2139C65.7181 33.2139 66.0394 33.264 66.3174 33.3643C66.5954 33.4645 66.8346 33.599 67.0352 33.7676C67.2402 33.9362 67.4134 34.1253 67.5547 34.335H67.623C67.5957 34.1891 67.5615 33.9749 67.5205 33.6924C67.484 33.4053 67.4658 33.1113 67.4658 32.8105V30.3633H69.5576V41H67.958L67.5547 40.0088H67.4658C67.3337 40.2184 67.1673 40.4098 66.9668 40.583C66.7708 40.7516 66.5361 40.8861 66.2627 40.9863C65.9893 41.0866 65.668 41.1367 65.2988 41.1367ZM66.0303 39.4756C66.5999 39.4756 67.001 39.307 67.2334 38.9697C67.4704 38.6279 67.5957 38.1152 67.6094 37.4316V37.2061C67.6094 36.4632 67.4954 35.8958 67.2676 35.5039C67.0397 35.1074 66.6159 34.9092 65.9961 34.9092C65.5358 34.9092 65.1758 35.1074 64.916 35.5039C64.6562 35.9004 64.5264 36.4723 64.5264 37.2197C64.5264 37.9671 64.6562 38.5299 64.916 38.9082C65.1803 39.2865 65.5518 39.4756 66.0303 39.4756ZM78.6836 37.165C78.6836 37.8031 78.597 38.3682 78.4238 38.8604C78.2552 39.3525 78.0068 39.7695 77.6787 40.1113C77.3551 40.4486 76.9632 40.7038 76.5029 40.877C76.0472 41.0501 75.5322 41.1367 74.958 41.1367C74.4202 41.1367 73.9258 41.0501 73.4746 40.877C73.028 40.7038 72.6383 40.4486 72.3057 40.1113C71.9775 39.7695 71.7223 39.3525 71.54 38.8604C71.3623 38.3682 71.2734 37.8031 71.2734 37.165C71.2734 36.3174 71.4238 35.5996 71.7246 35.0117C72.0254 34.4238 72.4538 33.9772 73.0098 33.6719C73.5658 33.3665 74.2288 33.2139 74.999 33.2139C75.7145 33.2139 76.348 33.3665 76.8994 33.6719C77.4554 33.9772 77.8906 34.4238 78.2051 35.0117C78.5241 35.5996 78.6836 36.3174 78.6836 37.165ZM73.3994 37.165C73.3994 37.6663 73.4541 38.0879 73.5635 38.4297C73.6729 38.7715 73.8438 39.029 74.0762 39.2021C74.3086 39.3753 74.6117 39.4619 74.9854 39.4619C75.3545 39.4619 75.653 39.3753 75.8809 39.2021C76.1133 39.029 76.2819 38.7715 76.3867 38.4297C76.4961 38.0879 76.5508 37.6663 76.5508 37.165C76.5508 36.6592 76.4961 36.2399 76.3867 35.9072C76.2819 35.57 76.1133 35.3171 75.8809 35.1484C75.6484 34.9798 75.3454 34.8955 74.9717 34.8955C74.4202 34.8955 74.0192 35.0846 73.7686 35.4629C73.5225 35.8411 73.3994 36.4085 73.3994 37.165ZM84.7471 33.2139C85.5628 33.2139 86.2191 33.4372 86.7158 33.8838C87.2126 34.3258 87.4609 35.0368 87.4609 36.0166V41H85.376V36.5361C85.376 35.9893 85.2757 35.5768 85.0752 35.2988C84.8792 35.0208 84.5693 34.8818 84.1455 34.8818C83.5075 34.8818 83.0723 35.0983 82.8398 35.5312C82.6074 35.9642 82.4912 36.5885 82.4912 37.4043V41H80.4062V33.3574H81.999L82.2793 34.335H82.3955C82.5596 34.0706 82.7624 33.8564 83.0039 33.6924C83.25 33.5283 83.5212 33.4076 83.8174 33.3301C84.1182 33.2526 84.4281 33.2139 84.7471 33.2139ZM105.686 31.0059L103.143 41H100.729L99.376 35.75C99.3486 35.6497 99.3122 35.4971 99.2666 35.292C99.221 35.0869 99.1732 34.8636 99.123 34.6221C99.0729 34.376 99.0273 34.1458 98.9863 33.9316C98.9499 33.7129 98.9248 33.5397 98.9111 33.4121C98.8975 33.5397 98.8701 33.7106 98.8291 33.9248C98.7926 34.139 98.7493 34.3669 98.6992 34.6084C98.6536 34.8499 98.6081 35.0755 98.5625 35.2852C98.5169 35.4948 98.4805 35.6543 98.4531 35.7637L97.1064 41H94.7002L92.1504 31.0059H94.2354L95.5137 36.4609C95.5501 36.625 95.5911 36.821 95.6367 37.0488C95.6868 37.2767 95.7347 37.516 95.7803 37.7666C95.8304 38.0127 95.8737 38.252 95.9102 38.4844C95.9512 38.7122 95.9808 38.9105 95.999 39.0791C96.0218 38.9059 96.0514 38.7054 96.0879 38.4775C96.1243 38.2451 96.1631 38.0104 96.2041 37.7734C96.2497 37.5319 96.2952 37.3086 96.3408 37.1035C96.3864 36.8984 96.4274 36.7321 96.4639 36.6045L97.9199 31.0059H99.9229L101.379 36.6045C101.411 36.7275 101.447 36.8939 101.488 37.1035C101.534 37.3086 101.579 37.5319 101.625 37.7734C101.671 38.015 101.712 38.252 101.748 38.4844C101.789 38.7122 101.819 38.9105 101.837 39.0791C101.869 38.8512 101.912 38.5755 101.967 38.252C102.026 37.9238 102.088 37.598 102.151 37.2744C102.22 36.9508 102.279 36.6797 102.329 36.4609L103.601 31.0059H105.686ZM112.843 33.2412C112.843 33.7015 112.747 34.1003 112.556 34.4375C112.364 34.7747 112.104 35.0505 111.776 35.2646C111.453 35.4788 111.088 35.6361 110.683 35.7363V35.7773C111.485 35.8776 112.093 36.1237 112.508 36.5156C112.927 36.9076 113.137 37.4316 113.137 38.0879C113.137 38.6712 112.993 39.193 112.706 39.6533C112.424 40.1136 111.986 40.4759 111.394 40.7402C110.801 41.0046 110.038 41.1367 109.104 41.1367C108.552 41.1367 108.037 41.0911 107.559 41C107.085 40.9134 106.638 40.779 106.219 40.5967V38.7988C106.647 39.0176 107.096 39.1839 107.565 39.2979C108.035 39.4072 108.472 39.4619 108.878 39.4619C109.634 39.4619 110.163 39.332 110.464 39.0723C110.769 38.8079 110.922 38.4388 110.922 37.9648C110.922 37.6868 110.851 37.4521 110.71 37.2607C110.569 37.0693 110.323 36.9235 109.972 36.8232C109.625 36.723 109.14 36.6729 108.516 36.6729H107.757V35.0527H108.529C109.145 35.0527 109.612 34.9958 109.931 34.8818C110.254 34.7633 110.473 34.6038 110.587 34.4033C110.705 34.1982 110.765 33.9658 110.765 33.7061C110.765 33.3506 110.655 33.0726 110.437 32.8721C110.218 32.6715 109.853 32.5713 109.343 32.5713C109.024 32.5713 108.732 32.6123 108.468 32.6943C108.208 32.7718 107.973 32.8675 107.764 32.9814C107.554 33.0908 107.369 33.1979 107.21 33.3027L106.232 31.8467C106.624 31.5641 107.082 31.3294 107.606 31.1426C108.135 30.9557 108.764 30.8623 109.493 30.8623C110.523 30.8623 111.339 31.0697 111.94 31.4844C112.542 31.8991 112.843 32.4847 112.843 33.2412ZM117.826 36.7549C117.826 36.1807 117.867 35.6133 117.949 35.0527C118.036 34.4876 118.184 33.9567 118.394 33.46C118.603 32.9587 118.897 32.5166 119.275 32.1338C119.654 31.7464 120.134 31.4434 120.718 31.2246C121.301 31.0013 122.007 30.8896 122.837 30.8896C123.033 30.8896 123.261 30.8988 123.521 30.917C123.785 30.9307 124.004 30.9557 124.177 30.9922V32.6807C123.994 32.6396 123.799 32.6077 123.589 32.585C123.384 32.5576 123.179 32.5439 122.974 32.5439C122.144 32.5439 121.502 32.6761 121.046 32.9404C120.595 33.2048 120.276 33.5716 120.089 34.041C119.907 34.5059 119.799 35.0482 119.768 35.668H119.856C119.984 35.4447 120.144 35.2464 120.335 35.0732C120.531 34.9001 120.768 34.7633 121.046 34.6631C121.324 34.5583 121.65 34.5059 122.023 34.5059C122.607 34.5059 123.113 34.6312 123.541 34.8818C123.969 35.1279 124.3 35.4857 124.532 35.9551C124.765 36.4245 124.881 36.9964 124.881 37.6709C124.881 38.391 124.742 39.0107 124.464 39.5303C124.186 40.0498 123.792 40.4486 123.281 40.7266C122.775 41 122.174 41.1367 121.477 41.1367C120.966 41.1367 120.49 41.0501 120.048 40.877C119.606 40.6992 119.218 40.4303 118.886 40.0703C118.553 39.7103 118.293 39.2568 118.106 38.71C117.92 38.1585 117.826 37.5068 117.826 36.7549ZM121.436 39.4482C121.85 39.4482 122.188 39.307 122.447 39.0244C122.707 38.7419 122.837 38.2998 122.837 37.6982C122.837 37.2106 122.723 36.8278 122.495 36.5498C122.272 36.2673 121.932 36.126 121.477 36.126C121.167 36.126 120.893 36.1966 120.656 36.3379C120.424 36.4746 120.244 36.6501 120.116 36.8643C119.989 37.0739 119.925 37.2904 119.925 37.5137C119.925 37.7461 119.957 37.9762 120.021 38.2041C120.084 38.432 120.18 38.6393 120.308 38.8262C120.435 39.013 120.592 39.1634 120.779 39.2773C120.971 39.3913 121.189 39.4482 121.436 39.4482ZM126.604 31.0059H129.714C131.045 31.0059 132.052 31.1927 132.735 31.5664C133.419 31.9401 133.761 32.5964 133.761 33.5352C133.761 33.9134 133.699 34.2552 133.576 34.5605C133.458 34.8659 133.285 35.1165 133.057 35.3125C132.829 35.5085 132.551 35.6361 132.223 35.6953V35.7637C132.555 35.832 132.856 35.9505 133.125 36.1191C133.394 36.2832 133.608 36.5247 133.768 36.8438C133.932 37.1582 134.014 37.5775 134.014 38.1016C134.014 38.7077 133.866 39.2272 133.569 39.6602C133.273 40.0931 132.849 40.4258 132.298 40.6582C131.751 40.8861 131.099 41 130.343 41H126.604V31.0059ZM128.723 34.9639H129.953C130.568 34.9639 130.994 34.8682 131.231 34.6768C131.468 34.4808 131.587 34.1937 131.587 33.8154C131.587 33.4326 131.446 33.1592 131.163 32.9951C130.885 32.8265 130.443 32.7422 129.837 32.7422H128.723V34.9639ZM128.723 36.6455V39.25H130.104C130.742 39.25 131.186 39.127 131.437 38.8809C131.687 38.6348 131.812 38.3044 131.812 37.8896C131.812 37.6436 131.758 37.4271 131.648 37.2402C131.539 37.0534 131.354 36.9076 131.095 36.8027C130.84 36.6979 130.486 36.6455 130.035 36.6455H128.723ZM145.081 35.9893C145.081 36.7321 144.992 37.4134 144.814 38.0332C144.641 38.6484 144.372 39.1816 144.008 39.6328C143.643 40.084 143.181 40.4372 142.62 40.6924L145.026 43.3789H142.312L140.48 41.1367C140.449 41.1367 140.421 41.1367 140.398 41.1367C140.376 41.1367 140.351 41.1367 140.323 41.1367C139.507 41.1367 138.801 41.016 138.204 40.7744C137.607 40.5283 137.113 40.1774 136.721 39.7217C136.333 39.266 136.044 38.7214 135.853 38.0879C135.661 37.4544 135.565 36.7503 135.565 35.9756C135.565 34.9411 135.734 34.041 136.071 33.2754C136.413 32.5052 136.937 31.9082 137.644 31.4844C138.35 31.0605 139.248 30.8486 140.337 30.8486C141.422 30.8486 142.312 31.0605 143.01 31.4844C143.712 31.9082 144.231 32.5052 144.568 33.2754C144.91 34.0456 145.081 34.9502 145.081 35.9893ZM137.787 35.9893C137.787 36.6865 137.874 37.2881 138.047 37.7939C138.225 38.2952 138.5 38.6826 138.874 38.9561C139.248 39.2249 139.731 39.3594 140.323 39.3594C140.925 39.3594 141.412 39.2249 141.786 38.9561C142.16 38.6826 142.431 38.2952 142.6 37.7939C142.773 37.2881 142.859 36.6865 142.859 35.9893C142.859 34.9411 142.663 34.1162 142.271 33.5146C141.88 32.9131 141.235 32.6123 140.337 32.6123C139.74 32.6123 139.252 32.749 138.874 33.0225C138.5 33.2913 138.225 33.6787 138.047 34.1846C137.874 34.6859 137.787 35.2874 137.787 35.9893ZM148.93 39.373L149.032 39.5303C148.95 39.8584 148.843 40.2116 148.711 40.5898C148.583 40.9681 148.442 41.3464 148.287 41.7246C148.137 42.1029 147.984 42.4629 147.829 42.8047H146.325C146.416 42.4355 146.505 42.0482 146.592 41.6426C146.678 41.237 146.758 40.8382 146.831 40.4463C146.909 40.0544 146.97 39.6966 147.016 39.373H148.93ZM162.916 31.0059V37.4727C162.916 38.1608 162.763 38.7829 162.458 39.3389C162.157 39.8903 161.699 40.3278 161.084 40.6514C160.473 40.9749 159.703 41.1367 158.773 41.1367C157.452 41.1367 156.445 40.7995 155.752 40.125C155.059 39.4505 154.713 38.5573 154.713 37.4453V31.0059H156.825V37.124C156.825 37.9489 156.994 38.5277 157.331 38.8604C157.668 39.193 158.167 39.3594 158.828 39.3594C159.293 39.3594 159.669 39.2796 159.956 39.1201C160.248 38.9606 160.462 38.7145 160.599 38.3818C160.735 38.0492 160.804 37.6253 160.804 37.1104V31.0059H162.916ZM173.402 41H170.996L168.378 36.7891L167.482 37.4316V41H165.363V31.0059H167.482V35.5791C167.624 35.3831 167.763 35.1872 167.899 34.9912C168.036 34.7952 168.175 34.5993 168.316 34.4033L171.023 31.0059H173.375L169.889 35.4287L173.402 41Z" fill="#0A0A0B"/>
<path d="M6.72922 19.5965C1.05352 11.3684 0 10.5239 0 7.5C0 3.35785 3.35785 0 7.5 0C11.6421 0 15 3.35785 15 7.5C15 10.5239 13.9465 11.3684 8.27078 19.5965C7.89832 20.1345 7.10164 20.1345 6.72922 19.5965ZM7.5 10.625C9.2259 10.625 10.625 9.2259 10.625 7.5C10.625 5.7741 9.2259 4.375 7.5 4.375C5.7741 4.375 4.375 5.7741 4.375 7.5C4.375 9.2259 5.7741 10.625 7.5 10.625Z" fill="#FE8C12"/>
</svg>
