<svg width="155" height="36" viewBox="0 0 155 36" fill="none" xmlns="http://www.w3.org/2000/svg">
<path d="M5.48926 11H2.78906V3.21387H0.348633V1.00586H7.92285V3.21387H5.48926V11ZM17.917 11H15.2031V6.92578H12.0654V11H9.35156V1.00586H12.0654V4.71094H15.2031V1.00586H17.917V11ZM26.0176 11H20.084V1.00586H26.0176V3.17285H22.7842V4.74512H25.7783V6.91211H22.7842V8.79883H26.0176V11ZM27.7676 11V1.00586H30.4814V11H27.7676ZM35.9229 1.00586C36.8298 1.00586 37.584 1.11751 38.1855 1.34082C38.7871 1.55957 39.2383 1.8877 39.5391 2.3252C39.8444 2.7627 39.9971 3.30729 39.9971 3.95898C39.9971 4.36458 39.9287 4.73372 39.792 5.06641C39.6553 5.39909 39.4593 5.69759 39.2041 5.96191C38.9535 6.22168 38.6527 6.44954 38.3018 6.64551L41.2139 11H38.1514L36.0322 7.36328H35.3486V11H32.6484V1.00586H35.9229ZM35.8818 3.0498H35.3486V5.33301H35.8545C36.2692 5.33301 36.6087 5.24186 36.873 5.05957C37.1374 4.87728 37.2695 4.55143 37.2695 4.08203C37.2695 3.75846 37.1602 3.50553 36.9414 3.32324C36.7227 3.14095 36.3695 3.0498 35.8818 3.0498ZM45.7598 1.00586H49.2461C50.6908 1.00586 51.7207 1.22005 52.3359 1.64844C52.9512 2.07682 53.2588 2.69206 53.2588 3.49414C53.2588 3.93164 53.179 4.30306 53.0195 4.6084C52.8646 4.91374 52.6663 5.15527 52.4248 5.33301C52.1878 5.51074 51.944 5.63151 51.6934 5.69531V5.76367C51.9668 5.83203 52.238 5.94596 52.5068 6.10547C52.7803 6.26042 53.0059 6.49512 53.1836 6.80957C53.3659 7.11947 53.457 7.54102 53.457 8.07422C53.457 8.68034 53.3021 9.20215 52.9922 9.63965C52.6868 10.0771 52.2493 10.4144 51.6797 10.6514C51.11 10.8838 50.4333 11 49.6494 11H45.7598V1.00586ZM48.46 4.84082H49.2734C49.7201 4.84082 50.0345 4.74967 50.2168 4.56738C50.3991 4.38053 50.4902 4.15495 50.4902 3.89062C50.4902 3.61719 50.3854 3.40983 50.1758 3.26855C49.9707 3.12272 49.6517 3.0498 49.2188 3.0498H48.46V4.84082ZM48.46 6.81641V8.91504H49.4102C49.8796 8.91504 50.2077 8.81478 50.3945 8.61426C50.5814 8.40918 50.6748 8.15397 50.6748 7.84863C50.6748 7.6709 50.6338 7.50456 50.5518 7.34961C50.4743 7.1901 50.3398 7.0625 50.1484 6.9668C49.957 6.86654 49.6927 6.81641 49.3555 6.81641H48.46ZM63.6904 1.00586V7.02148C63.6904 7.86003 63.5309 8.58919 63.2119 9.20898C62.8929 9.82422 62.4144 10.3005 61.7764 10.6377C61.1383 10.9704 60.3385 11.1367 59.377 11.1367C58.0007 11.1367 56.9502 10.7835 56.2256 10.0771C55.501 9.37077 55.1387 8.37272 55.1387 7.08301V1.00586H57.8525V6.87109C57.8525 7.57747 57.9847 8.09017 58.249 8.40918C58.5133 8.72819 58.903 8.8877 59.418 8.8877C59.7871 8.8877 60.0879 8.81934 60.3203 8.68262C60.5527 8.54134 60.7214 8.32031 60.8262 8.01953C60.9355 7.71875 60.9902 7.33138 60.9902 6.85742V1.00586H63.6904ZM72.3242 7.96484C72.3242 8.50716 72.1875 9.02214 71.9141 9.50977C71.6406 9.99284 71.2145 10.3848 70.6357 10.6855C70.0615 10.9863 69.3187 11.1367 68.4072 11.1367C67.9515 11.1367 67.5505 11.1162 67.2041 11.0752C66.8623 11.0342 66.5433 10.9681 66.2471 10.877C65.9508 10.7812 65.6432 10.6582 65.3242 10.5078V8.10156C65.8665 8.375 66.4134 8.58464 66.9648 8.73047C67.5163 8.87174 68.0153 8.94238 68.4619 8.94238C68.7308 8.94238 68.9495 8.91048 69.1182 8.84668C69.2913 8.78288 69.4189 8.69629 69.501 8.58691C69.583 8.47298 69.624 8.3431 69.624 8.19727C69.624 8.02409 69.5625 7.87826 69.4395 7.75977C69.321 7.63672 69.1296 7.50911 68.8652 7.37695C68.6009 7.24479 68.2523 7.08073 67.8193 6.88477C67.4502 6.71159 67.1152 6.53385 66.8145 6.35156C66.5182 6.16927 66.263 5.96191 66.0488 5.72949C65.8392 5.49251 65.6774 5.2168 65.5635 4.90234C65.4495 4.58789 65.3926 4.21647 65.3926 3.78809C65.3926 3.14551 65.5498 2.60775 65.8643 2.1748C66.1833 1.7373 66.6253 1.40918 67.1904 1.19043C67.7601 0.97168 68.4163 0.862305 69.1592 0.862305C69.8109 0.862305 70.3965 0.935221 70.916 1.08105C71.4401 1.22689 71.9095 1.39323 72.3242 1.58008L71.4971 3.66504C71.0687 3.46908 70.6471 3.31413 70.2324 3.2002C69.8177 3.08171 69.4326 3.02246 69.0771 3.02246C68.8447 3.02246 68.6533 3.05208 68.5029 3.11133C68.3571 3.16602 68.2477 3.24121 68.1748 3.33691C68.1064 3.43262 68.0723 3.54199 68.0723 3.66504C68.0723 3.81999 68.1315 3.95898 68.25 4.08203C68.373 4.20508 68.5758 4.33952 68.8584 4.48535C69.1455 4.62663 69.5352 4.8112 70.0273 5.03906C70.515 5.25781 70.9297 5.49479 71.2715 5.75C71.6133 6.00065 71.873 6.30371 72.0508 6.65918C72.2331 7.01009 72.3242 7.44531 72.3242 7.96484ZM73.8691 11V1.00586H76.583V11H73.8691ZM88.2656 11H84.7246L81.0742 3.95898H81.0127C81.0355 4.17318 81.056 4.43066 81.0742 4.73145C81.0924 5.03223 81.1084 5.33984 81.1221 5.6543C81.1357 5.96419 81.1426 6.24447 81.1426 6.49512V11H78.75V1.00586H82.2773L85.9141 7.95117H85.9551C85.9414 7.73242 85.9277 7.47949 85.9141 7.19238C85.9004 6.90072 85.8867 6.60677 85.873 6.31055C85.8639 6.01432 85.8594 5.75228 85.8594 5.52441V1.00586H88.2656V11ZM96.3594 11H90.4258V1.00586H96.3594V3.17285H93.126V4.74512H96.1201V6.91211H93.126V8.79883H96.3594V11ZM104.645 7.96484C104.645 8.50716 104.508 9.02214 104.234 9.50977C103.961 9.99284 103.535 10.3848 102.956 10.6855C102.382 10.9863 101.639 11.1367 100.728 11.1367C100.272 11.1367 99.8708 11.1162 99.5244 11.0752C99.1826 11.0342 98.8636 10.9681 98.5674 10.877C98.2712 10.7812 97.9635 10.6582 97.6445 10.5078V8.10156C98.1868 8.375 98.7337 8.58464 99.2852 8.73047C99.8366 8.87174 100.336 8.94238 100.782 8.94238C101.051 8.94238 101.27 8.91048 101.438 8.84668C101.612 8.78288 101.739 8.69629 101.821 8.58691C101.903 8.47298 101.944 8.3431 101.944 8.19727C101.944 8.02409 101.883 7.87826 101.76 7.75977C101.641 7.63672 101.45 7.50911 101.186 7.37695C100.921 7.24479 100.573 7.08073 100.14 6.88477C99.7705 6.71159 99.4355 6.53385 99.1348 6.35156C98.8385 6.16927 98.5833 5.96191 98.3691 5.72949C98.1595 5.49251 97.9977 5.2168 97.8838 4.90234C97.7699 4.58789 97.7129 4.21647 97.7129 3.78809C97.7129 3.14551 97.8701 2.60775 98.1846 2.1748C98.5036 1.7373 98.9456 1.40918 99.5107 1.19043C100.08 0.97168 100.737 0.862305 101.479 0.862305C102.131 0.862305 102.717 0.935221 103.236 1.08105C103.76 1.22689 104.23 1.39323 104.645 1.58008L103.817 3.66504C103.389 3.46908 102.967 3.31413 102.553 3.2002C102.138 3.08171 101.753 3.02246 101.397 3.02246C101.165 3.02246 100.974 3.05208 100.823 3.11133C100.677 3.16602 100.568 3.24121 100.495 3.33691C100.427 3.43262 100.393 3.54199 100.393 3.66504C100.393 3.81999 100.452 3.95898 100.57 4.08203C100.693 4.20508 100.896 4.33952 101.179 4.48535C101.466 4.62663 101.855 4.8112 102.348 5.03906C102.835 5.25781 103.25 5.49479 103.592 5.75C103.934 6.00065 104.193 6.30371 104.371 6.65918C104.553 7.01009 104.645 7.44531 104.645 7.96484ZM112.725 7.96484C112.725 8.50716 112.588 9.02214 112.314 9.50977C112.041 9.99284 111.615 10.3848 111.036 10.6855C110.462 10.9863 109.719 11.1367 108.808 11.1367C108.352 11.1367 107.951 11.1162 107.604 11.0752C107.263 11.0342 106.944 10.9681 106.647 10.877C106.351 10.7812 106.044 10.6582 105.725 10.5078V8.10156C106.267 8.375 106.814 8.58464 107.365 8.73047C107.917 8.87174 108.416 8.94238 108.862 8.94238C109.131 8.94238 109.35 8.91048 109.519 8.84668C109.692 8.78288 109.819 8.69629 109.901 8.58691C109.983 8.47298 110.024 8.3431 110.024 8.19727C110.024 8.02409 109.963 7.87826 109.84 7.75977C109.721 7.63672 109.53 7.50911 109.266 7.37695C109.001 7.24479 108.653 7.08073 108.22 6.88477C107.851 6.71159 107.516 6.53385 107.215 6.35156C106.919 6.16927 106.663 5.96191 106.449 5.72949C106.24 5.49251 106.078 5.2168 105.964 4.90234C105.85 4.58789 105.793 4.21647 105.793 3.78809C105.793 3.14551 105.95 2.60775 106.265 2.1748C106.584 1.7373 107.026 1.40918 107.591 1.19043C108.16 0.97168 108.817 0.862305 109.56 0.862305C110.211 0.862305 110.797 0.935221 111.316 1.08105C111.84 1.22689 112.31 1.39323 112.725 1.58008L111.897 3.66504C111.469 3.46908 111.048 3.31413 110.633 3.2002C110.218 3.08171 109.833 3.02246 109.478 3.02246C109.245 3.02246 109.054 3.05208 108.903 3.11133C108.757 3.16602 108.648 3.24121 108.575 3.33691C108.507 3.43262 108.473 3.54199 108.473 3.66504C108.473 3.81999 108.532 3.95898 108.65 4.08203C108.773 4.20508 108.976 4.33952 109.259 4.48535C109.546 4.62663 109.936 4.8112 110.428 5.03906C110.915 5.25781 111.33 5.49479 111.672 5.75C112.014 6.00065 112.273 6.30371 112.451 6.65918C112.633 7.01009 112.725 7.44531 112.725 7.96484ZM117.906 1.00586H121.393C122.837 1.00586 123.867 1.22005 124.482 1.64844C125.098 2.07682 125.405 2.69206 125.405 3.49414C125.405 3.93164 125.326 4.30306 125.166 4.6084C125.011 4.91374 124.813 5.15527 124.571 5.33301C124.334 5.51074 124.09 5.63151 123.84 5.69531V5.76367C124.113 5.83203 124.384 5.94596 124.653 6.10547C124.927 6.26042 125.152 6.49512 125.33 6.80957C125.512 7.11947 125.604 7.54102 125.604 8.07422C125.604 8.68034 125.449 9.20215 125.139 9.63965C124.833 10.0771 124.396 10.4144 123.826 10.6514C123.257 10.8838 122.58 11 121.796 11H117.906V1.00586ZM120.606 4.84082H121.42C121.867 4.84082 122.181 4.74967 122.363 4.56738C122.546 4.38053 122.637 4.15495 122.637 3.89062C122.637 3.61719 122.532 3.40983 122.322 3.26855C122.117 3.12272 121.798 3.0498 121.365 3.0498H120.606V4.84082ZM120.606 6.81641V8.91504H121.557C122.026 8.91504 122.354 8.81478 122.541 8.61426C122.728 8.40918 122.821 8.15397 122.821 7.84863C122.821 7.6709 122.78 7.50456 122.698 7.34961C122.621 7.1901 122.486 7.0625 122.295 6.9668C122.104 6.86654 121.839 6.81641 121.502 6.81641H120.606ZM127.34 11V1.00586H130.04V8.81934H133.889V11H127.34ZM144.84 5.98926C144.84 6.75944 144.746 7.46126 144.56 8.09473C144.377 8.72363 144.09 9.26595 143.698 9.72168C143.306 10.1774 142.803 10.5283 142.188 10.7744C141.572 11.016 140.836 11.1367 139.979 11.1367C139.141 11.1367 138.414 11.016 137.799 10.7744C137.188 10.5283 136.685 10.1797 136.288 9.72852C135.892 9.27279 135.598 8.72819 135.406 8.09473C135.215 7.46126 135.119 6.75488 135.119 5.97559C135.119 4.93652 135.29 4.03418 135.632 3.26855C135.978 2.49837 136.511 1.90365 137.231 1.48438C137.951 1.06055 138.872 0.848633 139.993 0.848633C141.132 0.848633 142.058 1.06055 142.769 1.48438C143.484 1.9082 144.008 2.50521 144.341 3.27539C144.674 4.04557 144.84 4.9502 144.84 5.98926ZM137.963 5.98926C137.963 6.59082 138.031 7.10807 138.168 7.54102C138.305 7.97396 138.521 8.30664 138.817 8.53906C139.114 8.77148 139.501 8.8877 139.979 8.8877C140.476 8.8877 140.87 8.77148 141.162 8.53906C141.458 8.30664 141.67 7.97396 141.798 7.54102C141.93 7.10807 141.996 6.59082 141.996 5.98926C141.996 5.08691 141.846 4.3737 141.545 3.84961C141.244 3.32552 140.727 3.06348 139.993 3.06348C139.506 3.06348 139.111 3.18197 138.811 3.41895C138.514 3.65592 138.298 3.99316 138.161 4.43066C138.029 4.86816 137.963 5.3877 137.963 5.98926ZM150.657 5.14844H154.971V10.5352C154.456 10.7129 153.866 10.8587 153.2 10.9727C152.535 11.082 151.838 11.1367 151.108 11.1367C150.147 11.1367 149.304 10.9499 148.579 10.5762C147.854 10.2025 147.289 9.63509 146.884 8.87402C146.478 8.1084 146.275 7.14225 146.275 5.97559C146.275 4.92741 146.476 4.02279 146.877 3.26172C147.278 2.49609 147.868 1.90592 148.647 1.49121C149.431 1.07194 150.391 0.862305 151.525 0.862305C152.15 0.862305 152.742 0.921549 153.303 1.04004C153.863 1.15853 154.351 1.30892 154.766 1.49121L153.911 3.61035C153.551 3.43262 153.177 3.30046 152.79 3.21387C152.403 3.12272 151.986 3.07715 151.539 3.07715C150.942 3.07715 150.461 3.21159 150.097 3.48047C149.737 3.74935 149.475 4.10938 149.311 4.56055C149.146 5.00716 149.064 5.50163 149.064 6.04395C149.064 6.66374 149.151 7.18783 149.324 7.61621C149.502 8.04004 149.759 8.36361 150.097 8.58691C150.438 8.80566 150.851 8.91504 151.334 8.91504C151.493 8.91504 151.687 8.90365 151.915 8.88086C152.147 8.85807 152.323 8.83073 152.441 8.79883V7.2334H150.657V5.14844ZM1.08008 35V25.0059H3.79395V35H1.08008ZM12.4961 31.9648C12.4961 32.5072 12.3594 33.0221 12.0859 33.5098C11.8125 33.9928 11.3864 34.3848 10.8076 34.6855C10.2334 34.9863 9.49056 35.1367 8.5791 35.1367C8.12337 35.1367 7.72233 35.1162 7.37598 35.0752C7.03418 35.0342 6.71517 34.9681 6.41895 34.877C6.12272 34.7812 5.8151 34.6582 5.49609 34.5078V32.1016C6.03841 32.375 6.58529 32.5846 7.13672 32.7305C7.68815 32.8717 8.18717 32.9424 8.63379 32.9424C8.90267 32.9424 9.12142 32.9105 9.29004 32.8467C9.46322 32.7829 9.59082 32.6963 9.67285 32.5869C9.75488 32.473 9.7959 32.3431 9.7959 32.1973C9.7959 32.0241 9.73438 31.8783 9.61133 31.7598C9.49284 31.6367 9.30143 31.5091 9.03711 31.377C8.77279 31.2448 8.42415 31.0807 7.99121 30.8848C7.62207 30.7116 7.28711 30.5339 6.98633 30.3516C6.6901 30.1693 6.4349 29.9619 6.2207 29.7295C6.01107 29.4925 5.84928 29.2168 5.73535 28.9023C5.62142 28.5879 5.56445 28.2165 5.56445 27.7881C5.56445 27.1455 5.72168 26.6077 6.03613 26.1748C6.35514 25.7373 6.7972 25.4092 7.3623 25.1904C7.93197 24.9717 8.58822 24.8623 9.33105 24.8623C9.98275 24.8623 10.5684 24.9352 11.0879 25.0811C11.612 25.2269 12.0814 25.3932 12.4961 25.5801L11.6689 27.665C11.2406 27.4691 10.819 27.3141 10.4043 27.2002C9.98958 27.0817 9.60449 27.0225 9.24902 27.0225C9.0166 27.0225 8.8252 27.0521 8.6748 27.1113C8.52897 27.166 8.4196 27.2412 8.34668 27.3369C8.27832 27.4326 8.24414 27.542 8.24414 27.665C8.24414 27.82 8.30339 27.959 8.42188 28.082C8.54492 28.2051 8.74772 28.3395 9.03027 28.4854C9.31738 28.6266 9.70703 28.8112 10.1992 29.0391C10.6868 29.2578 11.1016 29.4948 11.4434 29.75C11.7852 30.0007 12.0449 30.3037 12.2227 30.6592C12.4049 31.0101 12.4961 31.4453 12.4961 31.9648ZM20.3369 35H17.6777V25.0059H23.584V27.1729H20.3369V29.0801H23.3311V31.2471H20.3369V35ZM33.7217 25.0059V31.0215C33.7217 31.86 33.5622 32.5892 33.2432 33.209C32.9242 33.8242 32.4456 34.3005 31.8076 34.6377C31.1696 34.9704 30.3698 35.1367 29.4082 35.1367C28.0319 35.1367 26.9814 34.7835 26.2568 34.0771C25.5322 33.3708 25.1699 32.3727 25.1699 31.083V25.0059H27.8838V30.8711C27.8838 31.5775 28.016 32.0902 28.2803 32.4092C28.5446 32.7282 28.9342 32.8877 29.4492 32.8877C29.8184 32.8877 30.1191 32.8193 30.3516 32.6826C30.584 32.5413 30.7526 32.3203 30.8574 32.0195C30.9668 31.7188 31.0215 31.3314 31.0215 30.8574V25.0059H33.7217ZM35.8203 35V25.0059H38.5205V32.8193H42.3691V35H35.8203ZM43.9688 35V25.0059H46.6689V32.8193H50.5176V35H43.9688Z" fill="#0A0A0B"/>
</svg>
